SplineFontDB: 3.2
FontName: Titillium-LightItalic
FullName: Titillium Light Italic
FamilyName: Titillium Light
Weight: Light
Copyright: Copyright (c) 2009-2011 by Accademia di Belle Arti di Urbino and students of MA course of Visual design. Some rights reserved.
Version: 57.000
ItalicAngle: -13
UnderlinePosition: -100
UnderlineWidth: 30
Ascent: 750
Descent: 250
InvalidEm: 0
sfntRevision: 0x00010000
LayerCount: 2
Layer: 0 0 "Zur+APwA-ck" 1
Layer: 1 0 "Zeichen" 0
XUID: [1021 1010 -703601740 20947]
StyleMap: 0x0001
FSType: 8
OS2Version: 3
OS2_WeightWidthSlopeOnly: 0
OS2_UseTypoMetrics: 0
CreationTime: 1339467513
ModificationTime: 1577951188
PfmFamily: 81
TTFWeight: 250
TTFWidth: 5
LineGap: 200
VLineGap: 0
Panose: 0 0 3 0 0 0 0 0 0 0
OS2TypoAscent: 750
OS2TypoAOffset: 0
OS2TypoDescent: -250
OS2TypoDOffset: 0
OS2TypoLinegap: 200
OS2WinAscent: 1072
OS2WinAOffset: 0
OS2WinDescent: 276
OS2WinDOffset: 0
HheadAscent: 750
HheadAOffset: 0
HheadDescent: -250
HheadDOffset: 0
OS2SubXSize: 650
OS2SubYSize: 600
OS2SubXOff: -17
OS2SubYOff: 75
OS2SupXSize: 650
OS2SupYSize: 600
OS2SupXOff: 81
OS2SupYOff: 350
OS2StrikeYSize: 30
OS2StrikeYPos: 299
OS2CapHeight: 695
OS2XHeight: 499
OS2Vendor: 'UKWN'
OS2CodePages: 20000093.00000000
OS2UnicodeRanges: 00000007.00000001.00000000.00000000
Lookup: 1 0 0 "'locl' Localized Forms in Lateinisch lookup 0" { "'locl' Localized Forms in Lateinisch lookup 0 subtable"  } ['locl' ('DFLT' <'dflt' > 'latn' <'dflt' > ) ]
Lookup: 1 0 0 "'frac' Diagonal Fractions in Lateinisch lookup 1" { "'frac' Diagonal Fractions in Lateinisch lookup 1 subtable"  } ['frac' ('DFLT' <'dflt' > 'latn' <'dflt' > ) ]
Lookup: 6 0 0 "'frac' Diagonal Fractions in Lateinisch lookup 2" { "'frac' Diagonal Fractions in Lateinisch lookup 2 subtable"  } ['frac' ('DFLT' <'dflt' > 'latn' <'dflt' > ) ]
Lookup: 1 0 0 "'frac' Diagonal Fractions in Lateinisch lookup 3" { "'frac' Diagonal Fractions in Lateinisch lookup 3 subtable"  } ['frac' ('DFLT' <'dflt' > 'latn' <'dflt' > ) ]

StartChar: acute
Encoding: 180 180 2
Width: 542
Flags: MW
HStem: 601 140
VStem: 279 225<647 688>
LayerCount: 2
Fore
SplineSet
285 601 m 1
 279 647 l 1
 497 741 l 1
 504 688 l 1
 285 601 l 1
EndSplineSet
EndChar

StartChar: breve
Encoding: 728 728 3
Width: 433
Flags: MW
HStem: 594 49<332 391 332 396> 594 133<244 396>
VStem: 240 52
LayerCount: 2
Fore
SplineSet
244 727 m 1x60
 295 727 l 1x60
 283 679 303 643 361 643 c 0xa0
 421 643 454 679 467 727 c 1
 519 727 l 1
 496 647 446 594 346 594 c 0
 262 594 227 650 244 727 c 1x60
EndSplineSet
EndChar

StartChar: caron
Encoding: 711 711 4
Width: 791
Flags: MW
HStem: 590 145<424 541 424 509>
VStem: 424 273<735 735>
LayerCount: 2
Fore
SplineSet
541 590 m 1
 509 590 l 1
 424 735 l 1
 479 735 l 1
 536 640 l 1
 635 735 l 1
 697 735 l 1
 541 590 l 1
EndSplineSet
EndChar

StartChar: cedilla
Encoding: 184 184 5
Width: 791
Flags: MW
HStem: -207 46<381 409 381 423.5> -86 38<369 419>
VStem: 317 184
LayerCount: 2
Fore
SplineSet
499 -124 m 0
 486 -182 452 -207 395 -207 c 0
 354 -207 317 -201 317 -201 c 1
 328 -157 l 1
 328 -157 367 -161 395 -161 c 0
 423 -161 440 -150 447 -122 c 0
 454 -92 435 -86 413 -86 c 2
 369 -86 l 1
 391 5 l 1
 428 5 l 1
 414 -48 l 1
 419 -48 l 2
 472 -48 512 -66 499 -124 c 0
EndSplineSet
EndChar

StartChar: circumflex
Encoding: 710 710 6
Width: 791
Flags: MW
HStem: 590 145<392 574 543 605 543 661>
VStem: 392 269<590 590>
LayerCount: 2
Fore
SplineSet
392 590 m 1
 543 735 l 1
 574 735 l 1
 661 590 l 1
 605 590 l 1
 551 682 l 1
 454 590 l 1
 392 590 l 1
EndSplineSet
EndChar

StartChar: commaaccent
Encoding: 63171 63171 7
Width: 161
Flags: MW
HStem: -276 203<-37 104 -37 104>
VStem: -37 141
LayerCount: 2
Fore
SplineSet
-37 -276 m 1
 48 -73 l 1
 104 -73 l 1
 11 -276 l 1
 -37 -276 l 1
EndSplineSet
EndChar

StartChar: dieresis
Encoding: 168 168 8
Width: 722
Flags: MW
HStem: 625 82<249 317 268 298 446 476>
VStem: 249 246<625 707>
LayerCount: 2
Fore
SplineSet
249 625 m 1
 268 707 l 1
 317 707 l 1
 298 625 l 1
 249 625 l 1
428 625 m 1
 446 707 l 1
 495 707 l 1
 476 625 l 1
 428 625 l 1
EndSplineSet
EndChar

StartChar: dotaccent
Encoding: 729 729 9
Width: 217
Flags: MW
HStem: 610 78<225 295 244 277>
VStem: 225 70
LayerCount: 2
Fore
SplineSet
225 610 m 1
 244 688 l 1
 295 688 l 1
 277 610 l 1
 225 610 l 1
EndSplineSet
EndChar

StartChar: hungarumlaut
Encoding: 733 733 10
Width: 660
Flags: MW
HStem: 586 161<311 455 455 490>
VStem: 283 383<621 711>
LayerCount: 2
Fore
SplineSet
490 586 m 1
 462 621 l 1
 634 747 l 1
 666 711 l 1
 490 586 l 1
311 586 m 1
 283 621 l 1
 455 747 l 1
 486 711 l 1
 311 586 l 1
EndSplineSet
EndChar

StartChar: grave
Encoding: 96 96 11
Width: 518
Flags: MW
HStem: 599 135
VStem: 289 205<640 687>
LayerCount: 2
Fore
SplineSet
318 734 m 1
 494 640 l 1
 466 599 l 1
 289 687 l 1
 318 734 l 1
EndSplineSet
EndChar

StartChar: macron
Encoding: 175 175 12
Width: 433
Flags: MW
HStem: 642 47<232 510 243 498>
VStem: 232 278<642 689>
LayerCount: 2
Fore
SplineSet
232 642 m 1
 243 689 l 1
 510 689 l 1
 498 642 l 1
 232 642 l 1
EndSplineSet
EndChar

StartChar: ogonek
Encoding: 731 731 13
Width: 421
Flags: MW
HStem: -202 54<182.5 239>
VStem: 137 66<-133 -115>
LayerCount: 2
Fore
SplineSet
282 -142 m 1
 276 -193 l 1
 276 -193 234 -202 205 -202 c 0
 160 -202 137 -179 137 -142 c 0
 137 -88 215 -15 249 11 c 1
 301 3 l 1
 271 -20 203 -87 203 -126 c 0
 203 -140 213 -148 231 -148 c 0
 247 -148 282 -142 282 -142 c 1
EndSplineSet
EndChar

StartChar: ring
Encoding: 730 730 14
Width: 791
Flags: MW
HStem: 549 41<377 407 377 411> 696 43<403 432.5>
VStem: 313 182
LayerCount: 2
Fore
SplineSet
315 644 m 0
 325 694 368 739 428 739 c 0
 476 739 499 708 495 660 c 0
 491 595 441 549 381 549 c 0
 322 549 305 590 315 644 c 0
354 644 m 0
 348 618 362 590 392 590 c 0
 422 590 448 614 455 644 c 0
 462 670 447 696 418 696 c 0
 388 696 361 673 354 644 c 0
EndSplineSet
EndChar

StartChar: tilde
Encoding: 732 732 15
Width: 422
Flags: MW
HStem: 620 53<431 450> 668 21G<521 521> 669 21G<294.5 319.5> 702 20G<302 339>
VStem: 225 296<668 672>
LayerCount: 2
Fore
SplineSet
517 714 m 1x98
 521 668 l 1
 521 668 467 620 433 620 c 0x58
 396 620 334 669 305 669 c 0
 284 669 227 625 227 625 c 1x38
 225 672 l 1
 225 672 285 722 319 722 c 0
 359 722 418 673 444 673 c 0
 463 673 517 714 517 714 c 1x98
EndSplineSet
EndChar

StartChar: A
Encoding: 65 65 16
Width: 555
Flags: MW
HStem: 0 21G<27 27 27 89 470 470 470 531> 191 54<215 462 215 462 188 462> 640 55<417 417 417 449>
VStem: 455.5 64
LayerCount: 2
Fore
SplineSet
27 0 m 1
 382 695 l 1
 508 695 l 1
 531 0 l 1
 470 0 l 1
 462 191 l 1
 188 191 l 1
 89 0 l 1
 27 0 l 1
417 640 m 1
 215 245 l 1
 462 245 l 1
 449 640 l 1
 417 640 l 1
EndSplineSet
Position2: "'cpsp' Capital Spacing in Lateinisch lookup 0 subtable" dx=5 dy=0 dh=10 dv=0
EndChar

StartChar: Aacute
Encoding: 193 193 17
Width: 555
Flags: MW
HStem: 0 21G<27 27 27 89 470 470 470 531> 191 54<215 462 215 462 188 462> 640 55<417 417 417 449>
VStem: 455.5 64
LayerCount: 2
Fore
SplineSet
396 790 m 1
 388 835 l 1
 607 930 l 1
 616 878 l 1
 396 790 l 1
27 0 m 1
 382 695 l 1
 508 695 l 1
 531 0 l 1
 470 0 l 1
 462 191 l 1
 188 191 l 1
 89 0 l 1
 27 0 l 1
417 640 m 1
 215 245 l 1
 462 245 l 1
 449 640 l 1
 417 640 l 1
EndSplineSet
Position2: "'cpsp' Capital Spacing in Lateinisch lookup 0 subtable" dx=5 dy=0 dh=10 dv=0
EndChar

StartChar: Abreve
Encoding: 258 258 18
Width: 555
Flags: MW
HStem: 0 21G<27 27 27 89 470 470 470 531> 191 54<215 462 215 462 188 462> 640 55<417 417 417 449> 798 48<446.5 492.5 446.5 500.5>
VStem: 350 56 455.5 64
LayerCount: 2
Fore
SplineSet
353 921 m 1
 406 921 l 1
 396 863 423 846 470 846 c 0
 515 846 558 876 570 921 c 1
 623 921 l 1
 601 843 542 798 459 798 c 0
 379 798 338 838 353 921 c 1
27 0 m 1
 382 695 l 1
 508 695 l 1
 531 0 l 1
 470 0 l 1
 462 191 l 1
 188 191 l 1
 89 0 l 1
 27 0 l 1
417 640 m 1
 215 245 l 1
 462 245 l 1
 449 640 l 1
 417 640 l 1
EndSplineSet
Position2: "'cpsp' Capital Spacing in Lateinisch lookup 0 subtable" dx=5 dy=0 dh=10 dv=0
EndChar

StartChar: Acircumflex
Encoding: 194 194 19
Width: 555
Flags: MW
HStem: 0 21G<27 27 27 89 470 470 470 531> 191 54<215 462 215 462 188 462> 640 55<417 417 417 449> 797 134<311 502 472 543 472 599>
VStem: 455.5 64
LayerCount: 2
Fore
SplineSet
311 797 m 1
 472 931 l 1
 502 931 l 1
 599 797 l 1
 543 797 l 1
 482 883 l 1
 377 797 l 1
 311 797 l 1
27 0 m 1
 382 695 l 1
 508 695 l 1
 531 0 l 1
 470 0 l 1
 462 191 l 1
 188 191 l 1
 89 0 l 1
 27 0 l 1
417 640 m 1
 215 245 l 1
 462 245 l 1
 449 640 l 1
 417 640 l 1
EndSplineSet
Position2: "'cpsp' Capital Spacing in Lateinisch lookup 0 subtable" dx=5 dy=0 dh=10 dv=0
EndChar

StartChar: Agrave
Encoding: 192 192 20
Width: 555
Flags: MW
HStem: 0 21G<27 27 27 89 470 470 470 531> 191 54<215 462 215 462 188 462> 640 55<417 417 417 449>
VStem: 455.5 64
LayerCount: 2
Fore
SplineSet
358 925 m 1
 533 830 l 1
 507 787 l 1
 329 875 l 1
 358 925 l 1
27 0 m 1
 382 695 l 1
 508 695 l 1
 531 0 l 1
 470 0 l 1
 462 191 l 1
 188 191 l 1
 89 0 l 1
 27 0 l 1
417 640 m 1
 215 245 l 1
 462 245 l 1
 449 640 l 1
 417 640 l 1
EndSplineSet
Position2: "'cpsp' Capital Spacing in Lateinisch lookup 0 subtable" dx=5 dy=0 dh=10 dv=0
EndChar

StartChar: Adieresis
Encoding: 196 196 21
Width: 555
Flags: MW
HStem: 0 21G<27 27 27 89 470 470 470 531> 191 54<215 462 215 462 188 462> 640 55<417 417 417 449> 820 83<349 417 367 397 553 582>
VStem: 455.5 64
LayerCount: 2
Fore
SplineSet
349 820 m 1
 367 903 l 1
 417 903 l 1
 397 820 l 1
 349 820 l 1
533 820 m 1
 553 903 l 1
 602 903 l 1
 582 820 l 1
 533 820 l 1
27 0 m 1
 382 695 l 1
 508 695 l 1
 531 0 l 1
 470 0 l 1
 462 191 l 1
 188 191 l 1
 89 0 l 1
 27 0 l 1
417 640 m 1
 215 245 l 1
 462 245 l 1
 449 640 l 1
 417 640 l 1
EndSplineSet
Position2: "'cpsp' Capital Spacing in Lateinisch lookup 0 subtable" dx=5 dy=0 dh=10 dv=0
EndChar

StartChar: Amacron
Encoding: 256 256 22
Width: 555
Flags: MW
HStem: 0 21G<27 27 27 89 470 470 470 531> 191 54<215 462 215 462 188 462> 640 55<417 417 417 449> 835 46<322 618 332 606>
VStem: 455.5 64
LayerCount: 2
Fore
SplineSet
322 835 m 1
 332 881 l 1
 618 881 l 1
 606 835 l 1
 322 835 l 1
27 0 m 1
 382 695 l 1
 508 695 l 1
 531 0 l 1
 470 0 l 1
 462 191 l 1
 188 191 l 1
 89 0 l 1
 27 0 l 1
417 640 m 1
 215 245 l 1
 462 245 l 1
 449 640 l 1
 417 640 l 1
EndSplineSet
Position2: "'cpsp' Capital Spacing in Lateinisch lookup 0 subtable" dx=5 dy=0 dh=10 dv=0
EndChar

StartChar: Aogonek
Encoding: 260 260 23
Width: 555
Flags: MW
HStem: -202 54<413.5 470> 0 21G<27 27 27 89 528 528 528 531> 191 54<215 462 215 462 188 462> 640 55<417 417 417 449>
VStem: 368 66<-133 -117.5> 455.5 75.5
LayerCount: 2
Fore
SplineSet
27 0 m 1
 382 695 l 1
 508 695 l 1x74
 531 3 l 1
 532 3 l 1
 531 2 l 1
 531 0 l 1
 528 0 l 1
 496 -25 434 -88 434 -126 c 0
 434 -140 444 -148 462 -148 c 0
 478 -148 513 -142 513 -142 c 1
 507 -193 l 1
 507 -193 465 -202 436 -202 c 0
 391 -202 368 -179 368 -142 c 0xfc
 368 -93 433 -28 470 3 c 1
 462 191 l 1
 188 191 l 1
 89 0 l 1
 27 0 l 1
417 640 m 1
 215 245 l 1
 462 245 l 1
 449 640 l 1
 417 640 l 1
EndSplineSet
Position2: "'cpsp' Capital Spacing in Lateinisch lookup 0 subtable" dx=5 dy=0 dh=10 dv=0
EndChar

StartChar: Aring
Encoding: 197 197 24
Width: 555
Flags: MW
HStem: 0 21G<27 27 27 89 470 470 470 531> 191 54<215 462 215 462 188 462> 640 55<417 463 425 449> 671 21G<370 370> 798 43<451.5 485.5>
VStem: 355 45 455.5 64 513 45
LayerCount: 2
Fore
SplineSet
27 0 m 1xde
 370 671 l 1
 354 688 350 713 359 745 c 0
 376 809 421 841 480 841 c 0
 536 841 570 812 554 745 c 0xdd
 546 714 530 689 508 673 c 1
 531 0 l 1
 470 0 l 1
 462 191 l 1
 188 191 l 1
 89 0 l 1
 27 0 l 1xde
417 640 m 1xee
 215 245 l 1
 462 245 l 1
 449 640 l 1
 417 640 l 1xee
400 745 m 0
 394 721 401 701 425 695 c 1
 463 695 l 1
 489 701 506 718 513 745 c 0
 520 778 502 798 469 798 c 0xed
 434 798 408 779 400 745 c 0
EndSplineSet
Position2: "'cpsp' Capital Spacing in Lateinisch lookup 0 subtable" dx=5 dy=0 dh=10 dv=0
EndChar

StartChar: Atilde
Encoding: 195 195 25
Width: 555
Flags: MW
HStem: 0 21G<27 27 27 89 470 470 470 531> 191 54<215 462 215 462 188 462> 640 55<417 417 417 449> 809 53<530 549.5> 868 52<388.5 409.5>
VStem: 455.5 64
LayerCount: 2
Fore
SplineSet
626 910 m 1
 629 868 l 1
 629 868 566 809 533 809 c 0xf4
 490 809 425 868 394 868 c 0
 373 868 306 817 306 817 c 1
 304 861 l 1
 304 861 371 920 406 920 c 0xec
 453 920 515 862 545 862 c 0
 564 862 626 910 626 910 c 1
27 0 m 1
 382 695 l 1
 508 695 l 1
 531 0 l 1
 470 0 l 1
 462 191 l 1
 188 191 l 1
 89 0 l 1
 27 0 l 1
417 640 m 1
 215 245 l 1
 462 245 l 1
 449 640 l 1
 417 640 l 1
EndSplineSet
Position2: "'cpsp' Capital Spacing in Lateinisch lookup 0 subtable" dx=5 dy=0 dh=10 dv=0
EndChar

StartChar: AE
Encoding: 198 198 26
Width: 786
Flags: MW
HStem: 0 57<428 741> 191 56<212 401 185 414> 326 56<504 762 492 774> 641 56
VStem: 27 878<0 697>
LayerCount: 2
Fore
SplineSet
357 0 m 1
 401 191 l 1
 185 191 l 1
 86 0 l 1
 27 0 l 1
 382 697 l 1
 905 697 l 1
 893 640 l 1
 567 642 l 1
 504 382 l 1
 774 382 l 1
 762 326 l 1
 492 326 l 1
 428 57 l 1
 753 57 l 1
 741 0 l 1
 357 0 l 1
412 640 m 1
 212 247 l 1
 414 247 l 1
 509 640 l 1
 412 640 l 1
EndSplineSet
Position2: "'cpsp' Capital Spacing in Lateinisch lookup 0 subtable" dx=5 dy=0 dh=10 dv=0
EndChar

StartChar: AEacute
Encoding: 508 508 27
Width: 786
Flags: MW
HStem: 0 57<428 741> 191 56<212 401 185 414> 326 56<504 762 492 774> 641 56
VStem: 27 878<0 697>
LayerCount: 2
Fore
SplineSet
357 0 m 1
 401 191 l 1
 185 191 l 1
 86 0 l 1
 27 0 l 1
 382 697 l 1
 905 697 l 1
 893 640 l 1
 567 642 l 1
 504 382 l 1
 774 382 l 1
 762 326 l 1
 492 326 l 1
 428 57 l 1
 753 57 l 1
 741 0 l 1
 357 0 l 1
412 640 m 1
 212 247 l 1
 414 247 l 1
 509 640 l 1
 412 640 l 1
560 790 m 1
 552 835 l 1
 771 930 l 1
 780 878 l 1
 560 790 l 1
EndSplineSet
Position2: "'cpsp' Capital Spacing in Lateinisch lookup 0 subtable" dx=5 dy=0 dh=10 dv=0
EndChar

StartChar: B
Encoding: 66 66 28
Width: 578
Flags: MW
HStem: 0 54<155 315> 328 54<230 386 218 396> 641 54<289 450 289 289>
VStem: 514 64<182.5 273 167.5 275> 561 63<509 587.5>
LayerCount: 2
Fore
SplineSet
241 695 m 1xf0
 461 695 l 2
 567 695 624 659 624 562 c 0xe8
 624 456 562 388 490 360 c 1
 547 340 578 306 578 240 c 0
 578 95 486 0 315 0 c 2
 81 0 l 1
 241 695 l 1xf0
386 328 m 2
 218 328 l 1
 155 54 l 1
 328 54 l 2
 447 54 514 126 514 239 c 0xf0
 514 311 458 328 386 328 c 2
450 641 m 2
 289 641 l 1
 230 382 l 1
 396 382 l 2
 495 382 561 459 561 554 c 0xe8
 561 621 526 641 450 641 c 2
EndSplineSet
Position2: "'cpsp' Capital Spacing in Lateinisch lookup 0 subtable" dx=5 dy=0 dh=10 dv=0
EndChar

StartChar: C
Encoding: 67 67 29
Width: 506
Flags: MW
HStem: -10 56<267 344.5> 649 56<367 497>
VStem: 115 64<142 289 142 295>
LayerCount: 2
Fore
SplineSet
476 63 m 1
 473 12 l 1
 473 12 384 -10 305 -10 c 0
 178 -10 115 59 115 189 c 0
 115 401 221 705 464 705 c 0
 542 705 629 683 629 683 c 1
 615 633 l 1
 615 633 534 649 460 649 c 0
 274 649 179 387 179 191 c 0
 179 93 220 46 314 46 c 0
 393 46 476 63 476 63 c 1
EndSplineSet
Position2: "'cpsp' Capital Spacing in Lateinisch lookup 0 subtable" dx=5 dy=0 dh=10 dv=0
EndChar

StartChar: Cacute
Encoding: 262 262 30
Width: 506
Flags: MW
HStem: -10 56<267 344.5> 649 56<367 497>
VStem: 115 64<142 289 142 295>
LayerCount: 2
Fore
SplineSet
476 63 m 1
 473 12 l 1
 473 12 384 -10 305 -10 c 0
 178 -10 115 59 115 189 c 0
 115 401 221 705 464 705 c 0
 542 705 629 683 629 683 c 1
 615 633 l 1
 615 633 534 649 460 649 c 0
 274 649 179 387 179 191 c 0
 179 93 220 46 314 46 c 0
 393 46 476 63 476 63 c 1
417 790 m 1
 409 835 l 1
 628 930 l 1
 637 878 l 1
 417 790 l 1
EndSplineSet
Position2: "'cpsp' Capital Spacing in Lateinisch lookup 0 subtable" dx=5 dy=0 dh=10 dv=0
EndChar

StartChar: Ccaron
Encoding: 268 268 31
Width: 506
Flags: MW
HStem: -10 56<267 344.5> 649 56<367 497> 796 134<373 507 373 471>
VStem: 115 64<142 289 142 295>
LayerCount: 2
Fore
SplineSet
476 63 m 1
 473 12 l 1
 473 12 384 -10 305 -10 c 0
 178 -10 115 59 115 189 c 0
 115 401 221 705 464 705 c 0
 542 705 629 683 629 683 c 1
 615 633 l 1
 615 633 534 649 460 649 c 0
 274 649 179 387 179 191 c 0
 179 93 220 46 314 46 c 0
 393 46 476 63 476 63 c 1
663 930 m 1
 507 796 l 1
 471 796 l 1
 373 930 l 1
 432 930 l 1
 497 841 l 1
 600 930 l 1
 663 930 l 1
EndSplineSet
Position2: "'cpsp' Capital Spacing in Lateinisch lookup 0 subtable" dx=5 dy=0 dh=10 dv=0
EndChar

StartChar: Ccedilla
Encoding: 199 199 32
Width: 506
Flags: MW
HStem: -207 46<259 287 259 301.5> -86 38<247 297> -10 56<302 305 302 302> -7 21G<266 266> 649 56<367 497>
VStem: 115 64<142 289 142 295>
LayerCount: 2
Fore
SplineSet
476 63 m 1xec
 473 12 l 1
 473 12 384 -10 305 -10 c 2
 302 -10 l 1xec
 292 -48 l 1
 297 -48 l 2
 350 -48 390 -66 377 -124 c 0
 364 -182 330 -207 273 -207 c 0
 232 -207 195 -201 195 -201 c 1
 206 -157 l 1
 206 -157 245 -161 273 -161 c 0
 301 -161 318 -150 325 -122 c 0
 332 -92 313 -86 291 -86 c 2
 247 -86 l 1
 266 -7 l 1xdc
 165 6 115 73 115 189 c 0
 115 401 221 705 464 705 c 0
 542 705 629 683 629 683 c 1
 615 633 l 1
 615 633 534 649 460 649 c 0
 274 649 179 387 179 191 c 0
 179 93 220 46 314 46 c 0
 393 46 476 63 476 63 c 1xec
EndSplineSet
Position2: "'cpsp' Capital Spacing in Lateinisch lookup 0 subtable" dx=5 dy=0 dh=10 dv=0
EndChar

StartChar: Ccircumflex
Encoding: 264 264 33
Width: 506
Flags: MW
HStem: -10 56<267 344.5> 649 56<367 497> 797 134<346 537 507 578 507 634>
VStem: 115 64<142 289 142 295>
LayerCount: 2
Fore
SplineSet
476 63 m 1
 473 12 l 1
 473 12 384 -10 305 -10 c 0
 178 -10 115 59 115 189 c 0
 115 401 221 705 464 705 c 0
 542 705 629 683 629 683 c 1
 615 633 l 1
 615 633 534 649 460 649 c 0
 274 649 179 387 179 191 c 0
 179 93 220 46 314 46 c 0
 393 46 476 63 476 63 c 1
346 797 m 1
 507 931 l 1
 537 931 l 1
 634 797 l 1
 578 797 l 1
 517 883 l 1
 412 797 l 1
 346 797 l 1
EndSplineSet
Position2: "'cpsp' Capital Spacing in Lateinisch lookup 0 subtable" dx=5 dy=0 dh=10 dv=0
EndChar

StartChar: Cdotaccent
Encoding: 266 266 34
Width: 506
Flags: MW
HStem: -10 56<267 344.5> 649 56<367 497> 798 78<461 528 478 511>
VStem: 115 64<142 289 142 295>
LayerCount: 2
Fore
SplineSet
476 63 m 1
 473 12 l 1
 473 12 384 -10 305 -10 c 0
 178 -10 115 59 115 189 c 0
 115 401 221 705 464 705 c 0
 542 705 629 683 629 683 c 1
 615 633 l 1
 615 633 534 649 460 649 c 0
 274 649 179 387 179 191 c 0
 179 93 220 46 314 46 c 0
 393 46 476 63 476 63 c 1
461 798 m 1
 478 876 l 1
 528 876 l 1
 511 798 l 1
 461 798 l 1
EndSplineSet
Position2: "'cpsp' Capital Spacing in Lateinisch lookup 0 subtable" dx=5 dy=0 dh=10 dv=0
EndChar

StartChar: D
Encoding: 68 68 35
Width: 607
Flags: MW
HStem: 0 55<156 319> 640 55<290 454 290 290>
VStem: 585 64<403.5 541.5>
LayerCount: 2
Fore
SplineSet
319 0 m 2
 81 0 l 1
 241 695 l 1
 466 695 l 2
 588 695 649 633 649 489 c 0
 649 281 547 0 319 0 c 2
585 489 m 0
 585 594 548 640 454 640 c 2
 290 640 l 1
 156 55 l 1
 329 55 l 2
 499 55 585 318 585 489 c 0
EndSplineSet
Position2: "'cpsp' Capital Spacing in Lateinisch lookup 0 subtable" dx=5 dy=0 dh=10 dv=0
EndChar

StartChar: Dcaron
Encoding: 270 270 36
Width: 607
Flags: MW
HStem: 695 235<331 390 331 466 241 390> 796 134<331 465 331 429>
VStem: 81 568<0 561>
LayerCount: 2
Fore
SplineSet
81 0 m 1xa0
 319 0 l 2
 547 0 649 281 649 489 c 0
 649 633 588 695 466 695 c 2
 241 695 l 1
 81 0 l 1xa0
585 489 m 0
 585 318 499 55 329 55 c 2
 156 55 l 1
 290 640 l 1
 454 640 l 2
 548 640 585 594 585 489 c 0
621 930 m 1
 465 796 l 1
 429 796 l 1x60
 331 930 l 1
 390 930 l 1xa0
 455 841 l 1x60
 558 930 l 1
 621 930 l 1
EndSplineSet
Position2: "'cpsp' Capital Spacing in Lateinisch lookup 0 subtable" dx=5 dy=0 dh=10 dv=0
EndChar

StartChar: Dcroat
Encoding: 272 272 37
Width: 611
Flags: MW
HStem: 0 55<159 322> 318 62<100 157 87 171 100 219 233 368> 640 55<293 457 293 293>
VStem: 588 64<403.5 541.5>
LayerCount: 2
Fore
SplineSet
322 0 m 2
 84 0 l 1
 157 318 l 1
 87 318 l 1
 100 380 l 1
 171 380 l 1
 244 695 l 1
 469 695 l 2
 591 695 652 633 652 489 c 0
 652 281 550 0 322 0 c 2
588 489 m 0
 588 594 551 640 457 640 c 2
 293 640 l 1
 233 380 l 1
 382 380 l 1
 368 318 l 1
 219 318 l 1
 159 55 l 1
 332 55 l 2
 502 55 588 318 588 489 c 0
EndSplineSet
Position2: "'cpsp' Capital Spacing in Lateinisch lookup 0 subtable" dx=5 dy=0 dh=10 dv=0
EndChar

StartChar: E
Encoding: 69 69 38
Width: 507
Flags: MW
HStem: 0 55<155 463> 327 55<230 483 218 496> 640 55<290 611 290 290>
VStem: 81 543
LayerCount: 2
Fore
SplineSet
81 0 m 1
 241 695 l 1
 624 695 l 1
 611 640 l 1
 290 640 l 1
 230 382 l 1
 496 382 l 1
 483 327 l 1
 218 327 l 1
 155 55 l 1
 476 55 l 1
 463 0 l 1
 81 0 l 1
EndSplineSet
Position2: "'cpsp' Capital Spacing in Lateinisch lookup 0 subtable" dx=5 dy=0 dh=10 dv=0
EndChar

StartChar: Eacute
Encoding: 201 201 39
Width: 507
Flags: MW
HStem: 0 55<155 463> 327 55<230 483 218 496> 640 55<290 611 290 290>
VStem: 81 543
LayerCount: 2
Fore
SplineSet
383 790 m 1
 375 835 l 1
 594 930 l 1
 603 878 l 1
 383 790 l 1
81 0 m 1
 241 695 l 1
 624 695 l 1
 611 640 l 1
 290 640 l 1
 230 382 l 1
 496 382 l 1
 483 327 l 1
 218 327 l 1
 155 55 l 1
 476 55 l 1
 463 0 l 1
 81 0 l 1
EndSplineSet
Position2: "'cpsp' Capital Spacing in Lateinisch lookup 0 subtable" dx=5 dy=0 dh=10 dv=0
EndChar

StartChar: Ebreve
Encoding: 276 276 40
Width: 507
Flags: MW
HStem: 0 55<155 463> 327 55<230 483 218 496> 640 55<290 611 290 290> 799 48<433.5 479.5 433.5 487.5>
VStem: 337 56
LayerCount: 2
Fore
SplineSet
340 922 m 1
 393 922 l 1
 383 864 410 847 457 847 c 0
 502 847 545 877 557 922 c 1
 610 922 l 1
 588 844 529 799 446 799 c 0
 366 799 325 839 340 922 c 1
81 0 m 1
 241 695 l 1
 624 695 l 1
 611 640 l 1
 290 640 l 1
 230 382 l 1
 496 382 l 1
 483 327 l 1
 218 327 l 1
 155 55 l 1
 476 55 l 1
 463 0 l 1
 81 0 l 1
EndSplineSet
Position2: "'cpsp' Capital Spacing in Lateinisch lookup 0 subtable" dx=5 dy=0 dh=10 dv=0
EndChar

StartChar: Ecaron
Encoding: 282 282 41
Width: 507
Flags: MW
HStem: 0 55<155 463> 327 55<230 483 218 496> 640 55<290 611 290 290> 800 134<327 461 327 425>
VStem: 81 543
LayerCount: 2
Fore
SplineSet
617 934 m 1
 461 800 l 1
 425 800 l 1
 327 934 l 1
 386 934 l 1
 451 845 l 1
 554 934 l 1
 617 934 l 1
81 0 m 1
 241 695 l 1
 624 695 l 1
 611 640 l 1
 290 640 l 1
 230 382 l 1
 496 382 l 1
 483 327 l 1
 218 327 l 1
 155 55 l 1
 476 55 l 1
 463 0 l 1
 81 0 l 1
EndSplineSet
Position2: "'cpsp' Capital Spacing in Lateinisch lookup 0 subtable" dx=5 dy=0 dh=10 dv=0
EndChar

StartChar: Ecircumflex
Encoding: 202 202 42
Width: 507
Flags: MW
HStem: 0 55<155 463> 327 55<230 483 218 496> 640 55<290 611 290 290> 794 134<363 554 524 595 524 651>
VStem: 81 570
LayerCount: 2
Fore
SplineSet
363 794 m 1
 524 928 l 1
 554 928 l 1
 651 794 l 1
 595 794 l 1
 534 880 l 1
 429 794 l 1
 363 794 l 1
81 0 m 1
 241 695 l 1
 624 695 l 1
 611 640 l 1
 290 640 l 1
 230 382 l 1
 496 382 l 1
 483 327 l 1
 218 327 l 1
 155 55 l 1
 476 55 l 1
 463 0 l 1
 81 0 l 1
EndSplineSet
Position2: "'cpsp' Capital Spacing in Lateinisch lookup 0 subtable" dx=5 dy=0 dh=10 dv=0
EndChar

StartChar: Edieresis
Encoding: 203 203 43
Width: 507
Flags: MW
HStem: 0 55<155 463> 327 55<230 483 218 496> 640 55<290 611 290 290> 820 83<343 411 361 391 547 576>
VStem: 81 543
LayerCount: 2
Fore
SplineSet
343 820 m 1
 361 903 l 1
 411 903 l 1
 391 820 l 1
 343 820 l 1
527 820 m 1
 547 903 l 1
 596 903 l 1
 576 820 l 1
 527 820 l 1
81 0 m 1
 241 695 l 1
 624 695 l 1
 611 640 l 1
 290 640 l 1
 230 382 l 1
 496 382 l 1
 483 327 l 1
 218 327 l 1
 155 55 l 1
 476 55 l 1
 463 0 l 1
 81 0 l 1
EndSplineSet
Position2: "'cpsp' Capital Spacing in Lateinisch lookup 0 subtable" dx=5 dy=0 dh=10 dv=0
EndChar

StartChar: Edotaccent
Encoding: 278 278 44
Width: 507
Flags: MW
HStem: 0 55<155 463> 327 55<230 483 218 496> 640 55<290 611 290 290> 844 78<430 497 447 480>
VStem: 81 543
LayerCount: 2
Fore
SplineSet
430 844 m 1
 447 922 l 1
 497 922 l 1
 480 844 l 1
 430 844 l 1
81 0 m 1
 241 695 l 1
 624 695 l 1
 611 640 l 1
 290 640 l 1
 230 382 l 1
 496 382 l 1
 483 327 l 1
 218 327 l 1
 155 55 l 1
 476 55 l 1
 463 0 l 1
 81 0 l 1
EndSplineSet
Position2: "'cpsp' Capital Spacing in Lateinisch lookup 0 subtable" dx=5 dy=0 dh=10 dv=0
EndChar

StartChar: Egrave
Encoding: 200 200 45
Width: 507
Flags: MW
HStem: 0 55<155 463> 327 55<230 483 218 496> 640 55<290 611 290 290>
VStem: 81 543
LayerCount: 2
Fore
SplineSet
377 925 m 1
 552 830 l 1
 526 787 l 1
 348 875 l 1
 377 925 l 1
81 0 m 1
 241 695 l 1
 624 695 l 1
 611 640 l 1
 290 640 l 1
 230 382 l 1
 496 382 l 1
 483 327 l 1
 218 327 l 1
 155 55 l 1
 476 55 l 1
 463 0 l 1
 81 0 l 1
EndSplineSet
Position2: "'cpsp' Capital Spacing in Lateinisch lookup 0 subtable" dx=5 dy=0 dh=10 dv=0
EndChar

StartChar: Emacron
Encoding: 274 274 46
Width: 507
Flags: MW
HStem: 0 55<155 463> 327 55<230 483 218 496> 640 55<290 611 290 290> 828 46<313 609 323 597>
VStem: 81 543
LayerCount: 2
Fore
SplineSet
313 828 m 1
 323 874 l 1
 609 874 l 1
 597 828 l 1
 313 828 l 1
81 0 m 1
 241 695 l 1
 624 695 l 1
 611 640 l 1
 290 640 l 1
 230 382 l 1
 496 382 l 1
 483 327 l 1
 218 327 l 1
 155 55 l 1
 476 55 l 1
 463 0 l 1
 81 0 l 1
EndSplineSet
Position2: "'cpsp' Capital Spacing in Lateinisch lookup 0 subtable" dx=5 dy=0 dh=10 dv=0
EndChar

StartChar: Eogonek
Encoding: 280 280 47
Width: 507
Flags: MW
HStem: -202 54<326.5 383> 0 55<155 379 441 441 441 463> 327 55<230 483 218 496> 640 55<290 611 290 290>
VStem: 281 66<-133 -118>
LayerCount: 2
Fore
SplineSet
81 0 m 1
 241 695 l 1
 624 695 l 1
 611 640 l 1
 290 640 l 1
 230 382 l 1
 496 382 l 1
 483 327 l 1
 218 327 l 1
 155 55 l 1
 476 55 l 1
 463 0 l 1
 441 0 l 1
 409 -25 347 -88 347 -126 c 0
 347 -140 357 -148 375 -148 c 0
 391 -148 426 -142 426 -142 c 1
 420 -193 l 1
 420 -193 378 -202 349 -202 c 0
 304 -202 281 -179 281 -142 c 0
 281 -94 341 -32 379 0 c 1
 81 0 l 1
EndSplineSet
Position2: "'cpsp' Capital Spacing in Lateinisch lookup 0 subtable" dx=5 dy=0 dh=10 dv=0
EndChar

StartChar: F
Encoding: 70 70 48
Width: 483
Flags: MW
HStem: 0 21G<81 81 81 142> 296 54<223 478 210 491> 640 55<290 602 290 290>
VStem: 81 534
LayerCount: 2
Fore
SplineSet
81 0 m 1
 241 695 l 1
 615 695 l 1
 602 640 l 1
 290 640 l 1
 223 350 l 1
 491 350 l 1
 478 296 l 1
 210 296 l 1
 142 0 l 1
 81 0 l 1
EndSplineSet
Position2: "'cpsp' Capital Spacing in Lateinisch lookup 0 subtable" dx=5 dy=0 dh=10 dv=0
EndChar

StartChar: G
Encoding: 71 71 49
Width: 573
Flags: MW
HStem: -10 55<279 357 279 370> 301 53<403 592 415 518> 650 55<363 505.5>
VStem: 116 64<133.5 279 133.5 303>
LayerCount: 2
Fore
SplineSet
403 301 m 1
 415 354 l 1
 592 354 l 1
 513 18 l 1
 513 18 420 -10 320 -10 c 0
 189 -10 116 51 116 182 c 0
 116 424 225 705 469 705 c 0
 568 705 667 676 667 676 c 1
 651 628 l 1
 651 628 550 650 461 650 c 0
 265 650 180 377 180 181 c 0
 180 86 232 45 326 45 c 0
 388 45 462 63 462 63 c 1
 518 301 l 1
 403 301 l 1
EndSplineSet
Position2: "'cpsp' Capital Spacing in Lateinisch lookup 0 subtable" dx=5 dy=0 dh=10 dv=0
EndChar

StartChar: Gbreve
Encoding: 286 286 50
Width: 573
Flags: MW
HStem: -10 55<279 357 279 370> 301 53<403 592 415 518> 650 55<363 505.5> 782 58<485 535.5 485 536.5>
VStem: 116 64<133.5 279 133.5 303> 381 59<886 892>
LayerCount: 2
Fore
SplineSet
384 922 m 1
 442 922 l 1
 440 915 440 907 440 900 c 0
 440 866 462 840 508 840 c 0
 563 840 601 874 614 922 c 1
 671 922 l 1
 649 842 583 782 490 782 c 0
 419 782 382 829 381 886 c 0
 381 898 382 910 384 922 c 1
403 301 m 1
 415 354 l 1
 592 354 l 1
 513 18 l 1
 513 18 420 -10 320 -10 c 0
 189 -10 116 51 116 182 c 0
 116 424 225 705 469 705 c 0
 568 705 667 676 667 676 c 1
 651 628 l 1
 651 628 550 650 461 650 c 0
 265 650 180 377 180 181 c 0
 180 86 232 45 326 45 c 0
 388 45 462 63 462 63 c 1
 518 301 l 1
 403 301 l 1
EndSplineSet
Position2: "'cpsp' Capital Spacing in Lateinisch lookup 0 subtable" dx=5 dy=0 dh=10 dv=0
EndChar

StartChar: Gcircumflex
Encoding: 284 284 51
Width: 573
Flags: MW
HStem: -10 55<279 357 279 370> 301 53<403 592 415 518> 650 55<363 505.5> 785 145<349 542 500 567 500 628>
VStem: 116 64<133.5 279 133.5 303>
LayerCount: 2
Fore
SplineSet
349 785 m 1
 500 930 l 1
 542 930 l 1
 628 785 l 1
 567 785 l 1
 513 877 l 1
 416 785 l 1
 349 785 l 1
403 301 m 1
 415 354 l 1
 592 354 l 1
 513 18 l 1
 513 18 420 -10 320 -10 c 0
 189 -10 116 51 116 182 c 0
 116 424 225 705 469 705 c 0
 568 705 667 676 667 676 c 1
 651 628 l 1
 651 628 550 650 461 650 c 0
 265 650 180 377 180 181 c 0
 180 86 232 45 326 45 c 0
 388 45 462 63 462 63 c 1
 518 301 l 1
 403 301 l 1
EndSplineSet
Position2: "'cpsp' Capital Spacing in Lateinisch lookup 0 subtable" dx=5 dy=0 dh=10 dv=0
EndChar

StartChar: Gcommaaccent
Encoding: 290 290 52
Width: 573
Flags: MW
HStem: -10 55<279 357 279 370> 301 53<403 592 415 518> 650 55<363 505.5>
VStem: 116 64<133.5 279 133.5 303>
LayerCount: 2
Fore
SplineSet
403 301 m 1
 415 354 l 1
 592 354 l 1
 513 18 l 1
 513 18 420 -10 320 -10 c 0
 189 -10 116 51 116 182 c 0
 116 424 225 705 469 705 c 0
 568 705 667 676 667 676 c 1
 651 628 l 1
 651 628 550 650 461 650 c 0
 265 650 180 377 180 181 c 0
 180 86 232 45 326 45 c 0
 388 45 462 63 462 63 c 1
 518 301 l 1
 403 301 l 1
264 -73 m 1
 179 -276 l 1
 227 -276 l 1
 320 -73 l 1
 264 -73 l 1
EndSplineSet
Position2: "'cpsp' Capital Spacing in Lateinisch lookup 0 subtable" dx=5 dy=0 dh=10 dv=0
EndChar

StartChar: Gdotaccent
Encoding: 288 288 53
Width: 573
Flags: MW
HStem: -10 55<279 357 279 370> 301 53<403 592 415 518> 650 55<363 505.5> 813 78<476 551 494 533>
VStem: 116 64<133.5 279 133.5 303>
LayerCount: 2
Fore
SplineSet
476 813 m 1
 494 891 l 1
 551 891 l 1
 533 813 l 1
 476 813 l 1
403 301 m 1
 415 354 l 1
 592 354 l 1
 513 18 l 1
 513 18 420 -10 320 -10 c 0
 189 -10 116 51 116 182 c 0
 116 424 225 705 469 705 c 0
 568 705 667 676 667 676 c 1
 651 628 l 1
 651 628 550 650 461 650 c 0
 265 650 180 377 180 181 c 0
 180 86 232 45 326 45 c 0
 388 45 462 63 462 63 c 1
 518 301 l 1
 403 301 l 1
EndSplineSet
Position2: "'cpsp' Capital Spacing in Lateinisch lookup 0 subtable" dx=5 dy=0 dh=10 dv=0
EndChar

StartChar: H
Encoding: 72 72 54
Width: 624
Flags: MW
HStem: 0 21G<81 142 81 81 482 544 482 482> 322 55<229 556 216 569>
VStem: 81 623
LayerCount: 2
Fore
SplineSet
482 0 m 1
 556 322 l 1
 216 322 l 1
 142 0 l 1
 81 0 l 1
 241 695 l 1
 303 695 l 1
 229 377 l 1
 569 377 l 1
 643 695 l 1
 704 695 l 1
 544 0 l 1
 482 0 l 1
EndSplineSet
Position2: "'cpsp' Capital Spacing in Lateinisch lookup 0 subtable" dx=5 dy=0 dh=10 dv=0
EndChar

StartChar: Hbar
Encoding: 294 294 55
Width: 641
Flags: MW
HStem: 0 21G<89 148 89 89 494 552 494 494> 320 59<235 567 221 581> 508 57<123 219 135 206 135 265 278 611 682 750>
VStem: 89 676<0 565>
LayerCount: 2
Fore
SplineSet
123 508 m 1
 123 509 l 1
 135 565 l 1
 219 565 l 1
 249 695 l 1
 308 695 l 1
 278 565 l 1
 624 565 l 1
 654 695 l 1
 712 695 l 1
 682 565 l 1
 765 565 l 1
 750 508 l 1
 669 508 l 1
 552 0 l 1
 494 0 l 1
 567 320 l 1
 221 320 l 1
 148 0 l 1
 89 0 l 1
 206 508 l 1
 123 508 l 1
235 379 m 1
 581 379 l 1
 611 508 l 1
 265 508 l 1
 235 379 l 1
EndSplineSet
Position2: "'cpsp' Capital Spacing in Lateinisch lookup 0 subtable" dx=5 dy=0 dh=10 dv=0
EndChar

StartChar: Hcircumflex
Encoding: 292 292 56
Width: 624
Flags: MW
HStem: 0 21G<81 142 81 81 482 544 482 482> 322 55<229 556 216 569> 797 134<342 533 503 574 503 630>
VStem: 81 623
LayerCount: 2
Fore
SplineSet
482 0 m 1
 556 322 l 1
 216 322 l 1
 142 0 l 1
 81 0 l 1
 241 695 l 1
 303 695 l 1
 229 377 l 1
 569 377 l 1
 643 695 l 1
 704 695 l 1
 544 0 l 1
 482 0 l 1
342 797 m 1
 503 931 l 1
 533 931 l 1
 630 797 l 1
 574 797 l 1
 513 883 l 1
 408 797 l 1
 342 797 l 1
EndSplineSet
Position2: "'cpsp' Capital Spacing in Lateinisch lookup 0 subtable" dx=5 dy=0 dh=10 dv=0
EndChar

StartChar: I
Encoding: 73 73 57
Width: 223
Flags: MW
HStem: 0 21G<81 81 81 142>
VStem: 81 222
LayerCount: 2
Fore
SplineSet
81 0 m 1
 241 695 l 1
 303 695 l 1
 142 0 l 1
 81 0 l 1
EndSplineSet
Position2: "'cpsp' Capital Spacing in Lateinisch lookup 0 subtable" dx=5 dy=0 dh=10 dv=0
EndChar

StartChar: Iacute
Encoding: 205 205 58
Width: 223
Flags: MW
HStem: 0 21G<81 81 81 142>
VStem: 81 380
LayerCount: 2
Fore
SplineSet
241 790 m 1
 233 835 l 1
 452 930 l 1
 461 878 l 1
 241 790 l 1
81 0 m 1
 241 695 l 1
 303 695 l 1
 142 0 l 1
 81 0 l 1
EndSplineSet
Position2: "'cpsp' Capital Spacing in Lateinisch lookup 0 subtable" dx=5 dy=0 dh=10 dv=0
EndChar

StartChar: Ibreve
Encoding: 300 300 59
Width: 223
Flags: MW
HStem: 0 21G<81 81 81 142> 798 48<280.5 326.5 280.5 334.5>
VStem: 184 56
LayerCount: 2
Fore
SplineSet
187 921 m 1
 240 921 l 1
 230 863 257 846 304 846 c 0
 349 846 392 876 404 921 c 1
 457 921 l 1
 435 843 376 798 293 798 c 0
 213 798 172 838 187 921 c 1
81 0 m 1
 241 695 l 1
 303 695 l 1
 142 0 l 1
 81 0 l 1
EndSplineSet
Position2: "'cpsp' Capital Spacing in Lateinisch lookup 0 subtable" dx=5 dy=0 dh=10 dv=0
EndChar

StartChar: Icircumflex
Encoding: 206 206 60
Width: 223
Flags: MW
HStem: 0 21G<81 81 81 142> 794 134<146 337 307 378 307 434>
VStem: 81 353
LayerCount: 2
Fore
SplineSet
146 794 m 1
 307 928 l 1
 337 928 l 1
 434 794 l 1
 378 794 l 1
 317 880 l 1
 212 794 l 1
 146 794 l 1
81 0 m 1
 241 695 l 1
 303 695 l 1
 142 0 l 1
 81 0 l 1
EndSplineSet
Position2: "'cpsp' Capital Spacing in Lateinisch lookup 0 subtable" dx=5 dy=0 dh=10 dv=0
EndChar

StartChar: Idieresis
Encoding: 207 207 61
Width: 223
Flags: MW
HStem: 0 21G<81 81 81 142> 823 83<177 245 195 225 381 410>
VStem: 81 349
LayerCount: 2
Fore
SplineSet
177 823 m 1
 195 906 l 1
 245 906 l 1
 225 823 l 1
 177 823 l 1
361 823 m 1
 381 906 l 1
 430 906 l 1
 410 823 l 1
 361 823 l 1
81 0 m 1
 241 695 l 1
 303 695 l 1
 142 0 l 1
 81 0 l 1
EndSplineSet
Position2: "'cpsp' Capital Spacing in Lateinisch lookup 0 subtable" dx=5 dy=0 dh=10 dv=0
EndChar

StartChar: Idotaccent
Encoding: 304 304 62
Width: 223
Flags: MW
HStem: 0 21G<81 81 81 142> 844 78<274 341 291 324>
VStem: 81 260
LayerCount: 2
Fore
SplineSet
274 844 m 1
 291 922 l 1
 341 922 l 1
 324 844 l 1
 274 844 l 1
81 0 m 1
 241 695 l 1
 303 695 l 1
 142 0 l 1
 81 0 l 1
EndSplineSet
Position2: "'cpsp' Capital Spacing in Lateinisch lookup 0 subtable" dx=5 dy=0 dh=10 dv=0
EndChar

StartChar: Igrave
Encoding: 204 204 63
Width: 223
Flags: MW
HStem: 0 21G<81 81 81 142>
VStem: 81 274
LayerCount: 2
Fore
SplineSet
180 925 m 1
 355 830 l 1
 329 787 l 1
 151 875 l 1
 180 925 l 1
81 0 m 1
 241 695 l 1
 303 695 l 1
 142 0 l 1
 81 0 l 1
EndSplineSet
Position2: "'cpsp' Capital Spacing in Lateinisch lookup 0 subtable" dx=5 dy=0 dh=10 dv=0
EndChar

StartChar: Imacron
Encoding: 298 298 64
Width: 223
Flags: MW
HStem: 0 21G<81 81 81 142> 838 46<154 450 164 438>
VStem: 81 369
LayerCount: 2
Fore
SplineSet
154 838 m 1
 164 884 l 1
 450 884 l 1
 438 838 l 1
 154 838 l 1
81 0 m 1
 241 695 l 1
 303 695 l 1
 142 0 l 1
 81 0 l 1
EndSplineSet
Position2: "'cpsp' Capital Spacing in Lateinisch lookup 0 subtable" dx=5 dy=0 dh=10 dv=0
EndChar

StartChar: Iogonek
Encoding: 302 302 65
Width: 223
Flags: MW
HStem: -202 54<21.5 78>
VStem: -24 66<-133 -116.5>
LayerCount: 2
Fore
SplineSet
121 -142 m 1
 115 -193 l 1
 115 -193 73 -202 44 -202 c 0
 -1 -202 -24 -179 -24 -142 c 0
 -24 -91 46 -23 82 6 c 1
 241 695 l 1
 303 695 l 1
 142 0 l 1
 108 -24 42 -87 42 -126 c 0
 42 -140 52 -148 70 -148 c 0
 86 -148 121 -142 121 -142 c 1
EndSplineSet
Position2: "'cpsp' Capital Spacing in Lateinisch lookup 0 subtable" dx=5 dy=0 dh=10 dv=0
EndChar

StartChar: Itilde
Encoding: 296 296 66
Width: 223
Flags: MW
HStem: 0 21G<81 81 81 142> 805 53<367 386.5> 864 52<225.5 246.5>
VStem: 81 385
LayerCount: 2
Fore
SplineSet
463 906 m 1
 466 864 l 1
 466 864 403 805 370 805 c 0xd0
 327 805 262 864 231 864 c 0
 210 864 143 813 143 813 c 1
 141 857 l 1
 141 857 208 916 243 916 c 0xb0
 290 916 352 858 382 858 c 0
 401 858 463 906 463 906 c 1
81 0 m 1
 241 695 l 1
 303 695 l 1
 142 0 l 1
 81 0 l 1
EndSplineSet
Position2: "'cpsp' Capital Spacing in Lateinisch lookup 0 subtable" dx=5 dy=0 dh=10 dv=0
EndChar

StartChar: J
Encoding: 74 74 67
Width: 260
Flags: MW
HStem: -71 766<7 343>
VStem: 7 336
LayerCount: 2
Fore
SplineSet
343 695 m 1
 209 114 l 2
 174 -40 154 -71 7 -71 c 1
 17 -16 l 1
 107 -15 122 3 149 121 c 2
 282 695 l 1
 343 695 l 1
EndSplineSet
Position2: "'cpsp' Capital Spacing in Lateinisch lookup 0 subtable" dx=5 dy=0 dh=10 dv=0
EndChar

StartChar: Jcircumflex
Encoding: 308 308 68
Width: 260
Flags: MW
HStem: 797 134<181 372 342 413 342 469>
VStem: 7 462
LayerCount: 2
Fore
SplineSet
343 695 m 1
 209 114 l 2
 174 -40 154 -71 7 -71 c 1
 17 -16 l 1
 107 -15 122 3 149 121 c 2
 282 695 l 1
 343 695 l 1
181 797 m 1
 342 931 l 1
 372 931 l 1
 469 797 l 1
 413 797 l 1
 352 883 l 1
 247 797 l 1
 181 797 l 1
EndSplineSet
Position2: "'cpsp' Capital Spacing in Lateinisch lookup 0 subtable" dx=5 dy=0 dh=10 dv=0
EndChar

StartChar: K
Encoding: 75 75 69
Width: 516
Flags: MW
HStem: 0 21G<81 142 81 81 432 497 432 432> 314 55
VStem: 81 576
LayerCount: 2
Fore
SplineSet
432 0 m 1
 320 315 l 1
 214 313 l 1
 142 0 l 1
 81 0 l 1
 241 695 l 1
 303 695 l 1
 227 368 l 1
 325 370 l 1
 587 695 l 1
 657 695 l 1
 374 344 l 1
 497 0 l 1
 432 0 l 1
EndSplineSet
Position2: "'cpsp' Capital Spacing in Lateinisch lookup 0 subtable" dx=5 dy=0 dh=10 dv=0
EndChar

StartChar: Kcommaaccent
Encoding: 310 310 70
Width: 516
Flags: MW
HStem: 0 21G<81 142 81 81 432 497 432 432> 314 55
VStem: 81 576
LayerCount: 2
Fore
SplineSet
233 -73 m 1
 148 -276 l 1
 196 -276 l 1
 289 -73 l 1
 233 -73 l 1
432 0 m 1
 320 315 l 1
 214 313 l 1
 142 0 l 1
 81 0 l 1
 241 695 l 1
 303 695 l 1
 227 368 l 1
 325 370 l 1
 587 695 l 1
 657 695 l 1
 374 344 l 1
 497 0 l 1
 432 0 l 1
EndSplineSet
Position2: "'cpsp' Capital Spacing in Lateinisch lookup 0 subtable" dx=5 dy=0 dh=10 dv=0
EndChar

StartChar: L
Encoding: 76 76 71
Width: 436
Flags: MW
HStem: 0 55<155 429>
VStem: 81 360<0 55>
LayerCount: 2
Fore
SplineSet
429 0 m 1
 81 0 l 1
 241 695 l 1
 303 695 l 1
 155 55 l 1
 441 55 l 1
 429 0 l 1
EndSplineSet
Position2: "'cpsp' Capital Spacing in Lateinisch lookup 0 subtable" dx=5 dy=0 dh=10 dv=0
EndChar

StartChar: Lacute
Encoding: 313 313 72
Width: 436
Flags: MW
HStem: 0 55<155 429>
VStem: 81 458
LayerCount: 2
Fore
SplineSet
319 790 m 1
 311 835 l 1
 530 930 l 1
 539 878 l 1
 319 790 l 1
429 0 m 1
 81 0 l 1
 241 695 l 1
 303 695 l 1
 155 55 l 1
 441 55 l 1
 429 0 l 1
EndSplineSet
Position2: "'cpsp' Capital Spacing in Lateinisch lookup 0 subtable" dx=5 dy=0 dh=10 dv=0
EndChar

StartChar: Lcaron
Encoding: 317 317 73
Width: 450
Flags: MW
HStem: 0 55<155 429> 467 228<490 492 241 437>
VStem: 81 464
LayerCount: 2
Fore
SplineSet
545 695 m 1
 492 467 l 1
 437 467 l 1
 490 695 l 1
 545 695 l 1
429 0 m 1
 81 0 l 1
 241 695 l 1
 303 695 l 1
 155 55 l 1
 441 55 l 1
 429 0 l 1
EndSplineSet
Position2: "'cpsp' Capital Spacing in Lateinisch lookup 0 subtable" dx=5 dy=0 dh=10 dv=0
EndChar

StartChar: Lcommaaccent
Encoding: 315 315 74
Width: 436
Flags: MW
HStem: -73 128<218 218 218 274> 0 55<155 429>
VStem: 81 360<0 55>
LayerCount: 2
Fore
SplineSet
218 -73 m 1xa0
 133 -276 l 1
 181 -276 l 1
 274 -73 l 1
 218 -73 l 1xa0
429 0 m 1x60
 81 0 l 1
 241 695 l 1
 303 695 l 1
 155 55 l 1
 441 55 l 1
 429 0 l 1x60
EndSplineSet
Position2: "'cpsp' Capital Spacing in Lateinisch lookup 0 subtable" dx=5 dy=0 dh=10 dv=0
EndChar

StartChar: Lslash
Encoding: 321 321 75
Width: 437
Flags: MW
HStem: 0 55<157 431>
VStem: 68 375<55 291>
LayerCount: 2
Fore
SplineSet
431 0 m 1
 83 0 l 1
 148 283 l 1
 88 245 l 1
 88 246 l 1
 68 291 l 1
 163 351 l 1
 243 695 l 1
 305 695 l 1
 235 396 l 1
 396 496 l 1
 415 451 l 1
 220 328 l 1
 157 55 l 1
 443 55 l 1
 431 0 l 1
EndSplineSet
Position2: "'cpsp' Capital Spacing in Lateinisch lookup 0 subtable" dx=5 dy=0 dh=10 dv=0
EndChar

StartChar: M
Encoding: 77 77 76
Width: 778
Flags: MW
HStem: 0 21G<81 81 81 142 635 635 635 697> 23 64<404 404 404 426 359 404> 640 55<290 301 290 290 773 784 773 773>
VStem: 81 777<0 695>
LayerCount: 2
Fore
SplineSet
81 0 m 1
 241 695 l 1
 350 695 l 1
 404 87 l 1x70
 748 695 l 1
 858 695 l 1
 697 0 l 1
 635 0 l 1xb0
 784 640 l 1
 773 640 l 1
 426 23 l 1
 359 23 l 1x70
 301 640 l 1
 290 640 l 1
 142 0 l 1
 81 0 l 1
EndSplineSet
Position2: "'cpsp' Capital Spacing in Lateinisch lookup 0 subtable" dx=5 dy=0 dh=10 dv=0
EndChar

StartChar: N
Encoding: 78 78 77
Width: 625
Flags: MW
HStem: 0 61<433 499 478 499 478 545> 636 59<287 309 287 287>
VStem: 81 624
LayerCount: 2
Fore
SplineSet
81 0 m 1
 241 695 l 1
 357 695 l 1
 478 61 l 1
 499 61 l 1
 645 695 l 1
 705 695 l 1
 545 0 l 1
 433 0 l 1
 309 636 l 1
 287 636 l 1
 140 0 l 1
 81 0 l 1
EndSplineSet
Position2: "'cpsp' Capital Spacing in Lateinisch lookup 0 subtable" dx=5 dy=0 dh=10 dv=0
EndChar

StartChar: Nacute
Encoding: 323 323 78
Width: 625
Flags: MW
HStem: 0 61<433 499 478 499 478 545> 636 59<287 309 287 287>
VStem: 81 624
LayerCount: 2
Fore
SplineSet
405 790 m 1
 397 835 l 1
 616 930 l 1
 625 878 l 1
 405 790 l 1
81 0 m 1
 241 695 l 1
 357 695 l 1
 478 61 l 1
 499 61 l 1
 645 695 l 1
 705 695 l 1
 545 0 l 1
 433 0 l 1
 309 636 l 1
 287 636 l 1
 140 0 l 1
 81 0 l 1
EndSplineSet
Position2: "'cpsp' Capital Spacing in Lateinisch lookup 0 subtable" dx=5 dy=0 dh=10 dv=0
EndChar

StartChar: Ncaron
Encoding: 327 327 79
Width: 625
Flags: MW
HStem: 0 61<433 499 478 499 478 545> 636 59<287 309 287 287> 792 134<373 507 373 471>
VStem: 81 624
LayerCount: 2
Fore
SplineSet
663 926 m 1
 507 792 l 1
 471 792 l 1
 373 926 l 1
 432 926 l 1
 497 837 l 1
 600 926 l 1
 663 926 l 1
81 0 m 1
 241 695 l 1
 357 695 l 1
 478 61 l 1
 499 61 l 1
 645 695 l 1
 705 695 l 1
 545 0 l 1
 433 0 l 1
 309 636 l 1
 287 636 l 1
 140 0 l 1
 81 0 l 1
EndSplineSet
Position2: "'cpsp' Capital Spacing in Lateinisch lookup 0 subtable" dx=5 dy=0 dh=10 dv=0
EndChar

StartChar: Ncommaaccent
Encoding: 325 325 80
Width: 625
Flags: MW
HStem: 0 61<433 499 478 499 478 545> 636 59<287 309 287 287>
VStem: 81 624
LayerCount: 2
Fore
SplineSet
281 -73 m 1
 196 -276 l 1
 244 -276 l 1
 337 -73 l 1
 281 -73 l 1
81 0 m 1
 241 695 l 1
 357 695 l 1
 478 61 l 1
 499 61 l 1
 645 695 l 1
 705 695 l 1
 545 0 l 1
 433 0 l 1
 309 636 l 1
 287 636 l 1
 140 0 l 1
 81 0 l 1
EndSplineSet
Position2: "'cpsp' Capital Spacing in Lateinisch lookup 0 subtable" dx=5 dy=0 dh=10 dv=0
EndChar

StartChar: Ntilde
Encoding: 209 209 81
Width: 625
Flags: MW
HStem: 0 61<433 499 478 499 478 545> 636 59<287 309 287 287> 807 53<568 587.5> 866 52<426.5 447.5>
VStem: 81 624
LayerCount: 2
Fore
SplineSet
664 908 m 1
 667 866 l 1
 667 866 604 807 571 807 c 0xe8
 528 807 463 866 432 866 c 0
 411 866 344 815 344 815 c 1
 342 859 l 1
 342 859 409 918 444 918 c 0xd8
 491 918 553 860 583 860 c 0
 602 860 664 908 664 908 c 1
81 0 m 1
 241 695 l 1
 357 695 l 1
 478 61 l 1
 499 61 l 1
 645 695 l 1
 705 695 l 1
 545 0 l 1
 433 0 l 1
 309 636 l 1
 287 636 l 1
 140 0 l 1
 81 0 l 1
EndSplineSet
Position2: "'cpsp' Capital Spacing in Lateinisch lookup 0 subtable" dx=5 dy=0 dh=10 dv=0
EndChar

StartChar: O
Encoding: 79 79 82
Width: 631
Flags: MW
HStem: -10 55<278 358 278 362.5> 650 55<433.5 508.5>
VStem: 117 63<143 267 143 278.5> 609 64<423.5 548.5>
LayerCount: 2
Fore
SplineSet
334 45 m 0
 382 45 423 60 457 87 c 0
 561 169 609 352 609 495 c 0
 609 602 562 650 455 650 c 0
 412 650 373 636 340 610 c 0
 233 527 180 335 180 199 c 0
 180 87 222 45 334 45 c 0
328 -10 m 0
 181 -10 117 47 117 197 c 0
 117 360 172 536 276 632 c 0
 327 678 388 705 459 705 c 0
 599 705 673 641 673 498 c 0
 673 328 619 146 506 53 c 0
 458 13 397 -10 328 -10 c 0
EndSplineSet
Position2: "'cpsp' Capital Spacing in Lateinisch lookup 0 subtable" dx=5 dy=0 dh=10 dv=0
EndChar

StartChar: Oacute
Encoding: 211 211 83
Width: 631
Flags: MW
HStem: -10 55<278 358 278 362.5> 650 55<433.5 508.5>
VStem: 117 63<143 267 143 278.5> 609 64<423.5 548.5>
LayerCount: 2
Fore
SplineSet
334 45 m 0
 382 45 423 60 457 87 c 0
 561 169 609 352 609 495 c 0
 609 602 562 650 455 650 c 0
 412 650 373 636 340 610 c 0
 233 527 180 335 180 199 c 0
 180 87 222 45 334 45 c 0
328 -10 m 0
 181 -10 117 47 117 197 c 0
 117 360 172 536 276 632 c 0
 327 678 388 705 459 705 c 0
 599 705 673 641 673 498 c 0
 673 328 619 146 506 53 c 0
 458 13 397 -10 328 -10 c 0
433 790 m 1
 425 835 l 1
 644 930 l 1
 653 878 l 1
 433 790 l 1
EndSplineSet
Position2: "'cpsp' Capital Spacing in Lateinisch lookup 0 subtable" dx=5 dy=0 dh=10 dv=0
EndChar

StartChar: Obreve
Encoding: 334 334 84
Width: 631
Flags: MW
HStem: -10 55<278 358 278 362.5> 650 55<433.5 508.5> 799 48<478.5 524.5 478.5 532.5>
VStem: 117 63<143 267 143 278.5> 382 56 609 64<423.5 548.5>
LayerCount: 2
Fore
SplineSet
385 922 m 1
 438 922 l 1
 428 864 455 847 502 847 c 0
 547 847 590 877 602 922 c 1
 655 922 l 1
 633 844 574 799 491 799 c 0
 411 799 370 839 385 922 c 1
334 45 m 0
 382 45 423 60 457 87 c 0
 561 169 609 352 609 495 c 0
 609 602 562 650 455 650 c 0
 412 650 373 636 340 610 c 0
 233 527 180 335 180 199 c 0
 180 87 222 45 334 45 c 0
328 -10 m 0
 181 -10 117 47 117 197 c 0
 117 360 172 536 276 632 c 0
 327 678 388 705 459 705 c 0
 599 705 673 641 673 498 c 0
 673 328 619 146 506 53 c 0
 458 13 397 -10 328 -10 c 0
EndSplineSet
Position2: "'cpsp' Capital Spacing in Lateinisch lookup 0 subtable" dx=5 dy=0 dh=10 dv=0
EndChar

StartChar: Ocircumflex
Encoding: 212 212 85
Width: 631
Flags: MW
HStem: -10 55<278 358 278 362.5> 650 55<433.5 508.5> 797 134<356 547 517 588 517 644>
VStem: 117 63<143 267 143 278.5> 609 64<423.5 548.5>
LayerCount: 2
Fore
SplineSet
334 45 m 0
 382 45 423 60 457 87 c 0
 561 169 609 352 609 495 c 0
 609 602 562 650 455 650 c 0
 412 650 373 636 340 610 c 0
 233 527 180 335 180 199 c 0
 180 87 222 45 334 45 c 0
328 -10 m 0
 181 -10 117 47 117 197 c 0
 117 360 172 536 276 632 c 0
 327 678 388 705 459 705 c 0
 599 705 673 641 673 498 c 0
 673 328 619 146 506 53 c 0
 458 13 397 -10 328 -10 c 0
356 797 m 1
 517 931 l 1
 547 931 l 1
 644 797 l 1
 588 797 l 1
 527 883 l 1
 422 797 l 1
 356 797 l 1
EndSplineSet
Position2: "'cpsp' Capital Spacing in Lateinisch lookup 0 subtable" dx=5 dy=0 dh=10 dv=0
EndChar

StartChar: Odieresis
Encoding: 214 214 86
Width: 631
Flags: MW
HStem: -10 55<278 358 278 362.5> 650 55<433.5 508.5> 820 82<383 458 402 439 587 623>
VStem: 117 63<143 267 143 278.5> 609 64<423.5 548.5>
LayerCount: 2
Fore
SplineSet
383 820 m 1
 402 902 l 1
 458 902 l 1
 439 820 l 1
 383 820 l 1
569 820 m 1
 587 902 l 1
 642 902 l 1
 623 820 l 1
 569 820 l 1
334 45 m 0
 382 45 423 60 457 87 c 0
 561 169 609 352 609 495 c 0
 609 602 562 650 455 650 c 0
 412 650 373 636 340 610 c 0
 233 527 180 335 180 199 c 0
 180 87 222 45 334 45 c 0
328 -10 m 0
 181 -10 117 47 117 197 c 0
 117 360 172 536 276 632 c 0
 327 678 388 705 459 705 c 0
 599 705 673 641 673 498 c 0
 673 328 619 146 506 53 c 0
 458 13 397 -10 328 -10 c 0
EndSplineSet
Position2: "'cpsp' Capital Spacing in Lateinisch lookup 0 subtable" dx=5 dy=0 dh=10 dv=0
EndChar

StartChar: Ograve
Encoding: 210 210 87
Width: 631
Flags: MW
HStem: -10 55<278 358 278 362.5> 650 55<433.5 508.5>
VStem: 117 63<143 267 143 278.5> 609 64<423.5 548.5>
LayerCount: 2
Fore
SplineSet
417 925 m 1
 592 830 l 1
 566 787 l 1
 388 875 l 1
 417 925 l 1
334 45 m 0
 382 45 423 60 457 87 c 0
 561 169 609 352 609 495 c 0
 609 602 562 650 455 650 c 0
 412 650 373 636 340 610 c 0
 233 527 180 335 180 199 c 0
 180 87 222 45 334 45 c 0
328 -10 m 0
 181 -10 117 47 117 197 c 0
 117 360 172 536 276 632 c 0
 327 678 388 705 459 705 c 0
 599 705 673 641 673 498 c 0
 673 328 619 146 506 53 c 0
 458 13 397 -10 328 -10 c 0
EndSplineSet
Position2: "'cpsp' Capital Spacing in Lateinisch lookup 0 subtable" dx=5 dy=0 dh=10 dv=0
EndChar

StartChar: Ohungarumlaut
Encoding: 336 336 88
Width: 631
Flags: MW
HStem: -10 55<278 358 278 362.5> 650 55<433.5 508.5>
VStem: 117 63<143 267 143 278.5> 609 64<423.5 548.5>
LayerCount: 2
Fore
SplineSet
566 779 m 1
 538 807 l 1
 715 921 l 1
 748 892 l 1
 566 779 l 1
381 780 m 1
 351 807 l 1
 531 922 l 1
 562 892 l 1
 381 780 l 1
334 45 m 0
 382 45 423 60 457 87 c 0
 561 169 609 352 609 495 c 0
 609 602 562 650 455 650 c 0
 412 650 373 636 340 610 c 0
 233 527 180 335 180 199 c 0
 180 87 222 45 334 45 c 0
328 -10 m 0
 181 -10 117 47 117 197 c 0
 117 360 172 536 276 632 c 0
 327 678 388 705 459 705 c 0
 599 705 673 641 673 498 c 0
 673 328 619 146 506 53 c 0
 458 13 397 -10 328 -10 c 0
EndSplineSet
Position2: "'cpsp' Capital Spacing in Lateinisch lookup 0 subtable" dx=5 dy=0 dh=10 dv=0
EndChar

StartChar: Omacron
Encoding: 332 332 89
Width: 631
Flags: MW
HStem: -10 55<278 358 278 362.5> 650 55<433.5 508.5> 828 46<360 656 370 644>
VStem: 117 63<143 267 143 278.5> 609 64<423.5 548.5>
LayerCount: 2
Fore
SplineSet
334 45 m 0
 382 45 423 60 457 87 c 0
 561 169 609 352 609 495 c 0
 609 602 562 650 455 650 c 0
 412 650 373 636 340 610 c 0
 233 527 180 335 180 199 c 0
 180 87 222 45 334 45 c 0
328 -10 m 0
 181 -10 117 47 117 197 c 0
 117 360 172 536 276 632 c 0
 327 678 388 705 459 705 c 0
 599 705 673 641 673 498 c 0
 673 328 619 146 506 53 c 0
 458 13 397 -10 328 -10 c 0
360 828 m 1
 370 874 l 1
 656 874 l 1
 644 828 l 1
 360 828 l 1
EndSplineSet
Position2: "'cpsp' Capital Spacing in Lateinisch lookup 0 subtable" dx=5 dy=0 dh=10 dv=0
EndChar

StartChar: Oslash
Encoding: 216 216 90
Width: 631
Flags: MW
HStem: -10 55<311.5 358 311.5 362.5> 650 55<433.5 477.5>
VStem: 117 63<177 267 177 278.5> 609 64<423.5 514.5>
LayerCount: 2
Fore
SplineSet
109 -113 m 1
 72 -91 l 1
 162 42 l 1
 131 75 117 125 117 197 c 0
 117 360 172 536 276 632 c 0
 327 678 388 705 459 705 c 0
 514 705 559 695 593 674 c 1
 675 794 l 1
 716 776 l 1
 627 646 l 1
 658 612 673 563 673 498 c 0
 673 328 619 146 506 53 c 0
 458 13 397 -10 328 -10 c 0
 273 -10 229 -2 197 15 c 1
 109 -113 l 1
200 98 m 1
 373 352 l 1
 559 624 l 1
 534 642 500 650 455 650 c 0
 412 650 373 636 340 610 c 0
 233 527 180 335 180 199 c 0
 180 155 186 122 200 98 c 1
334 45 m 0
 382 45 423 60 457 87 c 0
 561 169 609 352 609 495 c 0
 609 534 602 566 589 590 c 1
 412 330 l 1
 232 66 l 1
 256 51 289 45 334 45 c 0
EndSplineSet
Position2: "'cpsp' Capital Spacing in Lateinisch lookup 0 subtable" dx=5 dy=0 dh=10 dv=0
EndChar

StartChar: Oslashacute
Encoding: 510 510 91
Width: 633
Flags: MW
HStem: -10 55<312.5 359 312.5 363.5> 650 55<434.5 478.5>
VStem: 118 63<177 267 177 278.5> 610 64<423.5 514.5>
LayerCount: 2
Fore
SplineSet
110 -113 m 1
 73 -91 l 1
 163 42 l 1
 132 75 118 125 118 197 c 0
 118 360 173 536 277 632 c 0
 328 678 389 705 460 705 c 0
 515 705 560 695 594 674 c 1
 676 794 l 1
 717 776 l 1
 628 646 l 1
 659 612 674 563 674 498 c 0
 674 328 620 146 507 53 c 0
 459 13 398 -10 329 -10 c 0
 274 -10 230 -2 198 15 c 1
 110 -113 l 1
201 98 m 1
 374 352 l 1
 560 624 l 1
 535 642 501 650 456 650 c 0
 413 650 374 636 341 610 c 0
 234 527 181 335 181 199 c 0
 181 155 187 122 201 98 c 1
335 45 m 0
 383 45 424 60 458 87 c 0
 562 169 610 352 610 495 c 0
 610 534 603 566 590 590 c 1
 413 330 l 1
 233 66 l 1
 257 51 290 45 335 45 c 0
428 783 m 1
 419 835 l 1
 638 930 l 1
 648 872 l 1
 428 783 l 1
EndSplineSet
Position2: "'cpsp' Capital Spacing in Lateinisch lookup 0 subtable" dx=5 dy=0 dh=10 dv=0
EndChar

StartChar: Otilde
Encoding: 213 213 92
Width: 631
Flags: MW
HStem: -10 55<278 358 278 362.5> 650 55<433.5 508.5> 807 53<582 601.5> 866 52<440.5 461.5>
VStem: 117 63<143 267 143 278.5> 609 64<423.5 548.5>
LayerCount: 2
Fore
SplineSet
678 908 m 1
 681 866 l 1
 681 866 618 807 585 807 c 0xec
 542 807 477 866 446 866 c 0
 425 866 358 815 358 815 c 1
 356 859 l 1
 356 859 423 918 458 918 c 0xdc
 505 918 567 860 597 860 c 0
 616 860 678 908 678 908 c 1
334 45 m 0
 382 45 423 60 457 87 c 0
 561 169 609 352 609 495 c 0
 609 602 562 650 455 650 c 0
 412 650 373 636 340 610 c 0
 233 527 180 335 180 199 c 0
 180 87 222 45 334 45 c 0
328 -10 m 0
 181 -10 117 47 117 197 c 0
 117 360 172 536 276 632 c 0
 327 678 388 705 459 705 c 0
 599 705 673 641 673 498 c 0
 673 328 619 146 506 53 c 0
 458 13 397 -10 328 -10 c 0
EndSplineSet
Position2: "'cpsp' Capital Spacing in Lateinisch lookup 0 subtable" dx=5 dy=0 dh=10 dv=0
EndChar

StartChar: OE
Encoding: 338 338 93
Width: 865
Flags: MW
HStem: -10 62<264 315> -1 53 -1 62<512 819> 326 59 636 61<648 971 648 648> 646 61<382.5 475.5 375 480>
VStem: 110 62
LayerCount: 2
Fore
SplineSet
819 -1 m 1x3a
 441 -1 l 1x3a
 395 -5 332 -10 298 -10 c 0
 166 -10 112 52 110 166 c 0
 109 216 118 275 134 345 c 0
 190 580 283 707 467 707 c 0x96
 484 707 580 700 604 697 c 2
 984 697 l 1
 971 636 l 1
 648 636 l 1
 587 385 l 1
 853 385 l 1
 840 325 l 1
 575 327 l 1
 512 61 l 1
 834 61 l 1
 819 -1 l 1x3a
317 52 m 0x56
 338 52 413 56 452 60 c 1
 590 639 l 1
 566 642 502 646 458 646 c 0
 307 646 242 544 196 346 c 0
 180 283 172 231 172 187 c 0
 172 97 211 52 317 52 c 0x56
EndSplineSet
Position2: "'cpsp' Capital Spacing in Lateinisch lookup 0 subtable" dx=5 dy=0 dh=10 dv=0
EndChar

StartChar: P
Encoding: 80 80 94
Width: 547
Flags: MW
HStem: 0 21G<81 142 81 81> 241 55<211 366 198 376> 639 56<290 457 290 290>
VStem: 562 64<473.5 571.5>
LayerCount: 2
Fore
SplineSet
366 241 m 2
 198 241 l 1
 142 0 l 1
 81 0 l 1
 241 695 l 1
 465 695 l 2
 579 695 626 642 626 538 c 0
 626 371 537 241 366 241 c 2
211 296 m 1
 376 296 l 2
 504 296 562 409 562 538 c 0
 562 605 533 639 457 639 c 2
 290 639 l 1
 211 296 l 1
EndSplineSet
Position2: "'cpsp' Capital Spacing in Lateinisch lookup 0 subtable" dx=5 dy=0 dh=10 dv=0
EndChar

StartChar: Q
Encoding: 81 81 95
Width: 631
Flags: MW
HStem: -10 55<278 341> 0 21G 650 55<433.5 508.5>
VStem: 117 63<143 267 143 278.5> 609 64<423.5 548.5>
LayerCount: 2
Fore
SplineSet
328 -10 m 0xb8
 181 -10 117 47 117 197 c 0
 117 360 172 536 276 632 c 0
 327 678 388 705 459 705 c 0
 599 705 673 641 673 498 c 0
 673 328 619 146 506 53 c 0
 491 40 475 30 458 21 c 1x78
 505 -124 l 1
 447 -143 l 1
 402 0 l 1
 379 -6 354 -10 328 -10 c 0xb8
334 45 m 0
 382 45 423 60 457 87 c 0
 561 169 609 352 609 495 c 0
 609 602 562 650 455 650 c 0
 412 650 373 636 340 610 c 0
 233 527 180 335 180 199 c 0
 180 87 222 45 334 45 c 0
EndSplineSet
Position2: "'cpsp' Capital Spacing in Lateinisch lookup 0 subtable" dx=5 dy=0 dh=10 dv=0
EndChar

StartChar: R
Encoding: 82 82 96
Width: 566
Flags: MW
HStem: 0 21G<81 142 81 81 464 526 464 464> 270 54<217 379 379 387 205 379> 641 54<290 449 290 290>
VStem: 565 64<471.5 573>
LayerCount: 2
Fore
SplineSet
464 0 m 1
 387 270 l 1
 205 270 l 1
 142 0 l 1
 81 0 l 1
 241 695 l 1
 457 695 l 2
 569 695 629 652 629 535 c 0
 629 370 524 296 445 278 c 1
 526 0 l 1
 464 0 l 1
565 533 m 0
 565 613 529 641 449 641 c 2
 290 641 l 1
 217 324 l 1
 379 324 l 2
 492 324 565 410 565 533 c 0
EndSplineSet
Position2: "'cpsp' Capital Spacing in Lateinisch lookup 0 subtable" dx=5 dy=0 dh=10 dv=0
EndChar

StartChar: Racute
Encoding: 340 340 97
Width: 566
Flags: MW
HStem: 324 317<290 379 217 449> 695 21G<241 457 241 241>
VStem: 81 548<0 593.5>
LayerCount: 2
Fore
SplineSet
387 270 m 1
 464 0 l 1
 526 0 l 1
 445 278 l 1
 524 296 629 370 629 535 c 0
 629 652 569 695 457 695 c 2
 241 695 l 1
 81 0 l 1
 142 0 l 1
 205 270 l 1
 387 270 l 1
565 533 m 0
 565 410 492 324 379 324 c 2
 217 324 l 1
 290 641 l 1
 449 641 l 2
 529 641 565 613 565 533 c 0
363 790 m 1
 355 835 l 1
 574 930 l 1
 583 878 l 1
 363 790 l 1
EndSplineSet
Position2: "'cpsp' Capital Spacing in Lateinisch lookup 0 subtable" dx=5 dy=0 dh=10 dv=0
EndChar

StartChar: Rcaron
Encoding: 344 344 98
Width: 566
Flags: MW
HStem: 324 317<290 379 217 449> 695 231<319 378 319 457 241 378> 792 134<319 453 319 417>
VStem: 81 548<0 593.5>
LayerCount: 2
Fore
SplineSet
609 926 m 1xd0
 453 792 l 1
 417 792 l 1xb0
 319 926 l 1
 378 926 l 1xd0
 443 837 l 1xb0
 546 926 l 1
 609 926 l 1xd0
387 270 m 1
 464 0 l 1
 526 0 l 1
 445 278 l 1
 524 296 629 370 629 535 c 0
 629 652 569 695 457 695 c 2
 241 695 l 1xd0
 81 0 l 1
 142 0 l 1
 205 270 l 1
 387 270 l 1
565 533 m 0
 565 410 492 324 379 324 c 2
 217 324 l 1
 290 641 l 1
 449 641 l 2
 529 641 565 613 565 533 c 0
EndSplineSet
Position2: "'cpsp' Capital Spacing in Lateinisch lookup 0 subtable" dx=5 dy=0 dh=10 dv=0
EndChar

StartChar: Rcommaaccent
Encoding: 342 342 99
Width: 566
Flags: MW
HStem: -276 203<172 313 172 313> 0 21G<81 142 81 81 464 526 464 464> 270 54<217 379 379 387 205 379> 641 54<290 449 290 290>
VStem: 565 64<471.5 573>
LayerCount: 2
Fore
SplineSet
172 -276 m 1
 257 -73 l 1
 313 -73 l 1
 220 -276 l 1
 172 -276 l 1
464 0 m 1
 387 270 l 1
 205 270 l 1
 142 0 l 1
 81 0 l 1
 241 695 l 1
 457 695 l 2
 569 695 629 652 629 535 c 0
 629 370 524 296 445 278 c 1
 526 0 l 1
 464 0 l 1
565 533 m 0
 565 613 529 641 449 641 c 2
 290 641 l 1
 217 324 l 1
 379 324 l 2
 492 324 565 410 565 533 c 0
EndSplineSet
Position2: "'cpsp' Capital Spacing in Lateinisch lookup 0 subtable" dx=5 dy=0 dh=10 dv=0
EndChar

StartChar: S
Encoding: 83 83 100
Width: 500
Flags: MW
HStem: -10 55<222.5 316.5 222.5 331> 650 55<352 441>
VStem: 165 63<459.5 543.5 459.5 556.5> 439 63<169.5 257>
LayerCount: 2
Fore
SplineSet
591 679 m 1
 580 632 l 1
 580 632 476 650 406 650 c 0
 298 650 228 597 228 490 c 0
 228 429 266 414 360 383 c 0
 459 350 502 321 502 230 c 0
 502 81 406 -10 256 -10 c 0
 164 -10 57 13 57 13 c 1
 68 63 l 1
 68 63 185 45 260 45 c 0
 373 45 439 113 439 226 c 0
 439 288 412 304 323 333 c 0
 222 365 165 394 165 486 c 0
 165 627 264 705 411 705 c 0
 498 705 591 679 591 679 c 1
EndSplineSet
Position2: "'cpsp' Capital Spacing in Lateinisch lookup 0 subtable" dx=5 dy=0 dh=10 dv=0
EndChar

StartChar: Sacute
Encoding: 346 346 101
Width: 500
Flags: MW
HStem: -10 55<222.5 316.5 222.5 331> 650 55<352 441>
VStem: 165 63<459.5 543.5 459.5 556.5> 439 63<169.5 257>
LayerCount: 2
Fore
SplineSet
591 679 m 1
 580 632 l 1
 580 632 476 650 406 650 c 0
 298 650 228 597 228 490 c 0
 228 429 266 414 360 383 c 0
 459 350 502 321 502 230 c 0
 502 81 406 -10 256 -10 c 0
 164 -10 57 13 57 13 c 1
 68 63 l 1
 68 63 185 45 260 45 c 0
 373 45 439 113 439 226 c 0
 439 288 412 304 323 333 c 0
 222 365 165 394 165 486 c 0
 165 627 264 705 411 705 c 0
 498 705 591 679 591 679 c 1
354 790 m 1
 346 835 l 1
 565 930 l 1
 574 878 l 1
 354 790 l 1
EndSplineSet
Position2: "'cpsp' Capital Spacing in Lateinisch lookup 0 subtable" dx=5 dy=0 dh=10 dv=0
EndChar

StartChar: Scaron
Encoding: 352 352 102
Width: 500
Flags: MW
HStem: -10 55<222.5 316.5 222.5 331> 650 55<352 441> 796 134<326 460 326 424>
VStem: 165 63<459.5 543.5 459.5 556.5> 439 63<169.5 257>
LayerCount: 2
Fore
SplineSet
616 930 m 1
 460 796 l 1
 424 796 l 1
 326 930 l 1
 385 930 l 1
 450 841 l 1
 553 930 l 1
 616 930 l 1
591 679 m 1
 580 632 l 1
 580 632 476 650 406 650 c 0
 298 650 228 597 228 490 c 0
 228 429 266 414 360 383 c 0
 459 350 502 321 502 230 c 0
 502 81 406 -10 256 -10 c 0
 164 -10 57 13 57 13 c 1
 68 63 l 1
 68 63 185 45 260 45 c 0
 373 45 439 113 439 226 c 0
 439 288 412 304 323 333 c 0
 222 365 165 394 165 486 c 0
 165 627 264 705 411 705 c 0
 498 705 591 679 591 679 c 1
EndSplineSet
Position2: "'cpsp' Capital Spacing in Lateinisch lookup 0 subtable" dx=5 dy=0 dh=10 dv=0
EndChar

StartChar: Scedilla
Encoding: 350 350 103
Width: 500
Flags: MW
HStem: -207 46<222 250 222 264.5> -86 38<210 260> -9 21G<228 228> -9 54<228 228> 650 55<352 441>
VStem: 165 63<459.5 543.5> 439 63<169.5 257>
LayerCount: 2
Fore
SplineSet
591 679 m 1xee
 580 632 l 1
 580 632 476 650 406 650 c 0
 298 650 228 597 228 490 c 0
 228 429 266 414 360 383 c 0
 459 350 502 321 502 230 c 0
 502 84 410 -6 265 -10 c 1
 255 -48 l 1
 260 -48 l 2
 313 -48 353 -66 340 -124 c 0
 327 -182 293 -207 236 -207 c 0
 195 -207 158 -201 158 -201 c 1
 169 -157 l 1
 169 -157 208 -161 236 -161 c 0
 264 -161 281 -150 288 -122 c 0
 295 -92 276 -86 254 -86 c 2
 210 -86 l 1
 228 -9 l 1
 144 -6 57 13 57 13 c 1xee
 68 63 l 1
 68 63 185 45 260 45 c 0xde
 373 45 439 113 439 226 c 0
 439 288 412 304 323 333 c 0
 222 365 165 394 165 486 c 0
 165 627 264 705 411 705 c 0
 498 705 591 679 591 679 c 1xee
EndSplineSet
Substitution2: "'locl' Localized Forms in Lateinisch lookup 0 subtable" Scommaaccent
Position2: "'cpsp' Capital Spacing in Lateinisch lookup 0 subtable" dx=5 dy=0 dh=10 dv=0
EndChar

StartChar: Scircumflex
Encoding: 348 348 104
Width: 500
Flags: MW
HStem: -10 55<222.5 316.5 222.5 331> 650 55<352 441> 797 134<288 479 449 520 449 576>
VStem: 165 63<459.5 543.5 459.5 556.5> 439 63<169.5 257>
LayerCount: 2
Fore
SplineSet
591 679 m 1
 580 632 l 1
 580 632 476 650 406 650 c 0
 298 650 228 597 228 490 c 0
 228 429 266 414 360 383 c 0
 459 350 502 321 502 230 c 0
 502 81 406 -10 256 -10 c 0
 164 -10 57 13 57 13 c 1
 68 63 l 1
 68 63 185 45 260 45 c 0
 373 45 439 113 439 226 c 0
 439 288 412 304 323 333 c 0
 222 365 165 394 165 486 c 0
 165 627 264 705 411 705 c 0
 498 705 591 679 591 679 c 1
288 797 m 1
 449 931 l 1
 479 931 l 1
 576 797 l 1
 520 797 l 1
 459 883 l 1
 354 797 l 1
 288 797 l 1
EndSplineSet
Position2: "'cpsp' Capital Spacing in Lateinisch lookup 0 subtable" dx=5 dy=0 dh=10 dv=0
EndChar

StartChar: Scommaaccent
Encoding: 536 536 105
Width: 500
Flags: MW
HStem: -10 55<222.5 316.5 222.5 331> 650 55<352 441>
VStem: 165 63<459.5 543.5 459.5 556.5> 439 63<169.5 257>
LayerCount: 2
Fore
SplineSet
219 -73 m 1
 134 -276 l 1
 182 -276 l 1
 275 -73 l 1
 219 -73 l 1
591 679 m 1
 580 632 l 1
 580 632 476 650 406 650 c 0
 298 650 228 597 228 490 c 0
 228 429 266 414 360 383 c 0
 459 350 502 321 502 230 c 0
 502 81 406 -10 256 -10 c 0
 164 -10 57 13 57 13 c 1
 68 63 l 1
 68 63 185 45 260 45 c 0
 373 45 439 113 439 226 c 0
 439 288 412 304 323 333 c 0
 222 365 165 394 165 486 c 0
 165 627 264 705 411 705 c 0
 498 705 591 679 591 679 c 1
EndSplineSet
Position2: "'cpsp' Capital Spacing in Lateinisch lookup 0 subtable" dx=5 dy=0 dh=10 dv=0
EndChar

StartChar: T
Encoding: 84 84 106
Width: 472
Flags: MW
HStem: 0 21G<204 265 204 204> 640 55<157 620 170 351 413 413 413 607>
VStem: 157 463<640 695>
LayerCount: 2
Fore
SplineSet
157 640 m 1
 170 695 l 1
 620 695 l 1
 607 640 l 1
 413 640 l 1
 265 0 l 1
 204 0 l 1
 351 640 l 1
 157 640 l 1
EndSplineSet
Position2: "'cpsp' Capital Spacing in Lateinisch lookup 0 subtable" dx=5 dy=0 dh=10 dv=0
EndChar

StartChar: Tbar
Encoding: 358 358 107
Width: 477
Flags: MW
HStem: 0 21G<206 267 206 206> 307 57<131 276 118 289 351 498 131 338> 640 55<159 622 172 353 415 415 415 609>
VStem: 118 504<307 695>
LayerCount: 2
Fore
SplineSet
159 640 m 1
 172 695 l 1
 622 695 l 1
 609 640 l 1
 415 640 l 1
 351 364 l 1
 513 364 l 1
 498 307 l 1
 338 307 l 1
 267 0 l 1
 206 0 l 1
 276 307 l 1
 118 307 l 1
 131 364 l 1
 289 364 l 1
 353 640 l 1
 159 640 l 1
EndSplineSet
Position2: "'cpsp' Capital Spacing in Lateinisch lookup 0 subtable" dx=5 dy=0 dh=10 dv=0
EndChar

StartChar: Tcaron
Encoding: 356 356 108
Width: 472
Flags: MW
HStem: 0 21G<204 265 204 204> 640 55<157 620 170 351 413 413 413 607> 792 134<290 424 290 388>
VStem: 157 463<640 695>
LayerCount: 2
Fore
SplineSet
580 926 m 1
 424 792 l 1
 388 792 l 1
 290 926 l 1
 349 926 l 1
 414 837 l 1
 517 926 l 1
 580 926 l 1
157 640 m 1
 170 695 l 1
 620 695 l 1
 607 640 l 1
 413 640 l 1
 265 0 l 1
 204 0 l 1
 351 640 l 1
 157 640 l 1
EndSplineSet
Position2: "'cpsp' Capital Spacing in Lateinisch lookup 0 subtable" dx=5 dy=0 dh=10 dv=0
EndChar

StartChar: Tcommaaccent
Encoding: 538 538 109
Width: 472
Flags: MW
HStem: 0 21G<204 265 204 204> 640 55<157 620 170 351 413 413 413 607>
VStem: 109 511
LayerCount: 2
Fore
SplineSet
194 -73 m 1
 109 -276 l 1
 157 -276 l 1
 250 -73 l 1
 194 -73 l 1
157 640 m 1
 170 695 l 1
 620 695 l 1
 607 640 l 1
 413 640 l 1
 265 0 l 1
 204 0 l 1
 351 640 l 1
 157 640 l 1
EndSplineSet
Position2: "'cpsp' Capital Spacing in Lateinisch lookup 0 subtable" dx=5 dy=0 dh=10 dv=0
EndChar

StartChar: U
Encoding: 85 85 110
Width: 593
Flags: MW
HStem: -10 56<272.5 372.5 272.5 386.5>
VStem: 115 61<105.5 144>
LayerCount: 2
Fore
SplineSet
297 695 m 1
 186 213 l 2
 180 189 176 160 176 139 c 0
 176 72 230 46 315 46 c 0
 430 46 479 100 503 206 c 2
 616 695 l 1
 678 695 l 1
 565 205 l 2
 532 63 462 -10 311 -10 c 0
 193 -10 115 34 115 132 c 0
 115 156 119 192 126 218 c 2
 236 695 l 1
 297 695 l 1
EndSplineSet
Position2: "'cpsp' Capital Spacing in Lateinisch lookup 0 subtable" dx=5 dy=0 dh=10 dv=0
EndChar

StartChar: Uacute
Encoding: 218 218 111
Width: 593
Flags: MW
HStem: -10 56<272.5 372.5 272.5 386.5>
VStem: 115 61<105.5 144>
LayerCount: 2
Fore
SplineSet
297 695 m 1
 186 213 l 2
 180 189 176 160 176 139 c 0
 176 72 230 46 315 46 c 0
 430 46 479 100 503 206 c 2
 616 695 l 1
 678 695 l 1
 565 205 l 2
 532 63 462 -10 311 -10 c 0
 193 -10 115 34 115 132 c 0
 115 156 119 192 126 218 c 2
 236 695 l 1
 297 695 l 1
391 790 m 1
 383 835 l 1
 602 930 l 1
 611 878 l 1
 391 790 l 1
EndSplineSet
Position2: "'cpsp' Capital Spacing in Lateinisch lookup 0 subtable" dx=5 dy=0 dh=10 dv=0
EndChar

StartChar: Ubreve
Encoding: 364 364 112
Width: 593
Flags: MW
HStem: -10 56<272.5 372.5 272.5 386.5> 799 48<454.5 500.5 454.5 508.5>
VStem: 115 61<105.5 144> 358 56
LayerCount: 2
Fore
SplineSet
361 922 m 1
 414 922 l 1
 404 864 431 847 478 847 c 0
 523 847 566 877 578 922 c 1
 631 922 l 1
 609 844 550 799 467 799 c 0
 387 799 346 839 361 922 c 1
297 695 m 1
 186 213 l 2
 180 189 176 160 176 139 c 0
 176 72 230 46 315 46 c 0
 430 46 479 100 503 206 c 2
 616 695 l 1
 678 695 l 1
 565 205 l 2
 532 63 462 -10 311 -10 c 0
 193 -10 115 34 115 132 c 0
 115 156 119 192 126 218 c 2
 236 695 l 1
 297 695 l 1
EndSplineSet
Position2: "'cpsp' Capital Spacing in Lateinisch lookup 0 subtable" dx=5 dy=0 dh=10 dv=0
EndChar

StartChar: Ucircumflex
Encoding: 219 219 113
Width: 593
Flags: MW
HStem: -10 56<272.5 372.5 272.5 386.5> 797 134<329 520 490 561 490 617>
VStem: 115 61<105.5 144>
LayerCount: 2
Fore
SplineSet
297 695 m 1
 186 213 l 2
 180 189 176 160 176 139 c 0
 176 72 230 46 315 46 c 0
 430 46 479 100 503 206 c 2
 616 695 l 1
 678 695 l 1
 565 205 l 2
 532 63 462 -10 311 -10 c 0
 193 -10 115 34 115 132 c 0
 115 156 119 192 126 218 c 2
 236 695 l 1
 297 695 l 1
329 797 m 1
 490 931 l 1
 520 931 l 1
 617 797 l 1
 561 797 l 1
 500 883 l 1
 395 797 l 1
 329 797 l 1
EndSplineSet
Position2: "'cpsp' Capital Spacing in Lateinisch lookup 0 subtable" dx=5 dy=0 dh=10 dv=0
EndChar

StartChar: Udieresis
Encoding: 220 220 114
Width: 593
Flags: MW
HStem: -10 56<272.5 372.5 272.5 386.5> 820 82<354 429 373 410 558 594>
VStem: 115 61<105.5 144>
LayerCount: 2
Fore
SplineSet
354 820 m 1
 373 902 l 1
 429 902 l 1
 410 820 l 1
 354 820 l 1
540 820 m 1
 558 902 l 1
 614 902 l 1
 594 820 l 1
 540 820 l 1
297 695 m 1
 186 213 l 2
 180 189 176 160 176 139 c 0
 176 72 230 46 315 46 c 0
 430 46 479 100 503 206 c 2
 616 695 l 1
 678 695 l 1
 565 205 l 2
 532 63 462 -10 311 -10 c 0
 193 -10 115 34 115 132 c 0
 115 156 119 192 126 218 c 2
 236 695 l 1
 297 695 l 1
EndSplineSet
Position2: "'cpsp' Capital Spacing in Lateinisch lookup 0 subtable" dx=5 dy=0 dh=10 dv=0
EndChar

StartChar: Ugrave
Encoding: 217 217 115
Width: 593
Flags: MW
HStem: -10 56<272.5 372.5 272.5 386.5>
VStem: 115 61<105.5 144>
LayerCount: 2
Fore
SplineSet
393 925 m 1
 568 830 l 1
 542 787 l 1
 364 875 l 1
 393 925 l 1
297 695 m 1
 186 213 l 2
 180 189 176 160 176 139 c 0
 176 72 230 46 315 46 c 0
 430 46 479 100 503 206 c 2
 616 695 l 1
 678 695 l 1
 565 205 l 2
 532 63 462 -10 311 -10 c 0
 193 -10 115 34 115 132 c 0
 115 156 119 192 126 218 c 2
 236 695 l 1
 297 695 l 1
EndSplineSet
Position2: "'cpsp' Capital Spacing in Lateinisch lookup 0 subtable" dx=5 dy=0 dh=10 dv=0
EndChar

StartChar: Uhungarumlaut
Encoding: 368 368 116
Width: 593
Flags: MW
HStem: -10 56<272.5 372.5 272.5 386.5>
VStem: 115 61<105.5 144>
LayerCount: 2
Fore
SplineSet
532 759 m 1
 504 787 l 1
 681 901 l 1
 714 872 l 1
 532 759 l 1
347 760 m 1
 317 787 l 1
 497 902 l 1
 528 872 l 1
 347 760 l 1
297 695 m 1
 186 213 l 2
 180 189 176 160 176 139 c 0
 176 72 230 46 315 46 c 0
 430 46 479 100 503 206 c 2
 616 695 l 1
 678 695 l 1
 565 205 l 2
 532 63 462 -10 311 -10 c 0
 193 -10 115 34 115 132 c 0
 115 156 119 192 126 218 c 2
 236 695 l 1
 297 695 l 1
EndSplineSet
Position2: "'cpsp' Capital Spacing in Lateinisch lookup 0 subtable" dx=5 dy=0 dh=10 dv=0
EndChar

StartChar: Umacron
Encoding: 362 362 117
Width: 593
Flags: MW
HStem: -10 56<272.5 372.5 272.5 386.5> 828 46<338 634 348 622>
VStem: 115 61<105.5 144>
LayerCount: 2
Fore
SplineSet
297 695 m 1
 186 213 l 2
 180 189 176 160 176 139 c 0
 176 72 230 46 315 46 c 0
 430 46 479 100 503 206 c 2
 616 695 l 1
 678 695 l 1
 565 205 l 2
 532 63 462 -10 311 -10 c 0
 193 -10 115 34 115 132 c 0
 115 156 119 192 126 218 c 2
 236 695 l 1
 297 695 l 1
338 828 m 1
 348 874 l 1
 634 874 l 1
 622 828 l 1
 338 828 l 1
EndSplineSet
Position2: "'cpsp' Capital Spacing in Lateinisch lookup 0 subtable" dx=5 dy=0 dh=10 dv=0
EndChar

StartChar: Uogonek
Encoding: 370 370 118
Width: 594
Flags: MW
HStem: -202 54<261.5 318> -10 56
VStem: 115 61<105.5 144> 216 66<-133 -120.5>
LayerCount: 2
Fore
SplineSet
297 695 m 1
 186 213 l 2
 180 189 176 160 176 139 c 0
 176 72 230 46 315 46 c 0
 430 46 479 100 503 206 c 2
 616 695 l 1
 678 695 l 1
 565 205 l 2
 536 82 480 12 369 -5 c 1
 336 -33 282 -91 282 -126 c 0
 282 -140 292 -148 310 -148 c 0
 326 -148 361 -142 361 -142 c 1
 355 -193 l 1
 355 -193 313 -202 284 -202 c 0
 239 -202 216 -179 216 -142 c 0
 216 -99 265 -44 303 -10 c 1
 189 -8 115 36 115 132 c 0
 115 156 119 192 126 218 c 2
 236 695 l 1
 297 695 l 1
EndSplineSet
Position2: "'cpsp' Capital Spacing in Lateinisch lookup 0 subtable" dx=5 dy=0 dh=10 dv=0
EndChar

StartChar: Uring
Encoding: 366 366 119
Width: 593
Flags: MW
HStem: -10 56<272.5 372.5 272.5 386.5> 747 43<460 497 460 501> 895 43<487.5 521.5>
VStem: 115 61<105.5 144> 549 45
LayerCount: 2
Fore
SplineSet
590 842 m 0
 575 783 533 747 469 747 c 0
 409 747 378 782 395 842 c 0
 412 906 457 938 516 938 c 0
 572 938 606 909 590 842 c 0
436 842 m 0
 429 813 441 790 479 790 c 0
 515 790 541 809 549 842 c 0
 556 875 538 895 505 895 c 0
 470 895 444 876 436 842 c 0
297 695 m 1
 186 213 l 2
 180 189 176 160 176 139 c 0
 176 72 230 46 315 46 c 0
 430 46 479 100 503 206 c 2
 616 695 l 1
 678 695 l 1
 565 205 l 2
 532 63 462 -10 311 -10 c 0
 193 -10 115 34 115 132 c 0
 115 156 119 192 126 218 c 2
 236 695 l 1
 297 695 l 1
EndSplineSet
Position2: "'cpsp' Capital Spacing in Lateinisch lookup 0 subtable" dx=5 dy=0 dh=10 dv=0
EndChar

StartChar: Utilde
Encoding: 360 360 120
Width: 593
Flags: MW
HStem: -10 56<272.5 372.5 272.5 386.5> 808 53<550 569.5> 867 52<408.5 429.5>
VStem: 115 61<105.5 144>
LayerCount: 2
Fore
SplineSet
646 909 m 1
 649 867 l 1
 649 867 586 808 553 808 c 0xd0
 510 808 445 867 414 867 c 0
 393 867 326 816 326 816 c 1
 324 860 l 1
 324 860 391 919 426 919 c 0xb0
 473 919 535 861 565 861 c 0
 584 861 646 909 646 909 c 1
297 695 m 1
 186 213 l 2
 180 189 176 160 176 139 c 0
 176 72 230 46 315 46 c 0
 430 46 479 100 503 206 c 2
 616 695 l 1
 678 695 l 1
 565 205 l 2
 532 63 462 -10 311 -10 c 0
 193 -10 115 34 115 132 c 0
 115 156 119 192 126 218 c 2
 236 695 l 1
 297 695 l 1
EndSplineSet
Position2: "'cpsp' Capital Spacing in Lateinisch lookup 0 subtable" dx=5 dy=0 dh=10 dv=0
EndChar

StartChar: V
Encoding: 86 86 121
Width: 542
Flags: MW
HStem: 0 55<255 303 255 338>
VStem: 191 59.5
LayerCount: 2
Fore
SplineSet
611 695 m 1
 673 695 l 1
 338 0 l 1
 198 0 l 1
 184 695 l 1
 246 695 l 1
 255 55 l 1
 303 55 l 1
 611 695 l 1
EndSplineSet
Position2: "'cpsp' Capital Spacing in Lateinisch lookup 0 subtable" dx=5 dy=0 dh=10 dv=0
EndChar

StartChar: W
Encoding: 87 87 122
Width: 820
Flags: MW
HStem: 0 56<222 252 222 284 583 611>
VStem: 177 59.5 537 53.5
LayerCount: 2
Fore
SplineSet
190 695 m 1
 251 695 l 1
 222 56 l 1
 252 56 l 1
 532 685 l 1
 598 685 l 1
 583 56 l 1
 611 56 l 1
 883 695 l 1
 945 695 l 1
 646 0 l 1
 529 0 l 1
 545 589 l 1
 284 0 l 1
 164 0 l 1
 190 695 l 1
EndSplineSet
Position2: "'cpsp' Capital Spacing in Lateinisch lookup 0 subtable" dx=5 dy=0 dh=10 dv=0
EndChar

StartChar: Wacute
Encoding: 7810 7810 123
Width: 820
Flags: MW
HStem: 0 56<222 252 222 284 583 611>
VStem: 177 59.5 537 53.5
LayerCount: 2
Fore
SplineSet
505 790 m 1
 497 835 l 1
 716 930 l 1
 725 878 l 1
 505 790 l 1
190 695 m 1
 251 695 l 1
 222 56 l 1
 252 56 l 1
 532 685 l 1
 598 685 l 1
 583 56 l 1
 611 56 l 1
 883 695 l 1
 945 695 l 1
 646 0 l 1
 529 0 l 1
 545 589 l 1
 284 0 l 1
 164 0 l 1
 190 695 l 1
EndSplineSet
Position2: "'cpsp' Capital Spacing in Lateinisch lookup 0 subtable" dx=5 dy=0 dh=10 dv=0
EndChar

StartChar: Wcircumflex
Encoding: 372 372 124
Width: 820
Flags: MW
HStem: 0 56<222 252 222 284 583 611> 793 134<438 629 599 670 599 726>
VStem: 177 59.5 537 53.5
LayerCount: 2
Fore
SplineSet
438 793 m 1
 599 927 l 1
 629 927 l 1
 726 793 l 1
 670 793 l 1
 609 879 l 1
 504 793 l 1
 438 793 l 1
190 695 m 1
 251 695 l 1
 222 56 l 1
 252 56 l 1
 532 685 l 1
 598 685 l 1
 583 56 l 1
 611 56 l 1
 883 695 l 1
 945 695 l 1
 646 0 l 1
 529 0 l 1
 545 589 l 1
 284 0 l 1
 164 0 l 1
 190 695 l 1
EndSplineSet
Position2: "'cpsp' Capital Spacing in Lateinisch lookup 0 subtable" dx=5 dy=0 dh=10 dv=0
EndChar

StartChar: Wdieresis
Encoding: 7812 7812 125
Width: 820
Flags: MW
HStem: 0 56<222 252 222 284 583 611> 820 83<472 540 490 520 676 705>
VStem: 177 59.5 537 53.5
LayerCount: 2
Fore
SplineSet
472 820 m 1
 490 903 l 1
 540 903 l 1
 520 820 l 1
 472 820 l 1
656 820 m 1
 676 903 l 1
 725 903 l 1
 705 820 l 1
 656 820 l 1
190 695 m 1
 251 695 l 1
 222 56 l 1
 252 56 l 1
 532 685 l 1
 598 685 l 1
 583 56 l 1
 611 56 l 1
 883 695 l 1
 945 695 l 1
 646 0 l 1
 529 0 l 1
 545 589 l 1
 284 0 l 1
 164 0 l 1
 190 695 l 1
EndSplineSet
Position2: "'cpsp' Capital Spacing in Lateinisch lookup 0 subtable" dx=5 dy=0 dh=10 dv=0
EndChar

StartChar: Wgrave
Encoding: 7808 7808 126
Width: 820
Flags: MW
HStem: 0 56<222 252 222 284 583 611>
VStem: 177 59.5 537 53.5
LayerCount: 2
Fore
SplineSet
506 925 m 1
 681 830 l 1
 655 787 l 1
 477 875 l 1
 506 925 l 1
190 695 m 1
 251 695 l 1
 222 56 l 1
 252 56 l 1
 532 685 l 1
 598 685 l 1
 583 56 l 1
 611 56 l 1
 883 695 l 1
 945 695 l 1
 646 0 l 1
 529 0 l 1
 545 589 l 1
 284 0 l 1
 164 0 l 1
 190 695 l 1
EndSplineSet
Position2: "'cpsp' Capital Spacing in Lateinisch lookup 0 subtable" dx=5 dy=0 dh=10 dv=0
EndChar

StartChar: X
Encoding: 88 88 127
Width: 512
Flags: MW
HStem: 0 21G<15 84 15 15 427 490 427 427>
VStem: 15 641
LayerCount: 2
Fore
SplineSet
248 695 m 1
 348 394 l 1
 587 695 l 1
 656 695 l 1
 373 343 l 1
 490 0 l 1
 427 0 l 1
 326 298 l 1
 84 0 l 1
 15 0 l 1
 300 348 l 1
 185 695 l 1
 248 695 l 1
EndSplineSet
Position2: "'cpsp' Capital Spacing in Lateinisch lookup 0 subtable" dx=5 dy=0 dh=10 dv=0
EndChar

StartChar: Y
Encoding: 89 89 128
Width: 490
Flags: MW
HStem: 0 21G<211 270 211 211>
VStem: 173 462<695 695>
LayerCount: 2
Fore
SplineSet
635 695 m 1
 340 298 l 1
 270 0 l 1
 211 0 l 1
 281 304 l 1
 173 695 l 1
 235 695 l 1
 324 358 l 1
 569 695 l 1
 635 695 l 1
EndSplineSet
Position2: "'cpsp' Capital Spacing in Lateinisch lookup 0 subtable" dx=5 dy=0 dh=10 dv=0
EndChar

StartChar: Yacute
Encoding: 221 221 129
Width: 490
Flags: MW
HStem: 0 21G<211 270 211 211>
VStem: 173 462<695 695>
LayerCount: 2
Fore
SplineSet
344 790 m 1
 336 835 l 1
 555 930 l 1
 564 878 l 1
 344 790 l 1
635 695 m 1
 340 298 l 1
 270 0 l 1
 211 0 l 1
 281 304 l 1
 173 695 l 1
 235 695 l 1
 324 358 l 1
 569 695 l 1
 635 695 l 1
EndSplineSet
Position2: "'cpsp' Capital Spacing in Lateinisch lookup 0 subtable" dx=5 dy=0 dh=10 dv=0
EndChar

StartChar: Ycircumflex
Encoding: 374 374 130
Width: 490
Flags: MW
HStem: 0 21G<211 270 211 211> 793 134<278 469 439 510 439 566>
VStem: 173 462<695 695>
LayerCount: 2
Fore
SplineSet
278 793 m 1
 439 927 l 1
 469 927 l 1
 566 793 l 1
 510 793 l 1
 449 879 l 1
 344 793 l 1
 278 793 l 1
635 695 m 1
 340 298 l 1
 270 0 l 1
 211 0 l 1
 281 304 l 1
 173 695 l 1
 235 695 l 1
 324 358 l 1
 569 695 l 1
 635 695 l 1
EndSplineSet
Position2: "'cpsp' Capital Spacing in Lateinisch lookup 0 subtable" dx=5 dy=0 dh=10 dv=0
EndChar

StartChar: Ydieresis
Encoding: 376 376 131
Width: 490
Flags: MW
HStem: 0 21G<211 270 211 211> 819 83<304 372 322 352 508 537>
VStem: 173 462<695 695>
LayerCount: 2
Fore
SplineSet
304 819 m 1
 322 902 l 1
 372 902 l 1
 352 819 l 1
 304 819 l 1
488 819 m 1
 508 902 l 1
 557 902 l 1
 537 819 l 1
 488 819 l 1
635 695 m 1
 340 298 l 1
 270 0 l 1
 211 0 l 1
 281 304 l 1
 173 695 l 1
 235 695 l 1
 324 358 l 1
 569 695 l 1
 635 695 l 1
EndSplineSet
Position2: "'cpsp' Capital Spacing in Lateinisch lookup 0 subtable" dx=5 dy=0 dh=10 dv=0
EndChar

StartChar: Ygrave
Encoding: 7922 7922 132
Width: 490
Flags: MW
HStem: 0 21G<211 270 211 211>
VStem: 173 462<695 695>
LayerCount: 2
Fore
SplineSet
342 925 m 1
 517 830 l 1
 491 787 l 1
 313 875 l 1
 342 925 l 1
635 695 m 1
 340 298 l 1
 270 0 l 1
 211 0 l 1
 281 304 l 1
 173 695 l 1
 235 695 l 1
 324 358 l 1
 569 695 l 1
 635 695 l 1
EndSplineSet
Position2: "'cpsp' Capital Spacing in Lateinisch lookup 0 subtable" dx=5 dy=0 dh=10 dv=0
EndChar

StartChar: Z
Encoding: 90 90 133
Width: 496
Flags: MW
HStem: 0 55<117 454> 640 55<188 617 201 537>
VStem: 38 579
LayerCount: 2
Fore
SplineSet
188 640 m 1
 201 695 l 1
 617 695 l 1
 595 602 l 1
 123 79 l 1
 117 55 l 1
 467 55 l 1
 454 0 l 1
 38 0 l 1
 59 90 l 1
 530 612 l 1
 537 640 l 1
 188 640 l 1
EndSplineSet
Position2: "'cpsp' Capital Spacing in Lateinisch lookup 0 subtable" dx=5 dy=0 dh=10 dv=0
EndChar

StartChar: Zacute
Encoding: 377 377 134
Width: 496
Flags: MW
HStem: 0 55<117 454> 640 55<188 617 201 537>
VStem: 38 579
LayerCount: 2
Fore
SplineSet
340 790 m 1
 332 835 l 1
 551 930 l 1
 560 878 l 1
 340 790 l 1
188 640 m 1
 201 695 l 1
 617 695 l 1
 595 602 l 1
 123 79 l 1
 117 55 l 1
 467 55 l 1
 454 0 l 1
 38 0 l 1
 59 90 l 1
 530 612 l 1
 537 640 l 1
 188 640 l 1
EndSplineSet
Position2: "'cpsp' Capital Spacing in Lateinisch lookup 0 subtable" dx=5 dy=0 dh=10 dv=0
EndChar

StartChar: Zcaron
Encoding: 381 381 135
Width: 496
Flags: MW
HStem: 0 55<117 454> 640 55<188 617 201 537> 791 134<310 444 310 408>
VStem: 38 579
LayerCount: 2
Fore
SplineSet
600 925 m 1
 444 791 l 1
 408 791 l 1
 310 925 l 1
 369 925 l 1
 434 836 l 1
 537 925 l 1
 600 925 l 1
188 640 m 1
 201 695 l 1
 617 695 l 1
 595 602 l 1
 123 79 l 1
 117 55 l 1
 467 55 l 1
 454 0 l 1
 38 0 l 1
 59 90 l 1
 530 612 l 1
 537 640 l 1
 188 640 l 1
EndSplineSet
Position2: "'cpsp' Capital Spacing in Lateinisch lookup 0 subtable" dx=5 dy=0 dh=10 dv=0
EndChar

StartChar: Zdotaccent
Encoding: 379 379 136
Width: 496
Flags: MW
HStem: 0 55<117 454> 640 55<188 617 201 537> 844 78<400 467 417 450>
VStem: 38 579
LayerCount: 2
Fore
SplineSet
400 844 m 1
 417 922 l 1
 467 922 l 1
 450 844 l 1
 400 844 l 1
188 640 m 1
 201 695 l 1
 617 695 l 1
 595 602 l 1
 123 79 l 1
 117 55 l 1
 467 55 l 1
 454 0 l 1
 38 0 l 1
 59 90 l 1
 530 612 l 1
 537 640 l 1
 188 640 l 1
EndSplineSet
Position2: "'cpsp' Capital Spacing in Lateinisch lookup 0 subtable" dx=5 dy=0 dh=10 dv=0
EndChar

StartChar: g
Encoding: 103 103 139
Width: 464
Flags: MW
HStem: -237 52<155 243.5 155 268> 173 51<255.5 320.5 236.5 333.5> 447 53<453 562> 458 52<275 350 259 355>
VStem: 20 58<-120 -69.5 -120 -68.5> 124 58<284.5 341 284.5 353> 140 56<89.5 113> 382 59<-97.5 -36> 415 57<341 391 330.5 397>
LayerCount: 2
Fore
SplineSet
189 -237 m 0xed
 85 -237 20 -186 20 -107 c 0
 20 -30 97 19 155 50 c 1
 146 59 140 72 140 91 c 0xeb
 140 135 193 189 193 189 c 1
 148 209 124 247 124 307 c 0
 124 399 194 510 324 510 c 0xdc80
 376 510 414 494 414 494 c 1
 562 500 l 1
 550 447 l 1
 453 447 l 1
 464 430 472 408 472 374 c 0
 472 287 406 173 261 173 c 0
 250 173 231 175 231 175 c 1
 231 175 196 131 196 102 c 0xea80
 196 77 219 71 288 62 c 0
 398 49 441 20 441 -55 c 0
 441 -149 347 -237 189 -237 c 0xed
277 10 m 0
 230 16 202 22 189 27 c 1
 138 1 78 -45 78 -94 c 0
 78 -146 116 -185 194 -185 c 0
 293 -185 382 -136 382 -59 c 0
 382 -13 353 2 277 10 c 0
269 224 m 0xdc80
 372 224 415 315 415 367 c 0
 415 427 390 458 320 458 c 0
 230 458 182 372 182 310 c 0
 182 259 204 224 269 224 c 0xdc80
EndSplineSet
EndChar

StartChar: h
Encoding: 104 104 140
Width: 495
Flags: MW
HStem: 0 21G<69 129 69 69 371 371 371 430> 456 54<348 399.5> 702 20G<236 296 296 296>
VStem: 448 61<365.5 402>
LayerCount: 2
Fore
SplineSet
129 0 m 1
 69 0 l 1
 236 722 l 1
 296 722 l 1
 222 402 l 1
 222 402 303 510 393 510 c 0
 469 510 509 461 509 387 c 0
 509 344 498 293 489 254 c 2
 430 0 l 1
 371 0 l 1
 430 252 l 2
 438 286 448 340 448 377 c 0
 448 427 425 456 374 456 c 0
 300 456 205 330 205 330 c 1
 129 0 l 1
EndSplineSet
EndChar

StartChar: s
Encoding: 115 115 141
Width: 428
Flags: MW
HStem: -10 21G -10 53<184.5 255 184.5 266.5> 457 52<274.5 345> 489 20G<264.5 358>
VStem: 127 60<330 377 330 385.5> 361 61<118.5 180.5>
LayerCount: 2
Fore
SplineSet
483 491 m 1x5c
 470 443 l 1
 470 443 377 457 313 457 c 0
 236 457 187 406 187 348 c 0
 187 312 207 300 285 281 c 0
 374 260 422 243 422 170 c 0
 422 49 326 -10 207 -10 c 0x6c
 134 -10 52 11 52 11 c 1xac
 63 59 l 1
 63 59 155 43 214 43 c 0
 296 43 361 79 361 158 c 0
 361 203 332 212 257 229 c 0
 173 249 127 269 127 335 c 0
 127 436 208 509 321 509 c 0x6c
 395 509 483 491 483 491 c 1x5c
EndSplineSet
EndChar

StartChar: endash
Encoding: 8211 8211 143
Width: 611
Flags: MW
HStem: 241 54<118 618 118 618>
VStem: 118 500<241 295 241 295>
LayerCount: 2
Fore
SplineSet
118 295 m 1
 618 295 l 1
 618 241 l 1
 118 241 l 1
 118 295 l 1
EndSplineSet
Substitution2: "'case' Case-Sensitive Forms in Lateinisch lookup 4 subtable" endash.cap
EndChar

StartChar: dollar
Encoding: 36 36 144
Width: 560
Flags: MW
HStem: -10 53<279.5 290 290 343.5> -8 21G<248 248> -5 21G<205 205> 619 53<377.5 429 429 437.5 363 442> 666 21G<507 507>
VStem: 199 60<442 518 442 530> 460 60<161.5 242>
LayerCount: 2
Fore
SplineSet
605 647 m 1x8e
 594 602 l 1
 594 602 541 611 487 616 c 1
 391 363 l 1
 480 332 520 304 520 219 c 0
 520 77 429 -10 286 -10 c 0
 273 -10 261 -9 248 -8 c 1x8e
 206 -120 l 1
 162 -120 l 1
 205 -5 l 1x2e
 145 1 96 12 96 12 c 1
 107 60 l 1
 107 60 166 51 225 46 c 1
 330 323 l 1
 245 352 199 381 199 463 c 0
 199 597 293 672 433 672 c 0
 442 672 452 671 462 671 c 1x56
 505 785 l 1
 552 785 l 1
 507 666 l 1
 561 659 605 647 605 647 c 1x8e
460 215 m 0
 460 269 438 286 370 310 c 1
 268 43 l 1
 290 43 l 2
 397 43 460 108 460 215 c 0
259 467 m 0
 259 417 285 399 350 376 c 1
 442 619 l 1
 429 619 l 2x96
 326 619 259 569 259 467 c 0
EndSplineSet
EndChar

StartChar: exclam
Encoding: 33 33 145
Width: 196
Flags: MW
HStem: 0 100<70 154 93 131>
VStem: 70 219
LayerCount: 2
Fore
SplineSet
120 223 m 1
 229 700 l 1
 289 700 l 1
 173 223 l 1
 120 223 l 1
70 0 m 1
 93 100 l 1
 154 100 l 1
 131 0 l 1
 70 0 l 1
EndSplineSet
EndChar

StartChar: summation
Encoding: 8721 8721 146
Width: 560
Flags: MW
HStem: -158 55<180 579 180 579> 696 56<180 579 180 180>
VStem: 116 64<-103 -75 -103 -67 -103 -67 672 696>
LayerCount: 2
Fore
SplineSet
390 310 m 1
 116 662 l 1
 116 752 l 1
 579 752 l 1
 579 696 l 1
 180 696 l 1
 180 672 l 1
 447 332 l 1
 447 286 l 1
 180 -75 l 1
 180 -103 l 1
 579 -103 l 1
 579 -158 l 1
 116 -158 l 1
 116 -67 l 1
 390 310 l 1
EndSplineSet
EndChar

StartChar: a
Encoding: 97 97 147
Width: 493
Flags: MW
HStem: -10 53<203 260.5> 1 21G<432 432> 457 53<280.5 369>
VStem: 91 62<103 197.5 103 211.5>
LayerCount: 2
Fore
SplineSet
216 -10 m 0xb0
 130 -10 91 43 91 131 c 0
 91 292 177 510 342 510 c 0
 403 510 536 486 536 486 c 1
 460 161 l 2
 445 98 432 1 432 1 c 1
 374 -1 l 1x70
 374 -1 389 92 393 113 c 1
 393 113 305 -10 216 -10 c 0xb0
343 457 m 0
 218 457 153 264 153 131 c 0
 153 75 173 43 233 43 c 0
 302 43 406 184 406 184 c 1
 467 442 l 1
 467 442 395 457 343 457 c 0
EndSplineSet
EndChar

StartChar: o
Encoding: 111 111 148
Width: 494
Flags: MW
HStem: -10 53<223 317 223 336.5> 457 52<288 381.5>
VStem: 94 60<114 228.5 114 245> 452 61<264.5 378>
LayerCount: 2
Fore
SplineSet
345 509 m 0
 455 509 513 454 513 344 c 0
 513 154 415 -10 258 -10 c 0
 151 -10 94 38 94 148 c 0
 94 342 198 509 345 509 c 0
258 43 m 0
 376 43 452 184 452 345 c 0
 452 411 418 457 345 457 c 0
 231 457 154 309 154 148 c 0
 154 80 188 43 258 43 c 0
EndSplineSet
EndChar

StartChar: n
Encoding: 110 110 149
Width: 494
Flags: MW
HStem: 0 21G<68 128 68 68 370 370 370 429> 456 54<347 398.5> 480 20G<184 242 242 242>
VStem: 448 61<366 402>
LayerCount: 2
Fore
SplineSet
128 0 m 1xd0
 68 0 l 1
 184 500 l 1
 242 500 l 1xb0
 221 403 l 1
 221 403 302 510 392 510 c 0
 469 510 509 461 509 387 c 0
 509 345 498 294 489 256 c 2
 429 0 l 1
 370 0 l 1
 429 252 l 2
 437 286 448 340 448 377 c 0
 448 427 424 456 373 456 c 0
 298 456 205 331 205 331 c 1
 128 0 l 1xd0
EndSplineSet
EndChar

StartChar: numbersign
Encoding: 35 35 150
Width: 560
Flags: MW
HStem: 0 21G<135 191 135 135 358 414 358 358> 184 52<79 180 66 193 249 403 79 236 472 573> 432 52<140 241 127 254 140 297 310 464 533 634>
VStem: 66 581<184 484>
LayerCount: 2
Fore
SplineSet
573 184 m 1
 459 184 l 1
 414 0 l 1
 358 0 l 1
 403 184 l 1
 236 184 l 1
 191 0 l 1
 135 0 l 1
 180 184 l 1
 66 184 l 1
 79 236 l 1
 193 236 l 1
 241 432 l 1
 127 432 l 1
 140 484 l 1
 254 484 l 1
 301 667 l 1
 357 667 l 1
 310 484 l 1
 477 484 l 1
 524 667 l 1
 580 667 l 1
 533 484 l 1
 647 484 l 1
 634 432 l 1
 520 432 l 1
 472 236 l 1
 586 236 l 1
 573 184 l 1
416 236 m 1
 464 432 l 1
 297 432 l 1
 249 236 l 1
 416 236 l 1
EndSplineSet
EndChar

StartChar: at
Encoding: 64 64 151
Width: 927
Flags: MW
HStem: -200 55<299.5 457.5> -10 56<432 446 406 463> 457 53<517 592> 665 54<501.5 773.5>
VStem: 89 59 313 60 615 60 916 56
LayerCount: 2
Fore
SplineSet
639 719 m 0
 959 719 1008 526 953 297 c 0
 890 31 820 -10 718 -10 c 0
 665 -10 630 5 623 49 c 1
 583 29 494 -10 432 -10 c 0
 294 -11 306 122 321 209 c 0
 355 401 436 510 575 510 c 0
 613 510 699 497 758 486 c 1
 746 439 676 147 675 91 c 0
 674 52 694 47 730 47 c 0
 796 47 845 81 898 307 c 0
 943 505 919 665 628 665 c 0
 375 665 240 552 169 263 c 0
 115 43 150 -145 449 -145 c 0
 486 -145 585 -136 585 -136 c 1
 575 -190 l 1
 575 -190 480 -200 435 -200 c 0
 84 -200 58 49 109 263 c 0
 188 599 346 719 639 719 c 0
446 46 m 0
 504 45 576 80 615 101 c 1
 618 135 660 325 688 442 c 1
 662 449 613 457 571 457 c 0
 463 457 413 362 381 208 c 0
 364 130 366 46 446 46 c 0
EndSplineSet
EndChar

StartChar: ydieresis
Encoding: 255 255 152
Width: 452
Flags: MW
HStem: -224 21G<106 167 106 106> 0 52<215 224> 480 20G<142 201 201 201 478 541 541 541> 625 82<235 310 254 291 439 475>
VStem: 150.5 57.5
LayerCount: 2
Fore
SplineSet
235 625 m 1
 254 707 l 1
 310 707 l 1
 291 625 l 1
 235 625 l 1
421 625 m 1
 439 707 l 1
 495 707 l 1
 475 625 l 1
 421 625 l 1
142 500 m 1
 201 500 l 1
 215 52 l 1
 249 52 l 1
 478 500 l 1
 541 500 l 1
 167 -224 l 1
 106 -224 l 1
 224 0 l 1
 159 0 l 1
 142 500 l 1
EndSplineSet
EndChar

StartChar: scaron
Encoding: 353 353 153
Width: 428
Flags: MW
HStem: -10 21G -10 53<184.5 255 184.5 266.5> 457 52<274.5 345> 489 20G<264.5 358> 590 145<253 370 253 338>
VStem: 127 60<330 377 330 385.5> 361 61<118.5 180.5>
LayerCount: 2
Fore
SplineSet
483 491 m 1x56
 470 443 l 1
 470 443 377 457 313 457 c 0
 236 457 187 406 187 348 c 0
 187 312 207 300 285 281 c 0
 374 260 422 243 422 170 c 0
 422 49 326 -10 207 -10 c 0x6e
 134 -10 52 11 52 11 c 1xa6
 63 59 l 1
 63 59 155 43 214 43 c 0
 296 43 361 79 361 158 c 0
 361 203 332 212 257 229 c 0
 173 249 127 269 127 335 c 0
 127 436 208 509 321 509 c 0x66
 395 509 483 491 483 491 c 1x56
370 590 m 1
 338 590 l 1
 253 735 l 1
 308 735 l 1
 365 640 l 1
 464 735 l 1
 526 735 l 1
 370 590 l 1
EndSplineSet
EndChar

StartChar: yacute
Encoding: 253 253 154
Width: 452
Flags: MW
HStem: -224 21G<106 167 106 106> 0 52<215 224> 480 20G<142 201 201 201 478 541 541 541>
VStem: 150.5 57.5
LayerCount: 2
Fore
SplineSet
142 500 m 1
 201 500 l 1
 215 52 l 1
 249 52 l 1
 478 500 l 1
 541 500 l 1
 167 -224 l 1
 106 -224 l 1
 224 0 l 1
 159 0 l 1
 142 500 l 1
293 601 m 1
 287 647 l 1
 505 741 l 1
 512 688 l 1
 293 601 l 1
EndSplineSet
EndChar

StartChar: zcaron
Encoding: 382 382 155
Width: 418
Flags: MW
HStem: 0 52<48 48 121 380 39 48> 447 53<141 495 155 410> 590 145<233 350 233 318>
VStem: 39 467
LayerCount: 2
Fore
SplineSet
350 590 m 1
 318 590 l 1
 233 735 l 1
 288 735 l 1
 345 640 l 1
 444 735 l 1
 506 735 l 1
 350 590 l 1
141 447 m 1
 155 500 l 1
 495 500 l 1
 484 448 l 1
 121 52 l 1
 392 52 l 1
 380 0 l 1
 39 0 l 1
 48 52 l 1
 410 447 l 1
 141 447 l 1
EndSplineSet
EndChar

StartChar: degree
Encoding: 176 176 156
Width: 560
Flags: MW
HStem: 427 42<380.5 438 380.5 450.5> 662 43<380.5 438>
VStem: 270 44<536 594 536 606.5> 507 42<536 594>
LayerCount: 2
Fore
SplineSet
270 565 m 0
 270 648 326 705 409 705 c 0
 492 705 549 648 549 565 c 0
 549 482 492 427 409 427 c 0
 326 427 270 482 270 565 c 0
314 565 m 0
 314 507 352 469 409 469 c 0
 467 469 507 507 507 565 c 0
 507 623 467 662 409 662 c 0
 352 662 314 623 314 565 c 0
EndSplineSet
EndChar

StartChar: section
Encoding: 167 167 157
Width: 466
Flags: MW
HStem: -139 56<182.5 255.5 182.5 286> 597 56<334 404.5>
VStem: 109 62<228 271> 174 63<445 507.5> 354 62<37.5 68> 414 61<252 290.5>
LayerCount: 2
Fore
SplineSet
541 638 m 1xd4
 526 583 l 1
 526 583 427 597 382 597 c 0
 286 597 237 545 237 471 c 0
 237 417 274 408 348 395 c 0
 447 377 475 334 475 288 c 0xd4
 475 216 407 132 399 122 c 1
 414 102 416 87 416 64 c 0
 416 11 375 -139 197 -139 c 0
 138 -139 38 -123 38 -123 c 1
 55 -69 l 1
 55 -69 157 -83 208 -83 c 0
 303 -83 354 -8 354 47 c 0
 354 89 333 101 241 118 c 0
 140 135 109 174 109 230 c 0xe8
 109 312 185 382 194 389 c 1
 179 407 174 428 174 462 c 0
 174 553 248 653 393 653 c 0
 453 653 541 638 541 638 c 1xd4
316 341 m 0
 278 347 239 358 231 365 c 1
 228 362 171 299 171 248 c 0
 171 208 193 188 268 175 c 0xe4
 306 168 336 161 359 148 c 1
 362 151 414 225 414 273 c 0
 414 308 388 328 316 341 c 0
EndSplineSet
EndChar

StartChar: copyright
Encoding: 169 169 158
Width: 645
Flags: MW
HStem: 164 39<358.5 486 358.5 498.5> 278 48<400 441.5 400 443> 542 48<397.5 443> 665 39<358.5 485.5>
VStem: 162 40<370.5 497.5 370.5 509.5> 311 49<399 469 399 483.5> 644 39<370 497.5>
LayerCount: 2
Fore
SplineSet
162 434 m 0
 162 585 272 704 422 704 c 0
 575 704 683 583 683 434 c 0
 683 283 575 164 422 164 c 0
 272 164 162 284 162 434 c 0
202 434 m 0
 202 307 295 203 422 203 c 0
 550 203 644 306 644 434 c 0
 644 561 549 665 422 665 c 0
 295 665 202 561 202 434 c 0
498 333 m 1
 501 288 l 1
 501 288 462 278 424 278 c 0
 336 278 311 332 311 434 c 0
 311 533 335 590 425 590 c 0
 466 590 501 581 501 581 c 1
 498 535 l 1
 498 535 459 542 427 542 c 0
 368 542 360 504 360 434 c 0
 360 364 373 326 427 326 c 0
 456 326 498 333 498 333 c 1
EndSplineSet
EndChar

StartChar: trademark
Encoding: 8482 8482 159
Width: 702
Flags: MW
HStem: 568 59<497 497 684 684> 584 43<220 420 220 301 347 347 347 420>
VStem: 301 46<332 584 332 584> 452 45<331 568 331 627> 684 44<331 568 568 568>
LayerCount: 2
Fore
SplineSet
220 584 m 1x78
 220 627 l 1
 420 627 l 1
 420 584 l 1
 347 584 l 1
 347 332 l 1
 301 332 l 1
 301 584 l 1
 220 584 l 1x78
452 331 m 1
 452 627 l 1
 516 627 l 1x78
 589 406 l 1
 665 627 l 1
 728 627 l 1
 728 331 l 1
 684 331 l 1
 684 568 l 1xb8
 609 344 l 1
 569 344 l 1
 497 568 l 1
 497 331 l 1
 452 331 l 1
EndSplineSet
EndChar

StartChar: registered
Encoding: 174 174 160
Width: 645
Flags: MW
HStem: 164 39<359 486 359 498.5> 394 41<364 430 430 432 364 364> 542 41<363 363 363 417> 665 39<358.5 485.5>
VStem: 162 40<370.5 497.5 370.5 509.5> 316 47<435 542 435 583 435 583> 485 48<469 508.5> 644 39<370 497.5>
LayerCount: 2
Fore
SplineSet
162 434 m 0
 162 585 272 704 422 704 c 0
 575 704 683 583 683 434 c 0
 683 283 575 164 422 164 c 0
 272 164 162 284 162 434 c 0
202 434 m 0
 202 307 296 203 422 203 c 0
 550 203 644 306 644 434 c 0
 644 561 549 665 422 665 c 0
 295 665 202 561 202 434 c 0
486 283 m 1
 432 394 l 1
 364 394 l 1
 364 283 l 1
 316 283 l 1
 316 583 l 1
 419 583 l 2
 493 583 533 560 533 490 c 0
 533 442 519 414 479 400 c 1
 538 283 l 1
 486 283 l 1
363 542 m 1
 363 435 l 1
 430 435 l 2
 469 435 485 449 485 489 c 0
 485 528 463 542 417 542 c 2
 363 542 l 1
EndSplineSet
EndChar

StartChar: aacute
Encoding: 225 225 161
Width: 493
Flags: MW
HStem: -10 53<203 260.5> 1 21G<432 432> 457 53<280.5 369>
VStem: 91 62<103 197.5 103 211.5>
LayerCount: 2
Fore
SplineSet
216 -10 m 0xb0
 130 -10 91 43 91 131 c 0
 91 292 177 510 342 510 c 0
 403 510 536 486 536 486 c 1
 460 161 l 2
 445 98 432 1 432 1 c 1
 374 -1 l 1x70
 374 -1 389 92 393 113 c 1
 393 113 305 -10 216 -10 c 0xb0
343 457 m 0
 218 457 153 264 153 131 c 0
 153 75 173 43 233 43 c 0
 302 43 406 184 406 184 c 1
 467 442 l 1
 467 442 395 457 343 457 c 0
341 601 m 1
 335 647 l 1
 553 741 l 1
 560 688 l 1
 341 601 l 1
EndSplineSet
EndChar

StartChar: agrave
Encoding: 224 224 162
Width: 493
Flags: MW
HStem: -10 53<203 260.5> 1 21G<432 432> 457 53<280.5 369>
VStem: 91 62<103 197.5 103 211.5>
LayerCount: 2
Fore
SplineSet
216 -10 m 0xb0
 130 -10 91 43 91 131 c 0
 91 292 177 510 342 510 c 0
 403 510 536 486 536 486 c 1
 460 161 l 2
 445 98 432 1 432 1 c 1
 374 -1 l 1x70
 374 -1 389 92 393 113 c 1
 393 113 305 -10 216 -10 c 0xb0
343 457 m 0
 218 457 153 264 153 131 c 0
 153 75 173 43 233 43 c 0
 302 43 406 184 406 184 c 1
 467 442 l 1
 467 442 395 457 343 457 c 0
335 734 m 1
 511 640 l 1
 483 599 l 1
 306 687 l 1
 335 734 l 1
EndSplineSet
EndChar

StartChar: acircumflex
Encoding: 226 226 163
Width: 493
Flags: MW
HStem: -10 53<203 260.5> 1 21G<432 432> 457 53<280.5 369> 590 145<248 441 399 466 399 528>
VStem: 91 62<103 197.5 103 211.5>
LayerCount: 2
Fore
SplineSet
248 590 m 1xb8
 399 735 l 1
 441 735 l 1
 528 590 l 1
 466 590 l 1
 412 682 l 1
 315 590 l 1
 248 590 l 1xb8
216 -10 m 0
 130 -10 91 43 91 131 c 0
 91 292 177 510 342 510 c 0
 403 510 536 486 536 486 c 1
 460 161 l 2
 445 98 432 1 432 1 c 1
 374 -1 l 1x78
 374 -1 389 92 393 113 c 1
 393 113 305 -10 216 -10 c 0
343 457 m 0
 218 457 153 264 153 131 c 0
 153 75 173 43 233 43 c 0
 302 43 406 184 406 184 c 1
 467 442 l 1
 467 442 395 457 343 457 c 0
EndSplineSet
EndChar

StartChar: adieresis
Encoding: 228 228 164
Width: 493
Flags: MW
HStem: -10 53<203 260.5> 1 21G<432 432> 457 53<280.5 369> 625 82<272 347 291 327 475 512>
VStem: 91 62<103 197.5 103 211.5>
LayerCount: 2
Fore
SplineSet
272 625 m 1xb8
 291 707 l 1
 347 707 l 1
 327 625 l 1
 272 625 l 1xb8
458 625 m 1
 475 707 l 1
 531 707 l 1
 512 625 l 1
 458 625 l 1
216 -10 m 0
 130 -10 91 43 91 131 c 0
 91 292 177 510 342 510 c 0
 403 510 536 486 536 486 c 1
 460 161 l 2
 445 98 432 1 432 1 c 1
 374 -1 l 1x78
 374 -1 389 92 393 113 c 1
 393 113 305 -10 216 -10 c 0
343 457 m 0
 218 457 153 264 153 131 c 0
 153 75 173 43 233 43 c 0
 302 43 406 184 406 184 c 1
 467 442 l 1
 467 442 395 457 343 457 c 0
EndSplineSet
EndChar

StartChar: atilde
Encoding: 227 227 165
Width: 493
Flags: MW
HStem: -10 53<203 260.5> 1 21G<432 432> 457 53<280.5 369> 620 53<481 500> 668 21G<571 571> 669 21G<344.5 369.5> 702 20G<352 389>
VStem: 91 62<103 197.5 103 211.5>
LayerCount: 2
Fore
SplineSet
216 -10 m 0xa7
 130 -10 91 43 91 131 c 0
 91 292 177 510 342 510 c 0
 403 510 536 486 536 486 c 1
 460 161 l 2
 445 98 432 1 432 1 c 1
 374 -1 l 1x67
 374 -1 389 92 393 113 c 1
 393 113 305 -10 216 -10 c 0xa7
343 457 m 0
 218 457 153 264 153 131 c 0
 153 75 173 43 233 43 c 0
 302 43 406 184 406 184 c 1
 467 442 l 1
 467 442 395 457 343 457 c 0
567 714 m 1xb3
 571 668 l 1
 571 668 517 620 483 620 c 0xab
 446 620 384 669 355 669 c 0
 334 669 277 625 277 625 c 1xa7
 275 672 l 1
 275 672 335 722 369 722 c 0
 409 722 468 673 494 673 c 0
 513 673 567 714 567 714 c 1xb3
EndSplineSet
EndChar

StartChar: aring
Encoding: 229 229 166
Width: 493
Flags: MW
HStem: -10 53<203 260.5> 1 21G<432 432> 457 53<280.5 369> 569 41<399 429 399 433> 716 43<425 454.5>
VStem: 91 62<103 197.5 103 211.5>
LayerCount: 2
Fore
SplineSet
216 -10 m 0xbc
 130 -10 91 43 91 131 c 0
 91 292 177 510 342 510 c 0
 403 510 536 486 536 486 c 1
 460 161 l 2
 445 98 432 1 432 1 c 1
 374 -1 l 1x7c
 374 -1 389 92 393 113 c 1
 393 113 305 -10 216 -10 c 0xbc
343 457 m 0
 218 457 153 264 153 131 c 0
 153 75 173 43 233 43 c 0
 302 43 406 184 406 184 c 1
 467 442 l 1
 467 442 395 457 343 457 c 0
337 664 m 0
 347 714 390 759 450 759 c 0
 498 759 521 728 517 680 c 0
 513 615 463 569 403 569 c 0
 344 569 327 610 337 664 c 0
376 664 m 0
 370 638 384 610 414 610 c 0
 444 610 470 634 477 664 c 0
 484 690 469 716 440 716 c 0
 410 716 383 693 376 664 c 0
EndSplineSet
EndChar

StartChar: eacute
Encoding: 233 233 167
Width: 458
Flags: MW
HStem: -10 54<225.5 284.5> 236 49<175 222 166 234> 458 51<309.5 386>
VStem: 93 61<111.5 156.5 111.5 223> 443 60<351 417.5>
LayerCount: 2
Fore
SplineSet
256 44 m 0
 330 44 420 69 420 69 c 1
 416 20 l 1
 416 20 329 -10 240 -10 c 0
 149 -10 93 39 93 138 c 0
 93 308 176 509 362 509 c 0
 447 509 503 476 503 395 c 0
 503 274 408 236 222 236 c 2
 166 236 l 1
 159 207 154 169 154 144 c 0
 154 79 195 44 256 44 c 0
175 285 m 1
 234 285 l 2
 374 285 443 308 443 394 c 0
 443 441 413 458 359 458 c 0
 260 458 206 387 175 285 c 1
305 601 m 1
 299 647 l 1
 517 741 l 1
 524 688 l 1
 305 601 l 1
EndSplineSet
EndChar

StartChar: egrave
Encoding: 232 232 168
Width: 458
Flags: MW
HStem: -10 54<225.5 284.5> 236 49<175 222 166 234> 458 51<309.5 386>
VStem: 93 61<111.5 156.5 111.5 223> 443 60<351 417.5>
LayerCount: 2
Fore
SplineSet
256 44 m 0
 330 44 420 69 420 69 c 1
 416 20 l 1
 416 20 329 -10 240 -10 c 0
 149 -10 93 39 93 138 c 0
 93 308 176 509 362 509 c 0
 447 509 503 476 503 395 c 0
 503 274 408 236 222 236 c 2
 166 236 l 1
 159 207 154 169 154 144 c 0
 154 79 195 44 256 44 c 0
175 285 m 1
 234 285 l 2
 374 285 443 308 443 394 c 0
 443 441 413 458 359 458 c 0
 260 458 206 387 175 285 c 1
257 734 m 1
 433 640 l 1
 405 599 l 1
 228 687 l 1
 257 734 l 1
EndSplineSet
EndChar

StartChar: ecircumflex
Encoding: 234 234 169
Width: 458
Flags: MW
HStem: -10 54<225.5 284.5> 236 49<175 222 166 234> 458 51<309.5 386> 590 145<228 421 380 447 380 508>
VStem: 93 61<111.5 156.5 111.5 223> 443 60<351 417.5>
LayerCount: 2
Fore
SplineSet
228 590 m 1
 380 735 l 1
 421 735 l 1
 508 590 l 1
 447 590 l 1
 393 682 l 1
 296 590 l 1
 228 590 l 1
256 44 m 0
 330 44 420 69 420 69 c 1
 416 20 l 1
 416 20 329 -10 240 -10 c 0
 149 -10 93 39 93 138 c 0
 93 308 176 509 362 509 c 0
 447 509 503 476 503 395 c 0
 503 274 408 236 222 236 c 2
 166 236 l 1
 159 207 154 169 154 144 c 0
 154 79 195 44 256 44 c 0
175 285 m 1
 234 285 l 2
 374 285 443 308 443 394 c 0
 443 441 413 458 359 458 c 0
 260 458 206 387 175 285 c 1
EndSplineSet
EndChar

StartChar: edieresis
Encoding: 235 235 170
Width: 458
Flags: MW
HStem: -10 54<225.5 284.5> 236 49<175 222 166 234> 458 51<309.5 386> 625 82<263 338 282 319 467 503>
VStem: 93 61<111.5 156.5 111.5 223> 443 60<351 417.5>
LayerCount: 2
Fore
SplineSet
263 625 m 1
 282 707 l 1
 338 707 l 1
 319 625 l 1
 263 625 l 1
449 625 m 1
 467 707 l 1
 523 707 l 1
 503 625 l 1
 449 625 l 1
256 44 m 0
 330 44 420 69 420 69 c 1
 416 20 l 1
 416 20 329 -10 240 -10 c 0
 149 -10 93 39 93 138 c 0
 93 308 176 509 362 509 c 0
 447 509 503 476 503 395 c 0
 503 274 408 236 222 236 c 2
 166 236 l 1
 159 207 154 169 154 144 c 0
 154 79 195 44 256 44 c 0
175 285 m 1
 234 285 l 2
 374 285 443 308 443 394 c 0
 443 441 413 458 359 458 c 0
 260 458 206 387 175 285 c 1
EndSplineSet
EndChar

StartChar: idieresis
Encoding: 239 239 171
Width: 197
Flags: MW
HStem: 0 21G<68 68 68 128> 480 20G<184 244 244 244> 625 82<107 182 126 162 310 347>
VStem: 68 298
LayerCount: 2
Fore
SplineSet
107 625 m 1
 126 707 l 1
 182 707 l 1
 162 625 l 1
 107 625 l 1
293 625 m 1
 310 707 l 1
 366 707 l 1
 347 625 l 1
 293 625 l 1
68 0 m 1
 184 500 l 1
 244 500 l 1
 128 0 l 1
 68 0 l 1
EndSplineSet
EndChar

StartChar: ntilde
Encoding: 241 241 172
Width: 494
Flags: MW
HStem: 620 53<461 480> 668 21G<551 551> 669 21G<324.5 349.5> 702 20G<332 369>
VStem: 68 483
LayerCount: 2
Fore
SplineSet
68 0 m 1x38
 128 0 l 1
 205 331 l 1
 205 331 298 456 373 456 c 0
 424 456 448 427 448 377 c 0
 448 340 437 286 429 252 c 2
 370 0 l 1
 429 0 l 1
 489 256 l 2
 498 294 509 345 509 387 c 0
 509 461 469 510 392 510 c 0
 302 510 221 403 221 403 c 1
 242 500 l 1
 184 500 l 1
 68 0 l 1x38
547 714 m 1x98
 551 668 l 1
 551 668 497 620 463 620 c 0x58
 426 620 364 669 335 669 c 0
 314 669 257 625 257 625 c 1x38
 255 672 l 1
 255 672 315 722 349 722 c 0
 389 722 448 673 474 673 c 0
 493 673 547 714 547 714 c 1x98
EndSplineSet
EndChar

StartChar: oacute
Encoding: 243 243 173
Width: 494
Flags: MW
HStem: -10 53<223 317 223 336.5> 457 52<288 381.5>
VStem: 94 60<114 228.5 114 245> 452 61<264.5 378>
LayerCount: 2
Fore
SplineSet
345 509 m 0
 455 509 513 454 513 344 c 0
 513 154 415 -10 258 -10 c 0
 151 -10 94 38 94 148 c 0
 94 342 198 509 345 509 c 0
258 43 m 0
 376 43 452 184 452 345 c 0
 452 411 418 457 345 457 c 0
 231 457 154 309 154 148 c 0
 154 80 188 43 258 43 c 0
306 601 m 1
 300 647 l 1
 518 741 l 1
 525 688 l 1
 306 601 l 1
EndSplineSet
EndChar

StartChar: ograve
Encoding: 242 242 174
Width: 494
Flags: MW
HStem: -10 53<223 317 223 336.5> 457 52<288 381.5>
VStem: 94 60<114 228.5 114 245> 452 61<264.5 378>
LayerCount: 2
Fore
SplineSet
345 509 m 0
 455 509 513 454 513 344 c 0
 513 154 415 -10 258 -10 c 0
 151 -10 94 38 94 148 c 0
 94 342 198 509 345 509 c 0
258 43 m 0
 376 43 452 184 452 345 c 0
 452 411 418 457 345 457 c 0
 231 457 154 309 154 148 c 0
 154 80 188 43 258 43 c 0
284 734 m 1
 460 640 l 1
 432 599 l 1
 255 687 l 1
 284 734 l 1
EndSplineSet
EndChar

StartChar: ocircumflex
Encoding: 244 244 175
Width: 494
Flags: MW
HStem: -10 53<223 317 223 336.5> 457 52<288 381.5> 590 145<244 437 396 462 396 524>
VStem: 94 60<114 228.5 114 245> 452 61<264.5 378>
LayerCount: 2
Fore
SplineSet
244 590 m 1
 396 735 l 1
 437 735 l 1
 524 590 l 1
 462 590 l 1
 408 682 l 1
 311 590 l 1
 244 590 l 1
345 509 m 0
 455 509 513 454 513 344 c 0
 513 154 415 -10 258 -10 c 0
 151 -10 94 38 94 148 c 0
 94 342 198 509 345 509 c 0
258 43 m 0
 376 43 452 184 452 345 c 0
 452 411 418 457 345 457 c 0
 231 457 154 309 154 148 c 0
 154 80 188 43 258 43 c 0
EndSplineSet
EndChar

StartChar: odieresis
Encoding: 246 246 176
Width: 494
Flags: MW
HStem: -10 53<223 317 223 336.5> 457 52<288 381.5> 625 82<271 339 290 320 468 498>
VStem: 94 60<114 228.5 114 245> 452 61<264.5 378>
LayerCount: 2
Fore
SplineSet
345 509 m 0
 455 509 513 454 513 344 c 0
 513 154 415 -10 258 -10 c 0
 151 -10 94 38 94 148 c 0
 94 342 198 509 345 509 c 0
258 43 m 0
 376 43 452 184 452 345 c 0
 452 411 418 457 345 457 c 0
 231 457 154 309 154 148 c 0
 154 80 188 43 258 43 c 0
271 625 m 1
 290 707 l 1
 339 707 l 1
 320 625 l 1
 271 625 l 1
450 625 m 1
 468 707 l 1
 517 707 l 1
 498 625 l 1
 450 625 l 1
EndSplineSet
EndChar

StartChar: otilde
Encoding: 245 245 177
Width: 494
Flags: MW
HStem: -10 53<223 317 223 336.5> 457 52<288 381.5> 620 53<448 467> 668 21G<538 538> 669 21G<311.5 336.5> 702 20G<319 356>
VStem: 94 60<114 228.5 114 245> 452 61<264.5 378>
LayerCount: 2
Fore
SplineSet
345 509 m 0xcf
 455 509 513 454 513 344 c 0
 513 154 415 -10 258 -10 c 0
 151 -10 94 38 94 148 c 0
 94 342 198 509 345 509 c 0xcf
258 43 m 0
 376 43 452 184 452 345 c 0
 452 411 418 457 345 457 c 0
 231 457 154 309 154 148 c 0
 154 80 188 43 258 43 c 0
534 714 m 1xe7
 538 668 l 1
 538 668 484 620 450 620 c 0xd7
 413 620 351 669 322 669 c 0
 301 669 244 625 244 625 c 1xcf
 242 672 l 1
 242 672 302 722 336 722 c 0
 376 722 435 673 461 673 c 0
 480 673 534 714 534 714 c 1xe7
EndSplineSet
EndChar

StartChar: uacute
Encoding: 250 250 178
Width: 494
Flags: MW
HStem: -10 54<211.5 262> 0 21G<367 425 367 367> 480 20G<180 239 239 239 481 541 541 541>
VStem: 100 61<98 133.5>
LayerCount: 2
Fore
SplineSet
481 500 m 1xb0
 541 500 l 1
 425 0 l 1
 367 0 l 1x70
 388 97 l 1
 388 97 307 -10 217 -10 c 0
 141 -10 100 39 100 112 c 0
 100 155 111 206 120 244 c 2
 180 500 l 1
 239 500 l 1
 180 248 l 2
 172 214 161 160 161 123 c 0
 161 73 187 44 236 44 c 0
 311 44 404 168 404 168 c 1
 481 500 l 1xb0
319 601 m 1
 313 647 l 1
 531 741 l 1
 538 688 l 1
 319 601 l 1
EndSplineSet
EndChar

StartChar: ugrave
Encoding: 249 249 179
Width: 494
Flags: MW
HStem: -10 54<211.5 262> 0 21G<367 425 367 367> 480 20G<180 239 239 239 481 541 541 541>
VStem: 100 61<98 133.5>
LayerCount: 2
Fore
SplineSet
286 734 m 1xb0
 462 640 l 1
 434 599 l 1
 257 687 l 1
 286 734 l 1xb0
481 500 m 1
 541 500 l 1
 425 0 l 1
 367 0 l 1x70
 388 97 l 1
 388 97 307 -10 217 -10 c 0
 141 -10 100 39 100 112 c 0
 100 155 111 206 120 244 c 2
 180 500 l 1
 239 500 l 1
 180 248 l 2
 172 214 161 160 161 123 c 0
 161 73 187 44 236 44 c 0
 311 44 404 168 404 168 c 1
 481 500 l 1
EndSplineSet
EndChar

StartChar: ucircumflex
Encoding: 251 251 180
Width: 494
Flags: MW
HStem: -10 54<211.5 262> 0 21G<367 425 367 367> 480 20G<180 239 239 239 481 541 541 541> 590 145<225 418 377 444 377 505>
VStem: 100 61<98 133.5>
LayerCount: 2
Fore
SplineSet
225 590 m 1xb8
 377 735 l 1
 418 735 l 1
 505 590 l 1
 444 590 l 1
 390 682 l 1
 293 590 l 1
 225 590 l 1xb8
481 500 m 1
 541 500 l 1
 425 0 l 1
 367 0 l 1x78
 388 97 l 1
 388 97 307 -10 217 -10 c 0
 141 -10 100 39 100 112 c 0
 100 155 111 206 120 244 c 2
 180 500 l 1
 239 500 l 1
 180 248 l 2
 172 214 161 160 161 123 c 0
 161 73 187 44 236 44 c 0
 311 44 404 168 404 168 c 1
 481 500 l 1
EndSplineSet
EndChar

StartChar: udieresis
Encoding: 252 252 181
Width: 494
Flags: MW
HStem: -10 54<211.5 262> 0 21G<367 425 367 367> 480 20G<180 239 239 239 481 541 541 541> 625 82<256 331 275 312 460 496>
VStem: 100 61<98 133.5>
LayerCount: 2
Fore
SplineSet
256 625 m 1xb8
 275 707 l 1
 331 707 l 1
 312 625 l 1
 256 625 l 1xb8
442 625 m 1
 460 707 l 1
 516 707 l 1
 496 625 l 1
 442 625 l 1
481 500 m 1
 541 500 l 1
 425 0 l 1
 367 0 l 1x78
 388 97 l 1
 388 97 307 -10 217 -10 c 0
 141 -10 100 39 100 112 c 0
 100 155 111 206 120 244 c 2
 180 500 l 1
 239 500 l 1
 180 248 l 2
 172 214 161 160 161 123 c 0
 161 73 187 44 236 44 c 0
 311 44 404 168 404 168 c 1
 481 500 l 1
EndSplineSet
EndChar

StartChar: minus
Encoding: 8722 8722 182
Width: 560
Flags: MW
HStem: 223 56<125 550 125 550>
VStem: 125 425<223 279 223 279>
LayerCount: 2
Fore
SplineSet
125 223 m 1
 125 279 l 1
 550 279 l 1
 550 223 l 1
 125 223 l 1
EndSplineSet
EndChar

StartChar: multiply
Encoding: 215 215 183
Width: 560
Flags: MW
HStem: 45 411<171 503>
VStem: 132 410<85 85 85 416>
LayerCount: 2
Fore
SplineSet
171 456 m 1
 337 288 l 1
 503 456 l 1
 542 417 l 1
 375 251 l 1
 542 85 l 1
 503 45 l 1
 337 213 l 1
 171 46 l 1
 132 85 l 1
 299 251 l 1
 132 416 l 1
 171 456 l 1
EndSplineSet
EndChar

StartChar: dotlessi
Encoding: 305 305 184
Width: 197
Flags: MW
HStem: 0 21G<68 68 68 128> 480 20G<184 244 244 244>
VStem: 68 176
LayerCount: 2
Fore
SplineSet
68 0 m 1
 184 500 l 1
 244 500 l 1
 128 0 l 1
 68 0 l 1
EndSplineSet
EndChar

StartChar: iacute
Encoding: 237 237 185
Width: 197
Flags: MW
HStem: 0 21G<68 68 68 128> 480 20G<184 244 244 244>
VStem: 68 347
LayerCount: 2
Fore
SplineSet
68 0 m 1
 184 500 l 1
 244 500 l 1
 128 0 l 1
 68 0 l 1
196 601 m 1
 190 647 l 1
 408 741 l 1
 415 688 l 1
 196 601 l 1
EndSplineSet
EndChar

StartChar: igrave
Encoding: 236 236 186
Width: 197
Flags: MW
HStem: 0 21G<68 68 68 128> 480 20G<184 244 244 244>
VStem: 68 215
LayerCount: 2
Fore
SplineSet
68 0 m 1
 184 500 l 1
 244 500 l 1
 128 0 l 1
 68 0 l 1
107 734 m 1
 283 640 l 1
 255 599 l 1
 78 687 l 1
 107 734 l 1
EndSplineSet
EndChar

StartChar: icircumflex
Encoding: 238 238 187
Width: 197
Flags: MW
HStem: 0 21G<68 68 68 128> 480 20G<184 244 244 244> 590 145<88 281 239 306 239 367>
VStem: 68 299
LayerCount: 2
Fore
SplineSet
88 590 m 1
 239 735 l 1
 281 735 l 1
 367 590 l 1
 306 590 l 1
 252 682 l 1
 155 590 l 1
 88 590 l 1
68 0 m 1
 184 500 l 1
 244 500 l 1
 128 0 l 1
 68 0 l 1
EndSplineSet
EndChar

StartChar: germandbls
Encoding: 223 223 188
Width: 532
Flags: MW
HStem: -10 21G<291 387.5> -10 53<295.5 367.5 295.5 387.5> 0 21G<68 125 68 68> 680 52<358 439.5>
VStem: 324 61<381.5 407 381.5 411> 478 61<147.5 213> 502 61<584 633.5>
LayerCount: 2
Fore
SplineSet
125 0 m 1x3a
 68 0 l 1
 193 531 l 2
 228 680 288 732 408 732 c 0
 514 732 563 690 563 618 c 0x3a
 563 537 526 493 466 464 c 0
 407 435 385 420 385 394 c 0
 385 369 394 357 446 325 c 0
 514 283 539 266 539 197 c 0
 539 72 458 -10 317 -10 c 0x5c
 265 -10 199 8 199 8 c 1x9c
 210 56 l 1
 210 56 275 43 316 43 c 0
 419 43 478 103 478 192 c 0x5c
 478 234 464 249 398 289 c 0
 341 324 324 347 324 384 c 0
 324 438 350 461 425 500 c 0
 479 528 502 557 502 611 c 0
 502 656 475 680 404 680 c 0
 312 680 273 635 248 524 c 2
 125 0 l 1x3a
EndSplineSet
EndChar

StartChar: ccedilla
Encoding: 231 231 189
Width: 405
Flags: MW
HStem: -207 46<202 230 202 244.5> -86 38<190 240> -10 53<245 248 245 245> -7 21G<209 209> 457 53<287 378>
VStem: 95 61<113.5 223 113.5 232.5>
LayerCount: 2
Fore
SplineSet
358 510 m 0xec
 412 510 477 494 477 494 c 1
 462 446 l 1
 462 446 400 457 356 457 c 0
 218 457 156 299 156 147 c 0
 156 80 186 43 266 43 c 0
 305 43 379 59 379 59 c 1
 376 11 l 1
 376 11 308 -10 248 -10 c 2
 245 -10 l 1xec
 235 -48 l 1
 240 -48 l 2
 293 -48 333 -66 320 -124 c 0
 307 -182 273 -207 216 -207 c 0
 175 -207 138 -201 138 -201 c 1
 149 -157 l 1
 149 -157 188 -161 216 -161 c 0
 244 -161 261 -150 268 -122 c 0
 275 -92 256 -86 234 -86 c 2
 190 -86 l 1
 209 -7 l 1xdc
 131 5 95 55 95 137 c 0
 95 328 178 510 358 510 c 0xec
EndSplineSet
EndChar

StartChar: lslash
Encoding: 322 322 190
Width: 265
Flags: MW
HStem: 0 21G<100 100 100 159> 702 20G<267 326 326 326>
VStem: 73 275<291 405>
LayerCount: 2
Fore
SplineSet
100 0 m 1
 168 293 l 1
 94 248 l 1
 73 291 l 1
 183 359 l 1
 267 722 l 1
 326 722 l 1
 252 402 l 1
 328 450 l 1
 348 405 l 1
 236 336 l 1
 159 0 l 1
 100 0 l 1
EndSplineSet
EndChar

StartChar: eth
Encoding: 240 240 191
Width: 514
Flags: MW
HStem: -9 60<218 316.5 218 318.5> 370 59<279 362> 701 21G<548 548> 706 20G<280 280>
VStem: 82 65 497 61
LayerCount: 2
Fore
SplineSet
399 607 m 1xdc
 280 533 l 1
 256 572 l 1
 354 633 l 1
 323 649 289 661 255 672 c 1
 280 726 l 1
 333 713 379 695 417 673 c 1
 525 741 l 1xdc
 548 701 l 1
 459 645 l 1xec
 545 578 576 481 547 358 c 0
 485 97 390 -9 247 -9 c 0
 120 -9 74 70 82 156 c 0
 91 323 206 429 338 429 c 0
 410 429 493 390 493 390 c 1
 510 493 467 561 399 607 c 1xdc
329 370 m 0
 229 370 150 279 147 160 c 0
 142 96 175 51 261 51 c 0
 372 51 438 165 480 331 c 1
 476 334 395 370 329 370 c 0
EndSplineSet
EndChar

StartChar: Thorn
Encoding: 222 222 192
Width: 551
Flags: MW
HStem: 0 21G<79 139 79 79> 125 58<182 343 168 356> 524 58<432 446 446 488.5>
VStem: 545 60
LayerCount: 2
Fore
SplineSet
356 183 m 2
 458 183 511 262 537 362 c 0
 558 447 545 524 432 524 c 2
 263 525 l 1
 182 183 l 1
 356 183 l 2
343 125 m 2
 168 125 l 1
 139 0 l 1
 79 0 l 1
 243 697 l 1
 303 697 l 1
 276 582 l 1
 446 582 l 2
 591 582 623 482 597 362 c 0
 567 224 482 125 343 125 c 2
EndSplineSet
Position2: "'cpsp' Capital Spacing in Lateinisch lookup 0 subtable" dx=5 dy=0 dh=10 dv=0
EndChar

StartChar: oslash
Encoding: 248 248 193
Width: 493
Flags: MW
HStem: -8 53<248 318 248 337.5> 459 52<289 357>
VStem: 95 60<135.5 230.5 135.5 247> 453 61<266.5 361.5>
LayerCount: 2
Fore
SplineSet
346 511 m 0
 379 511 408 505 432 495 c 1
 499 604 l 1
 537 588 l 1
 465 475 l 1
 497 447 514 404 514 346 c 0
 514 156 416 -8 259 -8 c 0
 225 -8 196 -3 172 7 c 1
 99 -112 l 1
 61 -96 l 1
 139 27 l 1
 110 53 95 93 95 150 c 0
 95 344 199 511 346 511 c 0
259 45 m 0
 377 45 453 186 453 347 c 0
 453 376 446 402 432 421 c 1
 317 240 l 1
 203 56 l 1
 218 48 237 45 259 45 c 0
173 81 m 1
 285 258 l 1
 402 447 l 1
 387 455 368 459 346 459 c 0
 232 459 155 311 155 150 c 0
 155 121 161 98 173 81 c 1
EndSplineSet
EndChar

StartChar: zero.pnum
Encoding: 65540 -1 194
Width: 517
Flags: MW
HStem: -9 56<224.5 285.5> 453 56<350 408.5>
VStem: 89 64<122.5 215> 479 65<304 374>
LayerCount: 2
Fore
SplineSet
378 509 m 0
 501 509 544 449 544 345 c 0
 544 256 510 128 425 53 c 0
 381 14 322 -9 249 -9 c 0
 133 -9 89 50 89 154 c 0
 89 276 140 401 231 465 c 0
 273 494 322 509 378 509 c 0
366 453 m 0
 237 453 153 309 153 162 c 0
 153 83 185 47 264 47 c 0
 438 47 479 276 479 332 c 0
 479 416 451 453 366 453 c 0
EndSplineSet
Substitution2: "'frac' Diagonal Fractions in Lateinisch lookup 1 subtable" zerosuperior
EndChar

StartChar: one.pnum
Encoding: 65541 -1 195
Width: 319
Flags: MW
HStem: 0 21G<190 253 190 190> 480 20G<316 377 377 377>
VStem: 111 266<386 500>
LayerCount: 2
Fore
SplineSet
111 386 m 1
 316 500 l 1
 377 500 l 1
 253 0 l 1
 190 0 l 1
 296 427 l 1
 128 334 l 1
 111 386 l 1
EndSplineSet
Substitution2: "'frac' Diagonal Fractions in Lateinisch lookup 1 subtable" onesuperior
EndChar

StartChar: two.pnum
Encoding: 65542 -1 196
Width: 444
Flags: MW
HStem: 0 56<145 409> 452 57<303 357>
VStem: 416 68<355.5 406.5>
LayerCount: 2
Fore
SplineSet
409 0 m 1
 37 0 l 1
 50 55 l 1
 260 204 l 2
 337 257 416 323 416 388 c 0
 416 425 399 452 315 452 c 0
 254 452 150 434 149 433 c 2
 158 487 l 1
 158 487 265 509 341 509 c 0
 443 509 484 464 484 406 c 0
 484 305 413 244 340 193 c 2
 145 56 l 1
 417 56 l 1
 409 0 l 1
EndSplineSet
Substitution2: "'frac' Diagonal Fractions in Lateinisch lookup 1 subtable" twosuperior
EndChar

StartChar: three.pnum
Encoding: 65543 -1 197
Width: 458
Flags: MW
HStem: -9 21G<190.5 313> -9 56<200.5 293.5 200.5 313> 235 54<183 290 169 305> 453 56<311.5 372.5>
VStem: 390 62<139 198.5> 434 63<363 420.5>
LayerCount: 2
Fore
SplineSet
169 489 m 1x74
 169 489 273 509 350 509 c 0
 459 509 497 471 497 420 c 0x74
 497 303 407 268 371 265 c 1
 417 257 452 224 452 180 c 0
 452 87 393 -9 233 -9 c 0x78
 148 -9 42 10 42 10 c 1xb4
 63 63 l 1
 63 63 162 47 239 47 c 0
 348 47 390 108 390 170 c 0
 390 227 328 235 290 235 c 2x78
 169 235 l 1
 183 289 l 1
 305 289 l 2
 364 289 434 327 434 399 c 0
 434 442 408 453 337 453 c 0
 261 453 162 436 162 436 c 1
 169 489 l 1x74
EndSplineSet
Substitution2: "'frac' Diagonal Fractions in Lateinisch lookup 1 subtable" threesuperior
EndChar

StartChar: four.pnum
Encoding: 65544 -1 198
Width: 457
Flags: MW
HStem: 0 158<305 305 305 345 141 366> 104 54<141 331 141 392 405 453> 480 20G<320 392 392 392>
VStem: 54 412<104 158>
LayerCount: 2
Fore
SplineSet
305 0 m 1xb0
 331 104 l 1
 54 104 l 1
 66 153 l 1
 320 500 l 1
 392 500 l 1
 141 158 l 1
 345 158 l 1
 377 289 l 1
 438 289 l 1
 405 158 l 1
 466 158 l 1
 453 104 l 1
 392 104 l 1x70
 366 0 l 1
 305 0 l 1xb0
EndSplineSet
Substitution2: "'frac' Diagonal Fractions in Lateinisch lookup 1 subtable" foursuperior
EndChar

StartChar: five.pnum
Encoding: 65545 -1 199
Width: 459
Flags: MW
HStem: -9 21G<197 307> -9 54<210 290 210 307> 262 53<287 336.5> 444 57<234 499 234 234>
VStem: 396 64<150 212.5>
LayerCount: 2
Fore
SplineSet
192 501 m 1x78
 513 501 l 1
 499 444 l 1
 234 444 l 1
 180 283 l 1
 180 283 259 315 315 315 c 0
 408 315 460 276 460 200 c 0
 460 81 381 -9 233 -9 c 0x78
 161 -9 49 13 49 13 c 1xb8
 69 67 l 1
 69 67 177 45 243 45 c 0
 337 45 396 110 396 190 c 0
 396 235 375 262 298 262 c 0
 241 262 151 225 151 225 c 1
 109 235 l 1
 192 501 l 1x78
EndSplineSet
Substitution2: "'frac' Diagonal Fractions in Lateinisch lookup 1 subtable" fivesuperior
EndChar

StartChar: six.pnum
Encoding: 65546 -1 200
Width: 475
Flags: MW
HStem: -10 50<209.5 326.5 209.5 328.5> 263 51<304 358> 455 54<323 403> 489 20G<280 411>
VStem: 89 60<114.5 155 114.5 232> 417 61<181 215.5>
LayerCount: 2
Fore
SplineSet
527 491 m 1xdc
 509 441 l 1
 509 441 437 455 369 455 c 0
 277 455 203 403 170 275 c 1
 197 289 277 314 331 314 c 0
 448 314 478 272 478 204 c 0
 478 108 421 -10 236 -10 c 0
 131 -10 89 49 89 135 c 0
 89 329 182 509 378 509 c 0xec
 444 509 527 491 527 491 c 1xdc
314 263 m 0
 246 263 158 224 158 224 c 1
 154 204 149 167 149 143 c 0
 149 86 169 40 250 40 c 0
 403 40 417 165 417 197 c 0
 417 234 402 263 314 263 c 0
EndSplineSet
Substitution2: "'frac' Diagonal Fractions in Lateinisch lookup 1 subtable" sixsuperior
EndChar

StartChar: seven.pnum
Encoding: 65547 -1 201
Width: 394
Flags: MW
HStem: 446 55<129 482 143 404>
VStem: 92 390
LayerCount: 2
Fore
SplineSet
129 446 m 1
 143 501 l 1
 482 501 l 1
 462 419 l 1
 141 -14 l 1
 92 15 l 1
 398 424 l 1
 404 446 l 1
 129 446 l 1
EndSplineSet
Substitution2: "'frac' Diagonal Fractions in Lateinisch lookup 1 subtable" sevensuperior
EndChar

StartChar: eight.pnum
Encoding: 65548 -1 202
Width: 492
Flags: MW
HStem: -10 56<212 312 212 328.5> 234 54<266 341 252 354> 456 53<288.5 391.5>
VStem: 69 66<85.5 142> 140 64<336 366 336 391> 418 64<135.5 188.5> 468 66<368 416.5>
LayerCount: 2
Fore
SplineSet
367 509 m 0xea
 479 509 534 468 534 410 c 0xf2
 534 326 476 282 404 263 c 1
 460 243 482 211 482 172 c 0
 482 70 419 -10 238 -10 c 0
 126 -10 69 31 69 92 c 0xf4
 69 192 136 238 206 263 c 1
 154 287 140 318 140 351 c 0
 140 431 210 509 367 509 c 0xea
252 46 m 0xf4
 372 46 418 97 418 174 c 0
 418 203 393 221 341 234 c 1
 252 234 l 1
 189 221 135 182 135 105 c 0
 135 66 172 46 252 46 c 0xf4
349 456 m 0xea
 218 456 204 382 204 350 c 0
 204 322 214 304 266 288 c 1
 354 288 l 1
 419 306 468 331 468 398 c 0
 468 435 434 456 349 456 c 0xea
EndSplineSet
Substitution2: "'frac' Diagonal Fractions in Lateinisch lookup 1 subtable" eightsuperior
EndChar

StartChar: nine.pnum
Encoding: 65549 -1 203
Width: 475
Flags: MW
HStem: -10 21G<178 309> -10 54<186 268 186 309> 191 52<232.5 288> 459 50<262.5 379.5>
VStem: 113 60<293 324 293 346.5> 441 59<344 385>
LayerCount: 2
Fore
SplineSet
62 8 m 1xbc
 80 58 l 1
 80 58 152 44 220 44 c 0
 316 44 397 110 423 231 c 1
 383 213 317 191 259 191 c 0
 142 191 113 242 113 302 c 0
 113 391 169 509 353 509 c 0
 458 509 500 450 500 363 c 0
 500 165 407 -10 211 -10 c 0x7c
 145 -10 62 8 62 8 c 1xbc
277 243 m 0
 345 243 434 281 434 281 c 1
 438 301 441 332 441 356 c 0
 441 414 420 459 339 459 c 0
 186 459 173 340 173 308 c 0
 173 278 188 243 277 243 c 0
EndSplineSet
Substitution2: "'frac' Diagonal Fractions in Lateinisch lookup 1 subtable" ninesuperior
EndChar

StartChar: brokenbar
Encoding: 166 166 204
Width: 313
Flags: MW
HStem: -225 21G<184 244 184 184> 702 20G<184 244 244 244>
VStem: 184 60<-225 152 -225 152 347 722>
LayerCount: 2
Fore
SplineSet
184 722 m 1
 244 722 l 1
 244 347 l 1
 184 347 l 1
 184 722 l 1
184 152 m 1
 244 152 l 1
 244 -225 l 1
 184 -225 l 1
 184 152 l 1
EndSplineSet
EndChar

StartChar: plusminus
Encoding: 177 177 205
Width: 560
Flags: MW
HStem: 42 56<103 550 103 550> 298 56<103 297 103 297 354 550>
VStem: 297 57<165 298 165 298 354 484>
LayerCount: 2
Fore
SplineSet
103 298 m 1
 103 354 l 1
 297 354 l 1
 297 484 l 1
 354 484 l 1
 354 354 l 1
 550 354 l 1
 550 298 l 1
 354 298 l 1
 354 165 l 1
 297 165 l 1
 297 298 l 1
 103 298 l 1
103 98 m 1
 550 98 l 1
 550 42 l 1
 103 42 l 1
 103 98 l 1
EndSplineSet
EndChar

StartChar: pi
Encoding: 960 960 206
Width: 560
Flags: MW
HStem: -3 53<548 584 548 584> 0 21G<169 230 169 169> 447 53<200 458 258 433 258 258>
VStem: 433 59<154 447 447 447>
LayerCount: 2
Fore
SplineSet
433 154 m 2xb0
 433 447 l 1
 258 447 l 1
 230 0 l 1
 169 0 l 1x70
 200 447 l 1
 127 446 87 434 87 434 c 1
 87 486 l 1
 87 486 145 500 227 500 c 2
 458 500 l 2
 535 500 594 515 594 515 c 1
 594 463 l 1
 594 463 565 451 492 449 c 1
 492 154 l 2
 492 68 512 50 584 50 c 1
 584 -3 l 1
 463 -3 433 27 433 154 c 2xb0
EndSplineSet
EndChar

StartChar: bullet
Encoding: 8226 8226 207
Width: 492
Flags: MW
HStem: 107 288<179 429 179 429>
VStem: 179 250<107 395 107 395>
LayerCount: 2
Fore
SplineSet
179 107 m 1
 179 395 l 1
 429 395 l 1
 429 107 l 1
 179 107 l 1
EndSplineSet
EndChar

StartChar: ordfeminine
Encoding: 170 170 208
Width: 348
Flags: MW
HStem: 368 45<217 233> 501.5 39.5 613 46<305.5 332.5>
VStem: 207 203
LayerCount: 2
Fore
SplineSet
406 564 m 2
 374 426 l 1
 379 416 390 411 401 408 c 1
 390 368 l 1
 347 368 336 376 324 392 c 1
 324 392 260 368 206 368 c 0
 158 368 135 402 148 455 c 0
 161 508 190 534 255 538 c 2
 347 544 l 1
 353 566 l 2
 361 601 349 613 316 613 c 0
 279 613 204 606 204 606 c 1
 210 646 l 1
 210 646 283 659 328 659 c 0
 394 659 423 635 406 564 c 2
338 504 m 1
 256 499 l 2
 224 497 209 484 202 455 c 0
 195 426 205 413 229 413 c 0
 268 413 321 431 321 431 c 1
 338 504 l 1
EndSplineSet
EndChar

StartChar: ordmasculine
Encoding: 186 186 209
Width: 340
Flags: MW
HStem: 366 51<245.5 289 245.5 296.5> 608 50<286 329>
VStem: 155 55<459 467.5> 363 56
LayerCount: 2
Fore
SplineSet
321 658 m 0
 376 658 416 636 419 583 c 0
 421 556 417 534 412 510 c 0
 389 410 341 366 252 366 c 0
 190 366 154 399 155 459 c 0
 155 476 158 494 163 515 c 0
 188 618 235 658 321 658 c 0
264 417 m 0
 314 417 340 442 358 514 c 0
 362 533 363 549 363 562 c 0
 363 596 347 608 311 608 c 0
 261 608 234 584 218 516 c 0
 213 496 210 480 210 466 c 0
 210 432 227 417 264 417 c 0
EndSplineSet
EndChar

StartChar: quotedblleft
Encoding: 8220 8220 210
Width: 332
Flags: MW
HStem: 480 215<151 301 151 301 255 302 255 364>
VStem: 151 301<480 695>
LayerCount: 2
Fore
SplineSet
255 695 m 1
 301 695 l 1
 213 480 l 1
 151 480 l 1
 255 695 l 1
406 695 m 1
 452 695 l 1
 364 480 l 1
 302 480 l 1
 406 695 l 1
EndSplineSet
EndChar

StartChar: asciitilde
Encoding: 126 126 211
Width: 560
Flags: MW
HStem: 201 56<418.5 459.5 418.5 467.5> 267 56<223.5 264>
VStem: 128 426<255 269>
LayerCount: 2
Fore
SplineSet
543 305 m 1
 554 255 l 1
 554 255 494 201 441 201 c 0xa0
 385 201 285 267 243 267 c 0
 204 267 139 218 139 218 c 1
 128 269 l 1
 128 269 190 323 243 323 c 0xe0
 299 323 396 257 441 257 c 0
 478 257 543 305 543 305 c 1
EndSplineSet
EndChar

StartChar: emdash
Encoding: 8212 8212 212
Width: 1111
Flags: MW
HStem: 241 54<118 1118 118 1118>
VStem: 118 1000<241 295 241 295>
LayerCount: 2
Fore
SplineSet
118 295 m 1
 1118 295 l 1
 1118 241 l 1
 118 241 l 1
 118 295 l 1
EndSplineSet
Substitution2: "'case' Case-Sensitive Forms in Lateinisch lookup 4 subtable" emdash.cap
EndChar

StartChar: six
Encoding: 54 54 213
Width: 560
Flags: MW
HStem: -10 54<259.5 369.5 259.5 385> 356 55<343.5 420> 616 54<379.5 493.5>
VStem: 115 63<162.5 232.5 162.5 306> 503 63<187 279.5>
LayerCount: 2
Fore
SplineSet
631 651 m 1
 613 600 l 1
 613 600 532 616 455 616 c 0
 304 616 232 476 200 366 c 1
 200 366 296 411 391 411 c 0
 511 411 566 350 566 255 c 0
 566 98 469 -10 301 -10 c 0
 182 -10 115 69 115 215 c 0
 115 397 223 670 470 670 c 0
 548 670 631 651 631 651 c 1
373 356 m 0
 286 356 189 313 189 313 c 1
 183 295 178 251 178 214 c 0
 178 111 217 44 302 44 c 0
 437 44 503 133 503 241 c 0
 503 318 467 356 373 356 c 0
EndSplineSet
Substitution2: "'frac' Diagonal Fractions in Lateinisch lookup 1 subtable" sixsuperior
EndChar

StartChar: nine
Encoding: 57 57 214
Width: 560
Flags: MW
HStem: -10 21G -10 57<214 312.5 214 319> 252 56<284 347.5> 614 56<367.5 474>
VStem: 148 62 537 57
LayerCount: 2
Fore
SplineSet
78 11 m 1xbc
 99 65 l 1
 99 65 175 47 253 47 c 0
 372 47 464 123 507 290 c 1
 507 290 383 252 312 252 c 0
 190 252 128 313 153 447 c 0
 178 574 286 670 429 670 c 0
 576 670 621 552 579 348 c 1
 532 88 400 -10 238 -10 c 0x7c
 164 -10 78 11 78 11 c 1xbc
331 308 m 0
 399 308 521 344 521 344 c 1
 559 508 533 614 415 614 c 0
 320 614 236 552 215 450 c 0
 194 351 237 308 331 308 c 0
EndSplineSet
Substitution2: "'frac' Diagonal Fractions in Lateinisch lookup 1 subtable" ninesuperior
EndChar

StartChar: yen
Encoding: 165 165 215
Width: 560
Flags: MW
HStem: 0 21G<249 309 249 249> 168 55<120 288 107 300 362 526 120 349> 318 54<142 293 154 293 154 314 438 561>
VStem: 107 576<168 661>
LayerCount: 2
Fore
SplineSet
142 318 m 1
 154 372 l 1
 293 372 l 1
 178 661 l 1
 244 661 l 1
 360 370 l 1
 604 661 l 1
 683 661 l 1
 438 372 l 1
 573 372 l 1
 561 318 l 1
 395 318 l 1
 380 300 l 1
 362 223 l 1
 539 223 l 1
 526 168 l 1
 349 168 l 1
 309 0 l 1
 249 0 l 1
 288 168 l 1
 107 168 l 1
 120 223 l 1
 300 223 l 1
 318 302 l 1
 314 318 l 1
 142 318 l 1
EndSplineSet
EndChar

StartChar: less
Encoding: 60 60 216
Width: 560
Flags: MW
HStem: 14 472<524 524>
VStem: 104 420<14 278 14 278>
LayerCount: 2
Fore
SplineSet
524 423 m 1
 165 252 l 1
 524 78 l 1
 524 14 l 1
 104 224 l 1
 104 278 l 1
 524 486 l 1
 524 423 l 1
EndSplineSet
EndChar

StartChar: greater
Encoding: 62 62 217
Width: 560
Flags: MW
HStem: 14 472<149 149>
VStem: 149 420<14 278 78 278 224 486 224 486>
LayerCount: 2
Fore
SplineSet
508 252 m 1
 149 423 l 1
 149 486 l 1
 569 278 l 1
 569 224 l 1
 149 14 l 1
 149 78 l 1
 508 252 l 1
EndSplineSet
EndChar

StartChar: bracketleft
Encoding: 91 91 218
Width: 283
Flags: MW
HStem: -122 53<107 220> 694 53<286 413 286 286>
VStem: 34 391
LayerCount: 2
Fore
SplineSet
238 747 m 1
 425 747 l 1
 413 694 l 1
 286 694 l 1
 107 -69 l 1
 234 -69 l 1
 220 -122 l 1
 34 -122 l 1
 238 747 l 1
EndSplineSet
Substitution2: "'case' Case-Sensitive Forms in Lateinisch lookup 4 subtable" bracketleft.cap
EndChar

StartChar: backslash
Encoding: 92 92 219
Width: 411
Flags: MW
HStem: 0 21G<320 320>
VStem: 189 194
LayerCount: 2
Fore
SplineSet
383 10 m 1
 320 0 l 1
 189 691 l 1
 252 701 l 1
 383 10 l 1
EndSplineSet
EndChar

StartChar: bracketright
Encoding: 93 93 220
Width: 283
Flags: MW
HStem: -121 53<15 142 15 190 3 142> 695 53<208 321 194 394>
VStem: 3 391
LayerCount: 2
Fore
SplineSet
190 -121 m 1
 3 -121 l 1
 15 -68 l 1
 142 -68 l 1
 321 695 l 1
 194 695 l 1
 208 748 l 1
 394 748 l 1
 190 -121 l 1
EndSplineSet
Substitution2: "'case' Case-Sensitive Forms in Lateinisch lookup 4 subtable" bracketright.cap
EndChar

StartChar: bar
Encoding: 124 124 221
Width: 306
Flags: MW
HStem: -225 21G<180 180 180 240> 702 20G<180 240 240 240>
VStem: 180 60<-225 722 -225 722>
LayerCount: 2
Fore
SplineSet
180 -225 m 1
 180 722 l 1
 240 722 l 1
 240 -225 l 1
 180 -225 l 1
EndSplineSet
EndChar

StartChar: notequal
Encoding: 8800 8800 222
Width: 560
Flags: MW
HStem: -1 21G<189 189> 133 56<122 247 122 272 331 551 122 306> 312 56<122 350 122 326 122 385 409 551> 484 20G<469 469>
VStem: 122 429<133 189 133 189 312 368 133 368>
LayerCount: 2
Fore
SplineSet
122 312 m 1
 122 368 l 1
 350 368 l 1
 419 524 l 1
 469 504 l 1
 409 368 l 1
 551 368 l 1
 551 312 l 1
 385 312 l 1
 331 189 l 1
 551 189 l 1
 551 133 l 1
 306 133 l 1
 239 -21 l 1
 189 -1 l 1
 247 133 l 1
 122 133 l 1
 122 189 l 1
 272 189 l 1
 326 312 l 1
 122 312 l 1
EndSplineSet
EndChar

StartChar: mu
Encoding: 181 181 223
Width: 560
Flags: MW
HStem: -225 21G<46 46 46 106> -10 54<246.5 297> 0 21G<402 460 402 402> 480 20G<215 274 274 274 516 576 576 576>
VStem: 46 530
LayerCount: 2
Fore
SplineSet
46 -225 m 1xd8
 162 275 l 1
 215 500 l 1
 274 500 l 1
 221 275 l 1
 222 275 l 1
 204 200 l 2
 199 174 196 145 196 123 c 0
 196 73 222 44 271 44 c 0xd8
 346 44 439 168 439 168 c 1
 516 500 l 1
 576 500 l 1
 460 0 l 1
 402 0 l 1xb8
 423 97 l 1
 423 97 342 -10 252 -10 c 0
 213 -10 184 2 164 24 c 1
 106 -225 l 1
 46 -225 l 1xd8
EndSplineSet
EndChar

StartChar: ae
Encoding: 230 230 224
Width: 757
Flags: MW
HStem: -10 57<498 554.5> 224 51 252 52 450 59<330.5 396 330.5 399.5> 454 55<614.5 667.5>
VStem: 65 62 374 64 419 57 732 59
LayerCount: 2
Fore
SplineSet
533 47 m 0xd680
 601 47 707 56 707 56 c 1
 696 4 l 1
 696 4 592 -10 517 -10 c 0
 453 -10 412 10 392 46 c 1
 335 22 229 -10 165 -10 c 0
 77 -10 53 64 69 142 c 0
 88 240 156 274 248 288 c 0
 301 296 353 301 403 304 c 1
 419 352 447 450 352 450 c 0
 283 450 173 439 173 439 c 1
 182 496 l 1
 182 496 294 509 367 509 c 0
 425 509 469 481 476 428 c 1xb580
 519 484 580 509 649 509 c 0
 740 509 789 467 791 374 c 0
 791 341 787 307 777 271 c 2
 764 223 l 1
 450 225 l 1
 442 192 437 162 438 137 c 0
 439 80 463 47 533 47 c 0xd680
183 46 m 0
 237 46 327 72 378 90 c 1
 367 143 381 196 393 252 c 1
 333 246 283 241 241 235 c 0xb680
 184 226 146 200 132 143 c 0
 121 101 127 46 183 46 c 0
461 276 m 1
 719 274 l 1
 728 310 733 340 732 365 c 0
 731 427 699 454 636 454 c 0xce80
 549 454 491 402 461 276 c 1
EndSplineSet
EndChar

StartChar: florin
Encoding: 402 402 225
Width: 560
Flags: MW
HStem: -236 50 355 58<210 305 198 318 377 526 210 364> 622 59<471.5 518>
VStem: 28 589
LayerCount: 2
Fore
SplineSet
364 355 m 1
 263 -68 l 2
 232 -199 177 -243 93 -243 c 0
 61 -243 28 -236 28 -236 c 1
 41 -183 l 1
 41 -183 76 -186 102 -186 c 0
 150 -186 182 -155 205 -63 c 2
 305 355 l 1
 198 355 l 1
 210 413 l 1
 318 413 l 1
 332 472 l 2
 373 632 420 681 508 681 c 0
 549 681 609 674 617 672 c 1
 603 618 l 1
 603 618 532 622 504 622 c 0
 439 622 415 570 387 456 c 2
 377 413 l 1
 540 413 l 1
 526 355 l 1
 364 355 l 1
EndSplineSet
EndChar

StartChar: oe
Encoding: 339 339 226
Width: 809
Flags: MW
HStem: -10 57<219.5 292 549.5 605.5> 224 51 453 56<303.5 385>
VStem: 91 59 459 51 784 59
LayerCount: 2
Fore
SplineSet
584 47 m 0
 650 47 757 56 757 56 c 1
 748 4 l 1
 748 4 644 -10 567 -10 c 0
 486 -10 445 24 433 83 c 1
 393 19 338 -10 246 -10 c 0
 141 -10 94 27 91 111 c 0
 89 157 96 205 109 258 c 0
 149 427 214 509 368 509 c 0
 452 509 499 477 510 406 c 1
 553 479 619 509 699 509 c 0
 790 509 841 467 843 376 c 0
 844 347 840 312 830 272 c 2
 816 223 l 1
 498 225 l 1
 490 191 484 161 485 136 c 0
 486 77 515 47 584 47 c 0
258 47 m 0
 384 47 413 134 445 258 c 0
 454 298 464 342 455 385 c 0
 445 432 414 453 356 453 c 0
 251 453 202 397 170 258 c 0
 157 204 149 162 150 128 c 0
 152 72 181 47 258 47 c 0
510 276 m 1
 771 274 l 1
 780 311 784 341 784 366 c 0
 783 428 750 452 687 452 c 0
 601 452 540 402 510 276 c 1
EndSplineSet
EndChar

StartChar: daggerdbl
Encoding: 8225 8225 227
Width: 483
Flags: MW
HStem: 116 60.5 436 62
VStem: 75 475<116 498>
LayerCount: 2
Fore
SplineSet
194 -76 m 1
 239 116 l 1
 75 116 l 1
 89 177 l 1
 253 176 l 1
 314 435 l 1
 152 435 l 1
 166 498 l 1
 329 496 l 1
 375 690 l 1
 431 690 l 1
 386 498 l 1
 550 498 l 1
 535 435 l 1
 371 437 l 1
 310 177 l 1
 474 177 l 1
 459 116 l 1
 295 118 l 1
 250 -76 l 1
 194 -76 l 1
EndSplineSet
EndChar

StartChar: quotedbl
Encoding: 34 34 228
Width: 314
Flags: MW
HStem: 474 221<258 261 207 315 269 315 320 323 269 269>
VStem: 207 170
LayerCount: 2
Fore
SplineSet
323 474 m 1
 269 474 l 1
 320 695 l 1
 377 695 l 1
 323 474 l 1
261 474 m 1
 207 474 l 1
 258 695 l 1
 315 695 l 1
 261 474 l 1
EndSplineSet
EndChar

StartChar: quotesingle
Encoding: 39 39 229
Width: 168
Flags: MW
HStem: 474 221<216 219 165 273>
VStem: 165 108
LayerCount: 2
Fore
SplineSet
219 474 m 1
 165 474 l 1
 216 695 l 1
 273 695 l 1
 219 474 l 1
EndSplineSet
EndChar

StartChar: parenleft
Encoding: 40 40 230
Width: 226
Flags: MW
HStem: -124 872<108 370 108 370>
VStem: 88 62<38 261.5 38 272>
LayerCount: 2
Fore
SplineSet
312 748 m 1
 370 748 l 1
 370 748 150 414 150 109 c 0
 150 -33 164 -124 164 -124 c 1
 108 -124 l 1
 108 -124 88 -40 88 109 c 0
 88 435 312 748 312 748 c 1
EndSplineSet
Substitution2: "'case' Case-Sensitive Forms in Lateinisch lookup 4 subtable" parenleft.cap
EndChar

StartChar: parenright
Encoding: 41 41 231
Width: 225
Flags: MW
HStem: -118 872<0 262 0 262>
VStem: 220 62<368.5 592>
LayerCount: 2
Fore
SplineSet
58 -118 m 1
 0 -118 l 1
 0 -118 220 216 220 521 c 0
 220 663 206 754 206 754 c 1
 262 754 l 1
 262 754 282 670 282 521 c 0
 282 195 58 -118 58 -118 c 1
EndSplineSet
Substitution2: "'case' Case-Sensitive Forms in Lateinisch lookup 4 subtable" parenright.cap
EndChar

StartChar: comma
Encoding: 44 44 232
Width: 185
Flags: MW
HStem: -129 229<-2 158 -2 158>
VStem: -2 160
LayerCount: 2
Fore
SplineSet
47 -129 m 1
 -2 -129 l 1
 92 100 l 1
 158 100 l 1
 47 -129 l 1
EndSplineSet
EndChar

StartChar: hyphen
Encoding: 45 45 233
Width: 354
Flags: MW
HStem: 240 56<109 369 123 355>
VStem: 109 260<240 296>
LayerCount: 2
Fore
SplineSet
109 240 m 1
 123 296 l 1
 369 296 l 1
 355 240 l 1
 109 240 l 1
EndSplineSet
EndChar

StartChar: period
Encoding: 46 46 234
Width: 172
Flags: MW
HStem: 0 100<56 140 79 117>
VStem: 56 84
LayerCount: 2
Fore
SplineSet
56 0 m 1
 79 100 l 1
 140 100 l 1
 117 0 l 1
 56 0 l 1
EndSplineSet
EndChar

StartChar: colon
Encoding: 58 58 235
Width: 174
Flags: MW
HStem: 0 100<56 140 79 117> 338 100<134 218 157 195>
VStem: 56 162
LayerCount: 2
Fore
SplineSet
134 338 m 1
 157 438 l 1
 218 438 l 1
 195 338 l 1
 134 338 l 1
56 0 m 1
 79 100 l 1
 140 100 l 1
 117 0 l 1
 56 0 l 1
EndSplineSet
EndChar

StartChar: semicolon
Encoding: 59 59 236
Width: 207
Flags: MW
HStem: 338 100<154 238 177 215>
VStem: 10 228
LayerCount: 2
Fore
SplineSet
10 -129 m 1
 59 -129 l 1
 170 100 l 1
 104 100 l 1
 10 -129 l 1
154 338 m 1
 177 438 l 1
 238 438 l 1
 215 338 l 1
 154 338 l 1
EndSplineSet
EndChar

StartChar: equal
Encoding: 61 61 237
Width: 560
Flags: MW
HStem: 133 56<123 552 123 552> 312 56<123 552 123 552>
VStem: 123 429<133 189 133 189 312 368 133 368>
LayerCount: 2
Fore
SplineSet
123 312 m 1
 123 368 l 1
 552 368 l 1
 552 312 l 1
 123 312 l 1
123 133 m 1
 123 189 l 1
 552 189 l 1
 552 133 l 1
 123 133 l 1
EndSplineSet
EndChar

StartChar: question
Encoding: 63 63 238
Width: 410
Flags: MW
HStem: 1 103<146 230 168 207> 649 56<306.5 360>
VStem: 435 64<539 604>
LayerCount: 2
Fore
SplineSet
499 580 m 0
 499 479 461 442 332 340 c 0
 282 300 257 265 250 232 c 2
 242 193 l 1
 185 193 l 1
 185 193 187 222 192 248 c 0
 201 294 234 336 295 383 c 0
 401 468 435 501 435 577 c 0
 435 631 393 649 327 649 c 0
 269 649 183 630 183 630 c 1
 186 680 l 1
 186 680 274 705 339 705 c 0
 431 705 499 670 499 580 c 0
146 1 m 1
 168 104 l 1
 230 104 l 1
 207 1 l 1
 146 1 l 1
EndSplineSet
EndChar

StartChar: underscore
Encoding: 95 95 239
Width: 602
Flags: MW
HStem: -139 60<58 492 45 507>
VStem: 45 462<-139 -79>
LayerCount: 2
Fore
SplineSet
58 -79 m 1
 507 -79 l 1
 492 -139 l 1
 45 -139 l 1
 58 -79 l 1
EndSplineSet
EndChar

StartChar: braceleft
Encoding: 123 123 240
Width: 319
Flags: MW
HStem: -126 56<254 254>
VStem: 113 60<-20.5 17.5> 161 60<202.5 229>
LayerCount: 2
Fore
SplineSet
221 223 m 0xa0
 221 182 173 61 173 4 c 0
 173 -45 203 -70 269 -70 c 1
 254 -126 l 1xc0
 159 -123 113 -85 113 -13 c 0
 113 48 161 169 161 207 c 0
 161 251 138 271 88 288 c 1
 100 338 l 1
 191 362 210 392 224 460 c 0
 232 499 243 570 252 598 c 0
 285 702 342 746 461 751 c 1
 451 696 l 1
 355 691 318 648 301 569 c 0
 296 543 285 475 279 451 c 0
 260 366 229 335 158 311 c 1
 194 297 221 274 221 223 c 0xa0
EndSplineSet
Substitution2: "'case' Case-Sensitive Forms in Lateinisch lookup 4 subtable" braceleft.cap
EndChar

StartChar: braceright
Encoding: 125 125 241
Width: 318
Flags: MW
HStem: 693 56<208 208 208 226>
VStem: 241 60<394 420.5> 289 60<605.5 643.5>
LayerCount: 2
Fore
SplineSet
241 400 m 0xc0
 241 441 289 562 289 619 c 0
 289 668 259 693 193 693 c 1
 208 749 l 1xa0
 303 746 349 708 349 636 c 0
 349 575 301 454 301 416 c 0
 301 372 324 352 374 335 c 1
 362 285 l 1
 271 261 252 231 238 163 c 0
 230 124 219 53 210 25 c 0
 177 -79 120 -123 1 -128 c 1
 11 -73 l 1
 107 -68 144 -25 161 54 c 0
 166 80 177 148 183 172 c 0
 202 257 233 288 304 312 c 1
 268 326 241 349 241 400 c 0xc0
EndSplineSet
Substitution2: "'case' Case-Sensitive Forms in Lateinisch lookup 4 subtable" braceright.cap
EndChar

StartChar: cent
Encoding: 162 162 242
Width: 560
Flags: MW
HStem: 41 54<339 347.5 267 359> 405 180<415 417>
VStem: 158 62
LayerCount: 2
Fore
SplineSet
258 -82 m 1
 287 38 l 1
 152 40 144 144 170 248 c 0
 206 387 283 458 386 461 c 1
 415 585 l 1
 467 585 l 1
 437 461 l 1
 479 459 535 451 535 451 c 1
 519 397 l 1
 519 397 435 405 399 405 c 0
 308 405 254 345 230 248 c 0
 209 162 208 95 326 95 c 0
 369 95 454 102 454 102 c 1
 442 49 l 1
 442 49 379 41 339 41 c 1
 310 -82 l 1
 258 -82 l 1
EndSplineSet
EndChar

StartChar: quoteleft
Encoding: 8216 8216 243
Width: 182
Flags: MW
HStem: 479 215<152 302 152 302>
VStem: 152 150
LayerCount: 2
Fore
SplineSet
256 694 m 1
 302 694 l 1
 214 479 l 1
 152 479 l 1
 256 694 l 1
EndSplineSet
EndChar

StartChar: quoteright
Encoding: 8217 8217 244
Width: 182
Flags: MW
HStem: 480 215<154 304 154 304>
VStem: 154 150
LayerCount: 2
Fore
SplineSet
200 480 m 1
 154 480 l 1
 242 695 l 1
 304 695 l 1
 200 480 l 1
EndSplineSet
EndChar

StartChar: divide
Encoding: 247 247 245
Width: 560
Flags: MW
HStem: 33 93<307 368 307 368> 263 59<155 521 155 521> 335 90<266 410 266 410>
VStem: 266 144<335 425 335 425> 307 61<33 126 33 126>
LayerCount: 2
Fore
SplineSet
155 263 m 1xc8
 155 322 l 1
 521 322 l 1
 521 263 l 1
 155 263 l 1xc8
266 335 m 1xf0
 266 425 l 1
 410 425 l 1
 410 335 l 1
 266 335 l 1xf0
307 33 m 1xc8
 307 126 l 1
 368 126 l 1
 368 33 l 1
 307 33 l 1xc8
EndSplineSet
EndChar

StartChar: Euro
Encoding: 8364 8364 246
Width: 560
Flags: MW
HStem: -10 54<296 369.5> 216 50<114 152 102 157 217 496> 381 50<152 181 140 198 152 243 261 533> 618 53<429 515>
VStem: 151 61<135 185.5> 157 60<266 266>
LayerCount: 2
Fore
SplineSet
495 60 m 1xf8
 492 11 l 1
 492 11 407 -10 332 -10 c 0
 211 -10 151 56 151 180 c 0
 151 191 151 204 152 216 c 1
 102 216 l 1
 114 266 l 1xf8
 157 266 l 1
 162 304 169 343 181 381 c 1
 140 381 l 1
 152 431 l 1
 198 431 l 1
 248 562 341 671 483 671 c 0
 558 671 640 650 640 650 c 1
 627 602 l 1
 627 602 550 618 480 618 c 0
 378 618 305 536 261 431 c 1
 544 431 l 1
 533 381 l 1
 243 381 l 1
 231 343 222 304 217 266 c 1xf4
 507 266 l 1
 496 216 l 1
 213 216 l 1
 212 204 212 193 212 182 c 0
 212 88 251 44 341 44 c 0
 416 44 495 60 495 60 c 1xf8
EndSplineSet
EndChar

StartChar: ampersand
Encoding: 38 38 247
Width: 633
Flags: MW
HStem: -10 54<229.5 306.5 229.5 310> -6 21G<589 589> 653 52<402.5 466.5>
VStem: 78 63<112.5 203.5 112.5 215> 260 62<487.5 547.5 487 568.5> 518 62<545 609.5>
LayerCount: 2
Fore
SplineSet
446 705 m 0xbc
 528 705 580 671 580 589 c 0
 580 482 510 414 379 365 c 1
 498 200 l 1
 519 234 544 287 560 338 c 1
 619 338 l 1
 599 271 563 201 533 157 c 1
 631 32 l 1
 589 -6 l 1x7c
 496 113 l 1
 432 32 358 -10 262 -10 c 0
 133 -10 78 42 78 147 c 0
 78 283 139 355 286 410 c 1
 269 445 260 468 260 507 c 0
 260 630 330 705 446 705 c 0xbc
269 44 m 0
 344 44 414 84 463 155 c 1
 311 368 l 1
 183 321 141 256 141 151 c 0
 141 74 190 44 269 44 c 0
322 506 m 0
 322 468 333 435 354 404 c 1
 472 451 518 504 518 586 c 0
 518 633 490 653 443 653 c 0
 362 653 322 589 322 506 c 0
EndSplineSet
EndChar

StartChar: asterisk
Encoding: 42 42 248
Width: 411
Flags: MW
HStem: 514 44<356 488 356 488 354 488>
VStem: 177 311<458 514>
LayerCount: 2
Fore
SplineSet
488 514 m 1
 354 514 l 1
 395 387 l 1
 353 374 l 1
 311 502 l 1
 203 423 l 1
 177 458 l 1
 286 537 l 1
 178 616 l 1
 205 652 l 1
 313 573 l 1
 354 700 l 1
 397 686 l 1
 356 558 l 1
 488 558 l 1
 488 514 l 1
EndSplineSet
EndChar

StartChar: sterling
Encoding: 163 163 249
Width: 560
Flags: MW
HStem: 0 53<93 189 251 398 81 189> 362 53<198 259 185 272 333 524 198 320> 625 54<425 493> 664 21G<603 603>
VStem: 81 522
LayerCount: 2
Fore
SplineSet
603 664 m 1xd8
 590 617 l 1
 590 617 519 625 467 625 c 0
 383 625 368 559 345 464 c 2
 333 415 l 1
 536 415 l 1
 524 362 l 1
 320 362 l 1
 251 53 l 1
 401 53 l 1
 478 70 l 1
 478 18 l 1
 398 0 l 1
 81 0 l 1
 93 53 l 1
 189 53 l 1
 259 362 l 1
 185 362 l 1
 198 415 l 1
 272 415 l 1
 284 471 l 2
 315 600 348 679 471 679 c 0xe8
 525 679 603 664 603 664 c 1xd8
EndSplineSet
EndChar

StartChar: paragraph
Encoding: 182 182 250
Width: 554
Flags: MW
HStem: 0 21G<209 261 209 209 384 436 384 384> 646 54<416 538 416 416 590 590 590 668>
VStem: 147 532<440.5 700>
LayerCount: 2
Fore
SplineSet
384 0 m 1
 538 646 l 1
 416 646 l 1
 261 0 l 1
 209 0 l 1
 291 338 l 1
 187 339 147 405 147 476 c 0
 147 580 238 700 369 700 c 2
 679 700 l 1
 668 646 l 1
 590 646 l 1
 436 0 l 1
 384 0 l 1
EndSplineSet
EndChar

StartChar: dagger
Encoding: 8224 8224 251
Width: 442
Flags: MW
HStem: 436 62
VStem: 129 398<435 498>
LayerCount: 2
Fore
SplineSet
129 435 m 1
 143 498 l 1
 306 496 l 1
 352 690 l 1
 408 690 l 1
 364 498 l 1
 527 498 l 1
 513 435 l 1
 348 437 l 1
 227 -76 l 1
 172 -76 l 1
 291 435 l 1
 129 435 l 1
EndSplineSet
EndChar

StartChar: percent
Encoding: 37 37 252
Width: 560
Flags: MW
HStem: -5 21G<210 210> 0 44<404.5 446 404.5 447> 233 44<451.5 493> 469 189<229.5 318> 694 21G<554 554> 702 21G<275.5 340.5>
VStem: 210 128 334 51 513 52
LayerCount: 2
Fore
SplineSet
297 658 m 0xba80
 339 658 346 627 330 565 c 0
 315 502 292 469 250 469 c 0
 209 469 202 503 217 566 c 0
 233 627 256 658 297 658 c 0xba80
166 6 m 1
 510 706 l 1
 554 694 l 1
 210 -5 l 1
 166 6 l 1
167 566 m 0
 143 469 174 425 239 425 c 0
 304 425 357 469 381 565 c 0
 405 661 373 702 308 702 c 0x7580
 243 702 191 661 167 566 c 0
342 141 m 0x6580
 366 236 417 277 483 277 c 0
 548 277 581 236 557 140 c 0
 533 44 479 0 415 0 c 0
 350 0 318 44 342 141 c 0x6580
393 141 m 0
 377 77 384 44 425 44 c 0
 467 44 490 77 506 140 c 0
 521 202 514 233 472 233 c 0
 431 233 408 202 393 141 c 0
EndSplineSet
EndChar

StartChar: plus
Encoding: 43 43 253
Width: 560
Flags: MW
HStem: 223 56<114 308 114 308 365 561>
VStem: 308 57<20 223 20 223 279 480>
LayerCount: 2
Fore
SplineSet
114 223 m 1
 114 279 l 1
 308 279 l 1
 308 480 l 1
 365 480 l 1
 365 279 l 1
 561 279 l 1
 561 223 l 1
 365 223 l 1
 365 20 l 1
 308 20 l 1
 308 223 l 1
 114 223 l 1
EndSplineSet
EndChar

StartChar: asciicircum
Encoding: 94 94 254
Width: 560
Flags: MW
HStem: 320 340<131 370 131 370 315 561 315 496>
VStem: 131 430<320 320>
LayerCount: 2
Fore
SplineSet
496 320 m 1
 343 600 l 1
 196 320 l 1
 131 320 l 1
 315 660 l 1
 370 660 l 1
 561 320 l 1
 496 320 l 1
EndSplineSet
EndChar

StartChar: quotedblright
Encoding: 8221 8221 255
Width: 332
Flags: MW
HStem: 480 215<154 304 154 304 242 304 242 350>
VStem: 154 300<480 695>
LayerCount: 2
Fore
SplineSet
200 480 m 1
 154 480 l 1
 242 695 l 1
 304 695 l 1
 200 480 l 1
350 480 m 1
 304 480 l 1
 392 695 l 1
 454 695 l 1
 350 480 l 1
EndSplineSet
EndChar

StartChar: zerosuperior
Encoding: 8304 8304 256
Width: 280
Flags: MW
HStem: 468 50<237.5 259.5> 750 49<311 335.5>
VStem: 158 56 357 56
LayerCount: 2
Fore
SplineSet
326 799 m 0
 397 799 433 758 402 634 c 0
 384 563 360 517 328 493 c 0
 303 474 275 468 244 468 c 0
 173 468 138 511 169 635 c 0
 187 706 212 751 244 775 c 0
 267 794 296 799 326 799 c 0
314 750 m 0
 272 750 246 720 224 634 c 0
 201 544 218 518 257 518 c 0
 296 518 324 544 347 635 c 0
 368 718 357 750 314 750 c 0
EndSplineSet
Substitution2: "Single Substitution lookup 5 subtable" zeroinferior
EndChar

StartChar: onesuperior
Encoding: 185 185 257
Width: 280
Flags: MW
HStem: 478 312<243 374 243 374>
VStem: 205 169<721 790>
LayerCount: 2
Fore
SplineSet
205 721 m 1
 323 790 l 1
 374 790 l 1
 297 478 l 1
 243 478 l 1
 306 731 l 1
 220 681 l 1
 205 721 l 1
EndSplineSet
Substitution2: "Single Substitution lookup 5 subtable" oneinferior
EndChar

StartChar: twosuperior
Encoding: 178 178 258
Width: 280
Flags: MW
HStem: 478 49<225 347> 748 51<304 317>
VStem: 143 261
LayerCount: 2
Fore
SplineSet
347 478 m 1
 143 478 l 1
 155 526 l 1
 270 619 l 2
 308 649 336 673 344 707 c 0
 352 737 332 748 302 748 c 0
 271 748 213 738 213 738 c 1
 223 787 l 1
 223 787 283 799 325 799 c 0
 391 799 415 771 400 711 c 0
 388 664 357 633 308 595 c 2
 225 527 l 1
 359 527 l 1
 347 478 l 1
EndSplineSet
Substitution2: "Single Substitution lookup 5 subtable" twoinferior
EndChar

StartChar: threesuperior
Encoding: 179 179 259
Width: 280
Flags: MW
HStem: 468 50<233 275 233 281> 614 47<229 283 218 294> 750 49<303.5 327.5>
VStem: 350 60
LayerCount: 2
Fore
SplineSet
222 789 m 1
 222 789 282 799 325 799 c 0
 394 799 421 774 407 717 c 0
 394 664 350 644 345 641 c 1
 374 631 390 618 377 564 c 0
 361 498 314 468 248 468 c 0
 199 468 141 479 141 479 c 1
 156 526 l 1
 156 526 210 518 256 518 c 0
 294 518 315 537 322 565 c 0
 332 603 313 614 283 614 c 2
 218 614 l 1
 229 661 l 1
 294 661 l 2
 314 661 343 683 350 712 c 0
 356 737 346 750 309 750 c 0
 265 750 214 742 214 742 c 1
 222 789 l 1
EndSplineSet
Substitution2: "Single Substitution lookup 5 subtable" threeinferior
EndChar

StartChar: foursuperior
Encoding: 8308 8308 260
Width: 280
Flags: MW
HStem: 529 50<219 291 219 345 357 375>
VStem: 148 239<529 579>
LayerCount: 2
Fore
SplineSet
279 478 m 1
 291 529 l 1
 148 529 l 1
 160 575 l 1
 290 790 l 1
 349 790 l 1
 219 579 l 1
 303 579 l 1
 329 666 l 1
 379 666 l 1
 357 579 l 1
 387 579 l 1
 375 529 l 1
 345 529 l 1
 332 478 l 1
 279 478 l 1
EndSplineSet
Substitution2: "Single Substitution lookup 5 subtable" fourinferior
EndChar

StartChar: fivesuperior
Encoding: 8309 8309 261
Width: 280
Flags: MW
HStem: 469 49<236.5 272.5 236.5 281> 628 48<293 305> 741 49<274 410 274 274>
VStem: 327 59
LayerCount: 2
Fore
SplineSet
239 790 m 1
 421 790 l 1
 410 741 l 1
 274 741 l 1
 247 658 l 1
 247 658 275 676 311 676 c 0
 364 676 399 649 382 577 c 0
 361 497 313 469 249 469 c 0
 202 469 148 482 148 482 c 1
 165 529 l 1
 165 529 216 518 257 518 c 0
 288 518 315 537 324 576 c 0
 335 616 319 628 291 628 c 0
 259 628 228 610 228 610 c 1
 186 615 l 1
 239 790 l 1
EndSplineSet
Substitution2: "Single Substitution lookup 5 subtable" fiveinferior
EndChar

StartChar: sixsuperior
Encoding: 8310 8310 262
Width: 280
Flags: MW
HStem: 468 49<240 281.5 240 286.5> 635 47<298 312> 751 48<307 347>
VStem: 165 56 335 56
LayerCount: 2
Fore
SplineSet
424 790 m 1
 410 744 l 1
 410 744 365 751 329 751 c 0
 285 751 257 727 241 666 c 1
 259 673 287 682 309 682 c 0
 379 682 402 643 386 580 c 0
 368 507 323 468 250 468 c 0
 176 468 148 520 176 632 c 0
 207 754 258 799 341 799 c 0
 378 799 424 790 424 790 c 1
292 635 m 0
 261 635 228 617 228 616 c 0
 213 554 219 517 261 517 c 0
 302 517 322 544 331 579 c 0
 341 620 332 635 292 635 c 0
EndSplineSet
Substitution2: "Single Substitution lookup 5 subtable" sixinferior
EndChar

StartChar: sevensuperior
Encoding: 8311 8311 263
Width: 280
Flags: MW
HStem: 738 52<203 418 216 343>
VStem: 171 247
LayerCount: 2
Fore
SplineSet
203 738 m 1
 216 790 l 1
 418 790 l 1
 400 719 l 1
 231 469 l 1
 171 483 l 1
 338 716 l 1
 343 738 l 1
 203 738 l 1
EndSplineSet
Substitution2: "Single Substitution lookup 5 subtable" seveninferior
EndChar

StartChar: eightsuperior
Encoding: 8312 8312 264
Width: 280
Flags: MW
HStem: 468 47<237.5 276 237.5 279.5> 617 46<278 297 267 308> 753 46<294.5 336>
VStem: 147 243 191 57 362 59
LayerCount: 2
Fore
SplineSet
327 799 m 0xec
 401 799 432 771 418 715 c 0xec
 408 672 386 650 351 641 c 1
 379 632 398 614 386 565 c 0
 366 488 315 468 244 468 c 0
 176 468 134 493 151 561 c 0xf0
 164 612 193 631 225 642 c 1
 199 652 184 671 194 716 c 0
 209 775 253 799 327 799 c 0xec
256 515 m 0
 296 515 321 529 330 565 c 0
 337 596 326 608 297 617 c 1
 267 617 l 1
 234 608 215 596 207 562 c 0
 199 529 219 515 256 515 c 0
315 753 m 0
 274 753 255 739 248 712 c 0
 242 684 251 673 278 663 c 1
 308 663 l 1
 342 673 356 684 362 711 c 0
 369 739 357 753 315 753 c 0
EndSplineSet
Substitution2: "Single Substitution lookup 5 subtable" eightinferior
EndChar

StartChar: ninesuperior
Encoding: 8313 8313 265
Width: 280
Flags: MW
HStem: 468 50<223.5 267 223.5 277.5> 587 46<263.5 277.5> 751 48<296 334.5>
VStem: 354 54
LayerCount: 2
Fore
SplineSet
148 479 m 1
 163 524 l 1
 163 524 205 518 242 518 c 0
 292 518 319 546 334 601 c 1
 334 601 293 587 262 587 c 0
 199 587 171 627 188 692 c 0
 204 761 256 799 324 799 c 0
 401 799 425 744 397 632 c 0
 367 510 322 468 233 468 c 0
 193 468 148 479 148 479 c 1
280 633 m 0
 307 633 347 650 347 650 c 1
 362 714 356 751 313 751 c 0
 279 751 253 731 243 692 c 0
 235 658 247 633 280 633 c 0
EndSplineSet
Substitution2: "Single Substitution lookup 5 subtable" nineinferior
EndChar

StartChar: questiondown
Encoding: 191 191 266
Width: 401
Flags: MW
HStem: -204 56<162 215.5> 397 103<315 354 292 376>
VStem: 23 64<-103 -38 -103 -28.5>
LayerCount: 2
Fore
SplineSet
23 -79 m 0
 23 22 61 59 190 161 c 0
 240 201 265 236 272 269 c 2
 280 308 l 1
 337 308 l 1
 337 308 335 279 330 253 c 0
 321 207 288 165 227 118 c 0
 121 33 87 0 87 -76 c 0
 87 -130 129 -148 195 -148 c 0
 253 -148 339 -129 339 -129 c 1
 336 -179 l 1
 336 -179 248 -204 183 -204 c 0
 91 -204 23 -169 23 -79 c 0
376 500 m 1
 354 397 l 1
 292 397 l 1
 315 500 l 1
 376 500 l 1
EndSplineSet
Substitution2: "'case' Case-Sensitive Forms in Lateinisch lookup 4 subtable" questiondown.cap
EndChar

StartChar: questiondown.cap
Encoding: 65550 -1 267
Width: 396
Flags: MW
HStem: -5 56<204 257.5> 487 20G<322 379 379 379> 596 103<357 396 334 418>
VStem: 65 64<96 161 96 170.5>
LayerCount: 2
Fore
SplineSet
65 120 m 0
 65 221 103 258 232 360 c 0
 282 400 307 435 314 468 c 2
 322 507 l 1
 379 507 l 1
 379 507 377 478 372 452 c 0
 363 406 330 364 269 317 c 0
 163 232 129 199 129 123 c 0
 129 69 171 51 237 51 c 0
 295 51 381 70 381 70 c 1
 378 20 l 1
 378 20 290 -5 225 -5 c 0
 133 -5 65 30 65 120 c 0
418 699 m 1
 396 596 l 1
 334 596 l 1
 357 699 l 1
 418 699 l 1
EndSplineSet
EndChar

StartChar: ellipsis
Encoding: 8230 8230 268
Width: 647
Flags: MW
HStem: 0 100<57 141 80 118 318 356 553 591>
VStem: 57 557<0 100>
LayerCount: 2
Fore
SplineSet
57 0 m 1
 80 100 l 1
 141 100 l 1
 118 0 l 1
 57 0 l 1
295 0 m 1
 318 100 l 1
 379 100 l 1
 356 0 l 1
 295 0 l 1
530 0 m 1
 553 100 l 1
 614 100 l 1
 591 0 l 1
 530 0 l 1
EndSplineSet
EndChar

StartChar: endash.cap
Encoding: 65551 -1 269
Width: 611
Flags: MW
HStem: 271 54<124 624 124 624>
VStem: 124 500<271 325 271 325>
LayerCount: 2
Fore
SplineSet
124 325 m 1
 624 325 l 1
 624 271 l 1
 124 271 l 1
 124 325 l 1
EndSplineSet
Position2: "'cpsp' Capital Spacing in Lateinisch lookup 0 subtable" dx=5 dy=0 dh=10 dv=0
EndChar

StartChar: emdash.cap
Encoding: 65552 -1 270
Width: 1111
Flags: MW
HStem: 271 54<124 1124 124 1124>
VStem: 124 1000<271 325 271 325>
LayerCount: 2
Fore
SplineSet
124 325 m 1
 1124 325 l 1
 1124 271 l 1
 124 271 l 1
 124 325 l 1
EndSplineSet
Position2: "'cpsp' Capital Spacing in Lateinisch lookup 0 subtable" dx=5 dy=0 dh=10 dv=0
EndChar

StartChar: periodcentered
Encoding: 183 183 271
Width: 174
Flags: MW
HStem: 254 105<114 200 137 177>
VStem: 114 86
LayerCount: 2
Fore
SplineSet
114 254 m 1
 137 359 l 1
 200 359 l 1
 177 254 l 1
 114 254 l 1
EndSplineSet
Substitution2: "'case' Case-Sensitive Forms in Lateinisch lookup 4 subtable" periodcentered.cap
EndChar

StartChar: periodcentered.cap
Encoding: 65553 -1 272
Width: 174
Flags: MW
HStem: 287 104<122 207 145 184>
VStem: 122 85
LayerCount: 2
Fore
SplineSet
122 287 m 1
 145 391 l 1
 207 391 l 1
 184 287 l 1
 122 287 l 1
EndSplineSet
Position2: "'cpsp' Capital Spacing in Lateinisch lookup 0 subtable" dx=5 dy=0 dh=10 dv=0
EndChar

StartChar: currency
Encoding: 164 164 273
Width: 560
Flags: MW
HStem: 75 58 370 58
VStem: 160 59 456 57
LayerCount: 2
Fore
SplineSet
510 37 m 1
 439 108 l 1
 378 64 296 64 235 108 c 1
 165 37 l 1
 123 80 l 1
 193 149 l 1
 149 210 149 293 193 354 c 1
 123 424 l 1
 165 467 l 1
 235 396 l 1
 296 439 378 439 439 396 c 1
 510 467 l 1
 552 424 l 1
 481 353 l 1
 524 292 524 210 481 150 c 1
 552 80 l 1
 510 37 l 1
253 167 m 0
 299 122 376 122 422 167 c 0
 467 214 467 290 422 336 c 0
 376 382 299 382 253 336 c 0
 207 290 207 214 253 167 c 0
EndSplineSet
EndChar

StartChar: perthousand
Encoding: 8240 8240 274
Width: 812
Flags: MW
HStem: -5 21G<202 202> 0 44<402.5 444 402.5 445 660.5 702> 233 44<449.5 491 707.5 749> 468 189<226.5 315> 694 21G<563 563> 701 21G<272 337.5>
VStem: 207 128 332 51 511 52 590 51 769 52
LayerCount: 2
Fore
SplineSet
294 657 m 0x9a
 336 657 343 627 328 564 c 0
 312 502 289 468 247 468 c 0
 206 468 199 502 215 565 c 0
 230 627 253 657 294 657 c 0x9a
159 5 m 1
 520 706 l 1
 563 694 l 1
 202 -5 l 1
 159 5 l 1
164 565 m 0
 140 468 171 424 236 424 c 0
 300 424 354 468 378 564 c 0
 402 660 370 701 305 701 c 0x15
 239 701 188 660 164 565 c 0
340 141 m 0x6180
 364 236 416 277 481 277 c 0
 546 277 579 236 555 140 c 0
 531 44 477 0 413 0 c 0
 348 0 316 44 340 141 c 0x6180
391 141 m 0
 375 77 382 44 423 44 c 0
 465 44 488 77 504 140 c 0
 520 202 512 233 470 233 c 0
 429 233 407 202 391 141 c 0
598 141 m 0x6060
 622 236 673 277 739 277 c 0
 804 277 837 236 813 140 c 0
 789 44 735 0 671 0 c 0
 606 0 574 44 598 141 c 0x6060
649 141 m 0
 633 77 640 44 681 44 c 0
 723 44 746 77 762 140 c 0
 777 202 770 233 728 233 c 0
 687 233 664 202 649 141 c 0
EndSplineSet
EndChar

StartChar: lessequal
Encoding: 8804 8804 275
Width: 560
Flags: MW
HStem: 23 55<111 534 111 534>
VStem: 111 423<23 78 23 78 23 342 23 342>
LayerCount: 2
Fore
SplineSet
534 431 m 1
 183 316 l 1
 534 191 l 1
 534 130 l 1
 111 286 l 1
 111 342 l 1
 534 493 l 1
 534 431 l 1
111 23 m 1
 111 78 l 1
 534 78 l 1
 534 23 l 1
 111 23 l 1
EndSplineSet
EndChar

StartChar: greaterequal
Encoding: 8805 8805 276
Width: 560
Flags: MW
HStem: 23 55<126 549 126 549>
VStem: 126 423<23 78 23 78 23 191 23 191 23 493 23 493>
LayerCount: 2
Fore
SplineSet
477 316 m 1
 126 431 l 1
 126 493 l 1
 549 342 l 1
 549 286 l 1
 126 130 l 1
 126 191 l 1
 477 316 l 1
549 78 m 1
 549 23 l 1
 126 23 l 1
 126 78 l 1
 549 78 l 1
EndSplineSet
EndChar

StartChar: logicalnot
Encoding: 172 172 277
Width: 560
Flags: MW
HStem: 283 55<126 494 126 551>
VStem: 494 57<120 283 283 283>
LayerCount: 2
Fore
SplineSet
126 338 m 1
 551 338 l 1
 551 120 l 1
 494 120 l 1
 494 283 l 1
 126 283 l 1
 126 338 l 1
EndSplineSet
EndChar

StartChar: Delta
Encoding: 8710 8710 278
Width: 560
Flags: MW
HStem: 0 54<149 470 149 534> 606 54<297 322 297 297>
VStem: 86 448<0 45 0 45>
LayerCount: 2
Fore
SplineSet
86 45 m 1
 253 660 l 1
 366 660 l 1
 534 45 l 1
 534 0 l 1
 86 0 l 1
 86 45 l 1
322 606 m 1
 297 606 l 1
 149 54 l 1
 470 54 l 1
 322 606 l 1
EndSplineSet
EndChar

StartChar: Omega
Encoding: 8486 8486 279
Width: 560
Flags: MW
HStem: -9 54<95 226 95 288 95 226 435 567> 615 55<263.5 397.5>
VStem: 114 64<307.5 443 303.5 471.5> 484 64<307.5 443>
LayerCount: 2
Fore
SplineSet
95 45 m 1
 226 45 l 1
 226 45 114 241 114 374 c 0
 114 569 158 670 331 670 c 0
 504 670 548 569 548 374 c 0
 548 241 435 45 435 45 c 1
 567 45 l 1
 567 -9 l 1
 373 -9 l 1
 373 37 l 1
 373 37 484 250 484 357 c 0
 484 529 464 615 331 615 c 0
 196 615 178 529 178 357 c 0
 178 250 288 37 288 37 c 1
 288 -9 l 1
 95 -9 l 1
 95 45 l 1
EndSplineSet
EndChar

StartChar: oslashacute
Encoding: 511 511 280
Width: 494
Flags: MW
HStem: -10 53<247.5 317 247.5 336.5> 457 52<288 356.5>
VStem: 94 60<133 228.5 133 245> 452 61<264.5 359>
LayerCount: 2
Fore
SplineSet
345 509 m 0
 380 509 409 503 434 492 c 1
 503 604 l 1
 541 588 l 1
 467 471 l 1
 497 443 513 401 513 344 c 0
 513 154 415 -10 258 -10 c 0
 225 -10 197 -6 174 3 c 1
 103 -112 l 1
 65 -96 l 1
 140 23 l 1
 109 49 94 90 94 148 c 0
 94 342 198 509 345 509 c 0
174 76 m 1
 289 258 l 1
 404 443 l 1
 388 452 368 457 345 457 c 0
 231 457 154 309 154 148 c 0
 154 118 160 94 174 76 c 1
258 43 m 0
 376 43 452 184 452 345 c 0
 452 373 446 398 433 417 c 1
 321 240 l 1
 205 53 l 1
 219 46 237 43 258 43 c 0
298 601 m 1
 292 647 l 1
 510 741 l 1
 517 688 l 1
 298 601 l 1
EndSplineSet
EndChar

StartChar: exclamdown
Encoding: 161 161 281
Width: 182
Flags: MW
HStem: 400 100<173 211 150 234>
VStem: 15 219
LayerCount: 2
Fore
SplineSet
184 277 m 1
 75 -200 l 1
 15 -200 l 1
 131 277 l 1
 184 277 l 1
234 500 m 1
 211 400 l 1
 150 400 l 1
 173 500 l 1
 234 500 l 1
EndSplineSet
Substitution2: "'case' Case-Sensitive Forms in Lateinisch lookup 4 subtable" exclamdown.cap
EndChar

StartChar: exclamdown.cap
Encoding: 65554 -1 282
Width: 195
Flags: MW
HStem: -5 21G<67 127 67 67> 595 100<225 263 202 286>
VStem: 67 219
LayerCount: 2
Fore
SplineSet
236 472 m 1
 127 -5 l 1
 67 -5 l 1
 183 472 l 1
 236 472 l 1
286 695 m 1
 263 595 l 1
 202 595 l 1
 225 695 l 1
 286 695 l 1
EndSplineSet
EndChar

StartChar: quotesinglbase
Encoding: 8218 8218 283
Width: 178
Flags: MW
HStem: -127 215<-2 148 -2 148>
VStem: -2 150
LayerCount: 2
Fore
SplineSet
44 -127 m 1
 -2 -127 l 1
 86 88 l 1
 148 88 l 1
 44 -127 l 1
EndSplineSet
EndChar

StartChar: parenleft.cap
Encoding: 65555 -1 284
Width: 224
Flags: MW
HStem: -94 872<115 377 115 377>
VStem: 95 62<68 291.5 68 302>
LayerCount: 2
Fore
SplineSet
319 778 m 1
 377 778 l 1
 377 778 157 444 157 139 c 0
 157 -3 171 -94 171 -94 c 1
 115 -94 l 1
 115 -94 95 -10 95 139 c 0
 95 465 319 778 319 778 c 1
EndSplineSet
Position2: "'cpsp' Capital Spacing in Lateinisch lookup 0 subtable" dx=5 dy=0 dh=10 dv=0
EndChar

StartChar: parenright.cap
Encoding: 65556 -1 285
Width: 226
Flags: MW
HStem: -88 872<8 270 8 270>
VStem: 228 62<398.5 622>
LayerCount: 2
Fore
SplineSet
66 -88 m 1
 8 -88 l 1
 8 -88 228 246 228 551 c 0
 228 693 214 784 214 784 c 1
 270 784 l 1
 270 784 290 700 290 551 c 0
 290 225 66 -88 66 -88 c 1
EndSplineSet
Position2: "'cpsp' Capital Spacing in Lateinisch lookup 0 subtable" dx=5 dy=0 dh=10 dv=0
EndChar

StartChar: bracketleft.cap
Encoding: 65557 -1 286
Width: 284
Flags: MW
HStem: -92 53<114 227> 724 53<293 420 293 293>
VStem: 41 391
LayerCount: 2
Fore
SplineSet
245 777 m 1
 432 777 l 1
 420 724 l 1
 293 724 l 1
 114 -39 l 1
 241 -39 l 1
 227 -92 l 1
 41 -92 l 1
 245 777 l 1
EndSplineSet
Position2: "'cpsp' Capital Spacing in Lateinisch lookup 0 subtable" dx=5 dy=0 dh=10 dv=0
EndChar

StartChar: bracketright.cap
Encoding: 65558 -1 287
Width: 282
Flags: MW
HStem: -91 53<21 148 21 196 9 148> 725 53<214 327 200 400>
VStem: 9 391
LayerCount: 2
Fore
SplineSet
196 -91 m 1
 9 -91 l 1
 21 -38 l 1
 148 -38 l 1
 327 725 l 1
 200 725 l 1
 214 778 l 1
 400 778 l 1
 196 -91 l 1
EndSplineSet
Position2: "'cpsp' Capital Spacing in Lateinisch lookup 0 subtable" dx=5 dy=0 dh=10 dv=0
EndChar

StartChar: braceleft.cap
Encoding: 65559 -1 288
Width: 319
Flags: MW
HStem: -96 56<261 261>
VStem: 120 60<9.5 47.5> 168 60<232.5 259>
LayerCount: 2
Fore
SplineSet
228 253 m 0xa0
 228 212 180 91 180 34 c 0
 180 -15 210 -40 276 -40 c 1
 261 -96 l 1xc0
 166 -93 120 -55 120 17 c 0
 120 78 168 199 168 237 c 0
 168 281 145 301 95 318 c 1
 107 368 l 1
 198 392 217 422 231 490 c 0
 239 529 250 600 259 628 c 0
 292 732 349 776 468 781 c 1
 458 726 l 1
 362 721 325 678 308 599 c 0
 303 573 292 505 286 481 c 0
 267 396 236 365 165 341 c 1
 201 327 228 304 228 253 c 0xa0
EndSplineSet
Position2: "'cpsp' Capital Spacing in Lateinisch lookup 0 subtable" dx=5 dy=0 dh=10 dv=0
EndChar

StartChar: braceright.cap
Encoding: 65560 -1 289
Width: 320
Flags: MW
HStem: 723 56<216 216 216 234>
VStem: 249 60<424 450.5> 297 60<635.5 673.5>
LayerCount: 2
Fore
SplineSet
249 430 m 0xc0
 249 471 297 592 297 649 c 0
 297 698 267 723 201 723 c 1
 216 779 l 1xa0
 311 776 357 738 357 666 c 0
 357 605 309 484 309 446 c 0
 309 402 332 382 382 365 c 1
 370 315 l 1
 279 291 260 261 246 193 c 0
 238 154 227 83 218 55 c 0
 185 -49 128 -93 9 -98 c 1
 19 -43 l 1
 115 -38 152 5 169 84 c 0
 174 110 185 178 191 202 c 0
 210 287 241 318 312 342 c 1
 276 356 249 379 249 430 c 0xc0
EndSplineSet
Position2: "'cpsp' Capital Spacing in Lateinisch lookup 0 subtable" dx=5 dy=0 dh=10 dv=0
EndChar

StartChar: grave.cap
Encoding: 65561 -1 290
Width: 484
Flags: MW
HStem: 787 138
VStem: 335 204<830 875>
LayerCount: 2
Fore
SplineSet
364 925 m 1
 539 830 l 1
 513 787 l 1
 335 875 l 1
 364 925 l 1
EndSplineSet
EndChar

StartChar: caron.cap
Encoding: 65562 -1 291
Width: 433
Flags: MW
HStem: 796 134<281 415 281 379>
VStem: 281 290<930 930>
LayerCount: 2
Fore
SplineSet
571 930 m 1
 415 796 l 1
 379 796 l 1
 281 930 l 1
 340 930 l 1
 405 841 l 1
 508 930 l 1
 571 930 l 1
EndSplineSet
EndChar

StartChar: tilde.cap
Encoding: 65563 -1 292
Width: 427
Flags: MW
HStem: 816 53<490 509.5> 875 52<348.5 369.5>
VStem: 264 325<868 875>
LayerCount: 2
Fore
SplineSet
586 917 m 1
 589 875 l 1
 589 875 526 816 493 816 c 0xa0
 450 816 385 875 354 875 c 0
 333 875 266 824 266 824 c 1
 264 868 l 1
 264 868 331 927 366 927 c 0x60
 413 927 475 869 505 869 c 0
 524 869 586 917 586 917 c 1
EndSplineSet
EndChar

StartChar: dieresis.cap
Encoding: 65564 -1 293
Width: 381
Flags: MW
HStem: 820 83<292 360 310 340 496 525>
VStem: 292 253<820 903>
LayerCount: 2
Fore
SplineSet
292 820 m 1
 310 903 l 1
 360 903 l 1
 340 820 l 1
 292 820 l 1
476 820 m 1
 496 903 l 1
 545 903 l 1
 525 820 l 1
 476 820 l 1
EndSplineSet
EndChar

StartChar: macron.cap
Encoding: 65565 -1 294
Width: 433
Flags: MW
HStem: 828 46<267 563 277 551>
VStem: 267 296<828 874>
LayerCount: 2
Fore
SplineSet
267 828 m 1
 277 874 l 1
 563 874 l 1
 551 828 l 1
 267 828 l 1
EndSplineSet
EndChar

StartChar: breve.cap
Encoding: 65566 -1 295
Width: 433
Flags: MW
HStem: 799 48<385.5 431.5 385.5 439.5>
VStem: 289 56
LayerCount: 2
Fore
SplineSet
292 922 m 1
 345 922 l 1
 335 864 362 847 409 847 c 0
 454 847 497 877 509 922 c 1
 562 922 l 1
 540 844 481 799 398 799 c 0
 318 799 277 839 292 922 c 1
EndSplineSet
EndChar

StartChar: ring.cap
Encoding: 65567 -1 296
Width: 309
Flags: MW
HStem: 697 43<304 341 304 345> 845 43<331.5 365.5>
VStem: 393 45
LayerCount: 2
Fore
SplineSet
434 792 m 0
 419 733 377 697 313 697 c 0
 253 697 222 732 239 792 c 0
 256 856 301 888 360 888 c 0
 416 888 450 859 434 792 c 0
280 792 m 0
 273 763 285 740 323 740 c 0
 359 740 385 759 393 792 c 0
 400 825 382 845 349 845 c 0
 314 845 288 826 280 792 c 0
EndSplineSet
EndChar

StartChar: hungarumlaut.cap
Encoding: 65568 -1 297
Width: 660
Flags: MW
HStem: 759 143<494 529>
VStem: 314 397<787 872>
LayerCount: 2
Fore
SplineSet
529 759 m 1
 501 787 l 1
 678 901 l 1
 711 872 l 1
 529 759 l 1
344 760 m 1
 314 787 l 1
 494 902 l 1
 525 872 l 1
 344 760 l 1
EndSplineSet
EndChar

StartChar: dotaccent.cap
Encoding: 65569 -1 298
Width: 217
Flags: MW
HStem: 798 78<266 333 283 316>
VStem: 266 67
LayerCount: 2
Fore
SplineSet
266 798 m 1
 283 876 l 1
 333 876 l 1
 316 798 l 1
 266 798 l 1
EndSplineSet
EndChar

StartChar: Aringacute
Encoding: 506 506 299
Width: 555
Flags: MW
HStem: 0 21G<27 27 27 89 470 470 470 531> 191 54<215 462 215 462 188 462> 640 55<417 463 425 449> 671 21G<370 370> 798 43<451.5 485.5>
VStem: 355 45 455.5 64 513 45
LayerCount: 2
Fore
SplineSet
27 0 m 1xde
 370 671 l 1
 354 688 350 713 359 745 c 0
 376 809 421 841 480 841 c 0
 536 841 570 812 554 745 c 0xdd
 546 714 530 689 508 673 c 1
 531 0 l 1
 470 0 l 1
 462 191 l 1
 188 191 l 1
 89 0 l 1
 27 0 l 1xde
417 640 m 1xee
 215 245 l 1
 462 245 l 1
 449 640 l 1
 417 640 l 1xee
395 881 m 1
 389 927 l 1
 607 1021 l 1
 614 968 l 1
 395 881 l 1
400 745 m 0
 394 721 401 701 425 695 c 1
 463 695 l 1
 489 701 506 718 513 745 c 0
 520 778 502 798 469 798 c 0xed
 434 798 408 779 400 745 c 0
EndSplineSet
Position2: "'cpsp' Capital Spacing in Lateinisch lookup 0 subtable" dx=5 dy=0 dh=10 dv=0
EndChar

StartChar: Eng
Encoding: 330 330 300
Width: 625
Flags: MW
HStem: -181 55<356 399.5 356 419> 0 61<432 500 479 485> 636 59<287 308 287 287>
VStem: 81 624
LayerCount: 2
Fore
SplineSet
81 0 m 1
 241 695 l 1
 358 695 l 1
 479 61 l 1
 500 61 l 1
 646 695 l 1
 705 695 l 1
 560 65 l 1
 546 4 l 2
 511 -151 492 -181 346 -181 c 1
 356 -126 l 1
 443 -126 460 -108 485 0 c 1
 432 0 l 1
 308 636 l 1
 287 636 l 1
 139 0 l 1
 81 0 l 1
EndSplineSet
Position2: "'cpsp' Capital Spacing in Lateinisch lookup 0 subtable" dx=5 dy=0 dh=10 dv=0
EndChar

StartChar: amacron
Encoding: 257 257 301
Width: 493
Flags: MW
HStem: -10 53<203 260.5> 1 21G<432 432> 457 53<280.5 369> 642 47<287 565 298 553>
VStem: 91 62<103 197.5 103 211.5>
LayerCount: 2
Fore
SplineSet
216 -10 m 0xb8
 130 -10 91 43 91 131 c 0
 91 292 177 510 342 510 c 0
 403 510 536 486 536 486 c 1
 460 161 l 2
 445 98 432 1 432 1 c 1
 374 -1 l 1x78
 374 -1 389 92 393 113 c 1
 393 113 305 -10 216 -10 c 0xb8
343 457 m 0
 218 457 153 264 153 131 c 0
 153 75 173 43 233 43 c 0
 302 43 406 184 406 184 c 1
 467 442 l 1
 467 442 395 457 343 457 c 0
287 642 m 1
 298 689 l 1
 565 689 l 1
 553 642 l 1
 287 642 l 1
EndSplineSet
EndChar

StartChar: abreve
Encoding: 259 259 302
Width: 493
Flags: MW
HStem: -10 53<203 260.5> 1 21G<432 432> 457 53<280.5 369> 594 49<395 454 395 459> 594 133<307 459>
VStem: 91 62<103 197.5 103 211.5> 303 52
LayerCount: 2
Fore
SplineSet
216 -10 m 0xae
 130 -10 91 43 91 131 c 0
 91 292 177 510 342 510 c 0
 403 510 536 486 536 486 c 1
 460 161 l 2
 445 98 432 1 432 1 c 1
 374 -1 l 1x6e
 374 -1 389 92 393 113 c 1
 393 113 305 -10 216 -10 c 0xae
343 457 m 0
 218 457 153 264 153 131 c 0
 153 75 173 43 233 43 c 0
 302 43 406 184 406 184 c 1
 467 442 l 1
 467 442 395 457 343 457 c 0
307 727 m 1
 358 727 l 1xae
 346 679 366 643 424 643 c 0xb6
 484 643 517 679 530 727 c 1
 582 727 l 1
 559 647 509 594 409 594 c 0
 325 594 290 650 307 727 c 1
EndSplineSet
EndChar

StartChar: aringacute
Encoding: 507 507 303
Width: 493
Flags: MW
HStem: -10 53<203 260.5> 1 21G<432 432> 457 53<280.5 369> 549 41<368 398 368 402> 696 43<394 423.5>
VStem: 91 62<103 197.5 103 211.5>
LayerCount: 2
Fore
SplineSet
340 771 m 1xbc
 333 822 l 1
 551 916 l 1
 559 858 l 1
 340 771 l 1xbc
216 -10 m 0
 130 -10 91 43 91 131 c 0
 91 292 177 510 342 510 c 0
 403 510 536 486 536 486 c 1
 460 161 l 2
 445 98 432 1 432 1 c 1
 374 -1 l 1x7c
 374 -1 389 92 393 113 c 1
 393 113 305 -10 216 -10 c 0
343 457 m 0
 218 457 153 264 153 131 c 0
 153 75 173 43 233 43 c 0
 302 43 406 184 406 184 c 1
 467 442 l 1
 467 442 395 457 343 457 c 0
306 644 m 0
 316 694 359 739 419 739 c 0
 467 739 490 708 486 660 c 0
 482 595 432 549 372 549 c 0
 313 549 296 590 306 644 c 0
345 644 m 0
 339 618 353 590 383 590 c 0
 413 590 439 614 446 644 c 0
 453 670 438 696 409 696 c 0
 379 696 352 673 345 644 c 0
EndSplineSet
EndChar

StartChar: aogonek
Encoding: 261 261 304
Width: 493
Flags: MW
HStem: -202 54<311.5 368> -10 53<203 260.5> 1 21G<427 432 427 427> 457 53<280.5 369>
VStem: 91 62<103 197.5 103 211.5> 266 66<-133 -115.5>
LayerCount: 2
Fore
SplineSet
411 -142 m 1xdc
 405 -193 l 1
 405 -193 363 -202 334 -202 c 0
 289 -202 266 -179 266 -142 c 0
 266 -89 340 -18 375 9 c 1
 379 31 389 95 393 113 c 1
 393 113 305 -10 216 -10 c 0xdc
 130 -10 91 43 91 131 c 0
 91 292 177 510 342 510 c 0
 403 510 536 486 536 486 c 1
 460 161 l 2
 445 98 432 1 432 1 c 1
 427 1 l 1xbc
 396 -23 332 -88 332 -126 c 0
 332 -140 342 -148 360 -148 c 0
 376 -148 411 -142 411 -142 c 1xdc
343 457 m 0
 218 457 153 264 153 131 c 0
 153 75 173 43 233 43 c 0
 302 43 406 184 406 184 c 1
 467 442 l 1
 467 442 395 457 343 457 c 0
EndSplineSet
EndChar

StartChar: aeacute
Encoding: 509 509 305
Width: 757
Flags: MW
HStem: -10 57<498 554.5> 224 51 252 52 450 59<330.5 396 330.5 399.5> 454 55<614.5 667.5>
VStem: 65 62 374 64 419 57 732 59
LayerCount: 2
Fore
SplineSet
533 47 m 0xd680
 601 47 707 56 707 56 c 1
 696 4 l 1
 696 4 592 -10 517 -10 c 0
 453 -10 412 10 392 46 c 1
 335 22 229 -10 165 -10 c 0
 77 -10 53 64 69 142 c 0
 88 240 156 274 248 288 c 0
 301 296 353 301 403 304 c 1
 419 352 447 450 352 450 c 0
 283 450 173 439 173 439 c 1
 182 496 l 1
 182 496 294 509 367 509 c 0
 425 509 469 481 476 428 c 1xb580
 519 484 580 509 649 509 c 0
 740 509 789 467 791 374 c 0
 791 341 787 307 777 271 c 2
 764 223 l 1
 450 225 l 1
 442 192 437 162 438 137 c 0
 439 80 463 47 533 47 c 0xd680
183 46 m 0
 237 46 327 72 378 90 c 1
 367 143 381 196 393 252 c 1
 333 246 283 241 241 235 c 0xb680
 184 226 146 200 132 143 c 0
 121 101 127 46 183 46 c 0
461 276 m 1
 719 274 l 1
 728 310 733 340 732 365 c 0
 731 427 699 454 636 454 c 0xce80
 549 454 491 402 461 276 c 1
441 601 m 1
 435 647 l 1
 653 741 l 1
 660 688 l 1
 441 601 l 1
EndSplineSet
EndChar

StartChar: cacute
Encoding: 263 263 306
Width: 404
Flags: MW
HStem: -10 53<226 278> 457 53<287 378>
VStem: 95 61<113.5 223 113.5 232.5>
LayerCount: 2
Fore
SplineSet
358 510 m 0
 412 510 477 494 477 494 c 1
 462 446 l 1
 462 446 400 457 356 457 c 0
 218 457 156 299 156 147 c 0
 156 80 186 43 266 43 c 0
 305 43 379 59 379 59 c 1
 376 11 l 1
 376 11 308 -10 248 -10 c 0
 144 -10 95 43 95 137 c 0
 95 328 178 510 358 510 c 0
300 601 m 1
 294 647 l 1
 512 741 l 1
 519 688 l 1
 300 601 l 1
EndSplineSet
EndChar

StartChar: ccircumflex
Encoding: 265 265 307
Width: 404
Flags: MW
HStem: -10 53<226 278> 457 53<287 378> 590 145<234 416 385 447 385 503>
VStem: 95 61<113.5 223 113.5 232.5>
LayerCount: 2
Fore
SplineSet
358 510 m 0
 412 510 477 494 477 494 c 1
 462 446 l 1
 462 446 400 457 356 457 c 0
 218 457 156 299 156 147 c 0
 156 80 186 43 266 43 c 0
 305 43 379 59 379 59 c 1
 376 11 l 1
 376 11 308 -10 248 -10 c 0
 144 -10 95 43 95 137 c 0
 95 328 178 510 358 510 c 0
234 590 m 1
 385 735 l 1
 416 735 l 1
 503 590 l 1
 447 590 l 1
 393 682 l 1
 296 590 l 1
 234 590 l 1
EndSplineSet
EndChar

StartChar: ccaron
Encoding: 269 269 308
Width: 404
Flags: MW
HStem: -10 53<226 278> 457 53<287 378> 590 145<270 387 270 355>
VStem: 95 61<113.5 223 113.5 232.5>
LayerCount: 2
Fore
SplineSet
387 590 m 1
 355 590 l 1
 270 735 l 1
 325 735 l 1
 382 640 l 1
 481 735 l 1
 543 735 l 1
 387 590 l 1
358 510 m 0
 412 510 477 494 477 494 c 1
 462 446 l 1
 462 446 400 457 356 457 c 0
 218 457 156 299 156 147 c 0
 156 80 186 43 266 43 c 0
 305 43 379 59 379 59 c 1
 376 11 l 1
 376 11 308 -10 248 -10 c 0
 144 -10 95 43 95 137 c 0
 95 328 178 510 358 510 c 0
EndSplineSet
EndChar

StartChar: cdotaccent
Encoding: 267 267 309
Width: 404
Flags: MW
HStem: -10 53<226 278> 457 53<287 378> 610 78<341 411 360 393>
VStem: 95 61<113.5 223 113.5 232.5>
LayerCount: 2
Fore
SplineSet
358 510 m 0
 412 510 477 494 477 494 c 1
 462 446 l 1
 462 446 400 457 356 457 c 0
 218 457 156 299 156 147 c 0
 156 80 186 43 266 43 c 0
 305 43 379 59 379 59 c 1
 376 11 l 1
 376 11 308 -10 248 -10 c 0
 144 -10 95 43 95 137 c 0
 95 328 178 510 358 510 c 0
341 610 m 1
 360 688 l 1
 411 688 l 1
 393 610 l 1
 341 610 l 1
EndSplineSet
EndChar

StartChar: dcaron
Encoding: 271 271 310
Width: 530
Flags: MW
HStem: -10 53<204.5 259.5> 0 21G<365 423 365 365> 457 52<279.5 369.5> 702 20G<531 591 591 591>
VStem: 91 62<101.5 195.5 101.5 214>
LayerCount: 2
Fore
SplineSet
700 695 m 1xb8
 647 467 l 1
 592 467 l 1
 646 695 l 1
 700 695 l 1xb8
591 722 m 1
 423 0 l 1
 365 0 l 1x78
 387 98 l 1
 387 98 306 -10 213 -10 c 0
 133 -10 91 36 91 129 c 0
 91 299 182 509 340 509 c 0
 403 509 477 492 477 492 c 1
 531 722 l 1
 591 722 l 1
404 172 m 1
 466 442 l 1
 466 442 399 457 340 457 c 0
 219 457 153 262 153 129 c 0
 153 74 178 43 231 43 c 0xb8
 305 43 404 172 404 172 c 1
EndSplineSet
EndChar

StartChar: dcroat
Encoding: 273 273 311
Width: 493
Flags: MW
HStem: -10 53<204.5 259.5> 0 21G<365 423 365 365> 457 52<279.5 369.5> 599 57<364 502 352 515 575 618 364 562> 599 123<352 591 562 591 531 618 562 562>
VStem: 91 62<101.5 195.5 101.5 214>
LayerCount: 2
Fore
SplineSet
591 722 m 1xac
 575 656 l 1
 631 656 l 1xb4
 618 599 l 1
 562 599 l 1
 423 0 l 1
 365 0 l 1x6c
 387 98 l 1
 387 98 306 -10 213 -10 c 0
 133 -10 91 36 91 129 c 0
 91 299 182 509 340 509 c 0
 403 509 477 492 477 492 c 1
 502 599 l 1
 352 599 l 1xac
 364 656 l 1
 515 656 l 1xb4
 531 722 l 1
 591 722 l 1xac
404 172 m 1
 466 442 l 1
 466 442 399 457 340 457 c 0
 219 457 153 262 153 129 c 0
 153 74 178 43 231 43 c 0
 305 43 404 172 404 172 c 1
EndSplineSet
EndChar

StartChar: ecaron
Encoding: 283 283 312
Width: 458
Flags: MW
HStem: -10 54<225.5 284.5> 236 49<175 222 166 234> 458 51<309.5 386> 590 145<282 399 282 367>
VStem: 93 61<111.5 156.5 111.5 223> 443 60<351 417.5>
LayerCount: 2
Fore
SplineSet
256 44 m 0
 330 44 420 69 420 69 c 1
 416 20 l 1
 416 20 329 -10 240 -10 c 0
 149 -10 93 39 93 138 c 0
 93 308 176 509 362 509 c 0
 447 509 503 476 503 395 c 0
 503 274 408 236 222 236 c 2
 166 236 l 1
 159 207 154 169 154 144 c 0
 154 79 195 44 256 44 c 0
175 285 m 1
 234 285 l 2
 374 285 443 308 443 394 c 0
 443 441 413 458 359 458 c 0
 260 458 206 387 175 285 c 1
399 590 m 1
 367 590 l 1
 282 735 l 1
 337 735 l 1
 394 640 l 1
 493 735 l 1
 555 735 l 1
 399 590 l 1
EndSplineSet
EndChar

StartChar: emacron
Encoding: 275 275 313
Width: 458
Flags: MW
HStem: -10 54<225.5 284.5> 236 49<175 222 166 234> 458 51<309.5 386> 642 47<264 542 275 530>
VStem: 93 61<111.5 156.5 111.5 223> 443 60<351 417.5>
LayerCount: 2
Fore
SplineSet
256 44 m 0
 330 44 420 69 420 69 c 1
 416 20 l 1
 416 20 329 -10 240 -10 c 0
 149 -10 93 39 93 138 c 0
 93 308 176 509 362 509 c 0
 447 509 503 476 503 395 c 0
 503 274 408 236 222 236 c 2
 166 236 l 1
 159 207 154 169 154 144 c 0
 154 79 195 44 256 44 c 0
175 285 m 1
 234 285 l 2
 374 285 443 308 443 394 c 0
 443 441 413 458 359 458 c 0
 260 458 206 387 175 285 c 1
264 642 m 1
 275 689 l 1
 542 689 l 1
 530 642 l 1
 264 642 l 1
EndSplineSet
EndChar

StartChar: ebreve
Encoding: 277 277 314
Width: 458
Flags: MW
HStem: -10 54<225.5 284.5> 236 49<175 222 166 234> 458 51<309.5 386> 594 49<365 424 365 429> 594 133<277 429>
VStem: 93 61<111.5 156.5 111.5 223> 273 52 443 60<351 417.5>
LayerCount: 2
Fore
SplineSet
256 44 m 0xef
 330 44 420 69 420 69 c 1
 416 20 l 1
 416 20 329 -10 240 -10 c 0
 149 -10 93 39 93 138 c 0
 93 308 176 509 362 509 c 0
 447 509 503 476 503 395 c 0
 503 274 408 236 222 236 c 2
 166 236 l 1
 159 207 154 169 154 144 c 0
 154 79 195 44 256 44 c 0xef
175 285 m 1
 234 285 l 2
 374 285 443 308 443 394 c 0
 443 441 413 458 359 458 c 0
 260 458 206 387 175 285 c 1
277 727 m 1
 328 727 l 1xef
 316 679 336 643 394 643 c 0xf7
 454 643 487 679 500 727 c 1
 552 727 l 1
 529 647 479 594 379 594 c 0
 295 594 260 650 277 727 c 1
EndSplineSet
EndChar

StartChar: edotaccent
Encoding: 279 279 315
Width: 458
Flags: MW
HStem: -10 54<225.5 284.5> 236 49<175 222 166 234> 458 51<309.5 386> 610 78<346 416 365 398>
VStem: 93 61<111.5 156.5 111.5 223> 443 60<351 417.5>
LayerCount: 2
Fore
SplineSet
256 44 m 0
 330 44 420 69 420 69 c 1
 416 20 l 1
 416 20 329 -10 240 -10 c 0
 149 -10 93 39 93 138 c 0
 93 308 176 509 362 509 c 0
 447 509 503 476 503 395 c 0
 503 274 408 236 222 236 c 2
 166 236 l 1
 159 207 154 169 154 144 c 0
 154 79 195 44 256 44 c 0
175 285 m 1
 234 285 l 2
 374 285 443 308 443 394 c 0
 443 441 413 458 359 458 c 0
 260 458 206 387 175 285 c 1
346 610 m 1
 365 688 l 1
 416 688 l 1
 398 610 l 1
 346 610 l 1
EndSplineSet
EndChar

StartChar: eogonek
Encoding: 281 281 316
Width: 458
Flags: MW
HStem: -182 54<294.5 351> -10 54<225.5 254.5> 236 49<175 222 166 234> 458 51<309.5 386>
VStem: 93 61<111.5 156.5 111.5 223> 249 66<-113 -103> 443 60<351 417.5>
LayerCount: 2
Fore
SplineSet
394 -122 m 1
 388 -173 l 1
 388 -173 346 -182 317 -182 c 0
 272 -182 249 -159 249 -122 c 0
 249 -84 287 -36 322 -2 c 1
 296 -7 269 -10 240 -10 c 0
 149 -10 93 39 93 138 c 0
 93 308 176 509 362 509 c 0
 447 509 503 476 503 395 c 0
 503 274 408 236 222 236 c 2
 166 236 l 1
 159 207 154 169 154 144 c 0
 154 79 195 44 256 44 c 0
 330 44 420 69 420 69 c 1
 416 20 l 1
 416 20 411 18 404 16 c 0
 372 -11 315 -70 315 -106 c 0
 315 -120 325 -128 343 -128 c 0
 359 -128 394 -122 394 -122 c 1
175 285 m 1
 234 285 l 2
 374 285 443 308 443 394 c 0
 443 441 413 458 359 458 c 0
 260 458 206 387 175 285 c 1
EndSplineSet
EndChar

StartChar: gcircumflex
Encoding: 285 285 317
Width: 464
Flags: MW
HStem: -237 52<155 243.5 155 268> 173 51<255.5 320.5 236.5 333.5> 447 53<453 562> 458 52<275 350 259 355> 590 145<218 400 369 431 369 487>
VStem: 20 58<-120 -69.5 -120 -68.5> 124 58<284.5 341 284.5 353> 140 56<89.5 113> 382 59<-97.5 -36> 415 57<341 391 330.5 397>
LayerCount: 2
Fore
SplineSet
189 -237 m 0xe680
 85 -237 20 -186 20 -107 c 0
 20 -30 97 19 155 50 c 1
 146 59 140 72 140 91 c 0xe580
 140 135 193 189 193 189 c 1
 148 209 124 247 124 307 c 0
 124 399 194 510 324 510 c 0xd640
 376 510 414 494 414 494 c 1
 562 500 l 1
 550 447 l 1
 453 447 l 1
 464 430 472 408 472 374 c 0
 472 287 406 173 261 173 c 0
 250 173 231 175 231 175 c 1
 231 175 196 131 196 102 c 0xe540
 196 77 219 71 288 62 c 0
 398 49 441 20 441 -55 c 0
 441 -149 347 -237 189 -237 c 0xe680
277 10 m 0
 230 16 202 22 189 27 c 1
 138 1 78 -45 78 -94 c 0
 78 -146 116 -185 194 -185 c 0
 293 -185 382 -136 382 -59 c 0
 382 -13 353 2 277 10 c 0
269 224 m 0xde40
 372 224 415 315 415 367 c 0
 415 427 390 458 320 458 c 0
 230 458 182 372 182 310 c 0
 182 259 204 224 269 224 c 0xde40
218 590 m 1
 369 735 l 1
 400 735 l 1
 487 590 l 1
 431 590 l 1
 377 682 l 1
 280 590 l 1
 218 590 l 1
EndSplineSet
EndChar

StartChar: gbreve
Encoding: 287 287 318
Width: 464
Flags: MW
HStem: -237 52<155 243.5 155 268> 173 51<255.5 320.5 236.5 333.5> 447 53<453 562> 458 52<275 350 259 355> 594 49<364 423 364 428> 594 133<276 428>
VStem: 20 58<-120 -69.5 -120 -68.5> 124 58<284.5 341 284.5 353> 140 56<89.5 113> 272 52 382 59<-97.5 -36> 415 57<341 391 330.5 397>
LayerCount: 2
Fore
SplineSet
189 -237 m 0xe760
 85 -237 20 -186 20 -107 c 0
 20 -30 97 19 155 50 c 1
 146 59 140 72 140 91 c 0xe6e0
 140 135 193 189 193 189 c 1
 148 209 124 247 124 307 c 0
 124 399 194 510 324 510 c 0xd750
 376 510 414 494 414 494 c 1
 562 500 l 1
 550 447 l 1
 453 447 l 1
 464 430 472 408 472 374 c 0
 472 287 406 173 261 173 c 0
 250 173 231 175 231 175 c 1
 231 175 196 131 196 102 c 0xe6d0
 196 77 219 71 288 62 c 0
 398 49 441 20 441 -55 c 0
 441 -149 347 -237 189 -237 c 0xe760
277 10 m 0
 230 16 202 22 189 27 c 1
 138 1 78 -45 78 -94 c 0
 78 -146 116 -185 194 -185 c 0
 293 -185 382 -136 382 -59 c 0
 382 -13 353 2 277 10 c 0
269 224 m 0xd750
 372 224 415 315 415 367 c 0
 415 427 390 458 320 458 c 0
 230 458 182 372 182 310 c 0
 182 259 204 224 269 224 c 0xd750
276 727 m 1
 327 727 l 1xe760
 315 679 335 643 393 643 c 0xeb50
 453 643 486 679 499 727 c 1
 551 727 l 1
 528 647 478 594 378 594 c 0
 294 594 259 650 276 727 c 1
EndSplineSet
EndChar

StartChar: gdotaccent
Encoding: 289 289 319
Width: 464
Flags: MW
HStem: -237 52<155 243.5 155 268> 173 51<255.5 320.5 236.5 333.5> 447 53<453 562> 458 52<275 350 259 355> 610 78<331 401 350 383>
VStem: 20 58<-120 -69.5 -120 -68.5> 124 58<284.5 341 284.5 353> 140 56<89.5 113> 382 59<-97.5 -36> 415 57<341 391 330.5 397>
LayerCount: 2
Fore
SplineSet
189 -237 m 0xee80
 85 -237 20 -186 20 -107 c 0
 20 -30 97 19 155 50 c 1
 146 59 140 72 140 91 c 0xed80
 140 135 193 189 193 189 c 1
 148 209 124 247 124 307 c 0
 124 399 194 510 324 510 c 0xde40
 376 510 414 494 414 494 c 1
 562 500 l 1
 550 447 l 1
 453 447 l 1
 464 430 472 408 472 374 c 0
 472 287 406 173 261 173 c 0
 250 173 231 175 231 175 c 1
 231 175 196 131 196 102 c 0xed40
 196 77 219 71 288 62 c 0
 398 49 441 20 441 -55 c 0
 441 -149 347 -237 189 -237 c 0xee80
277 10 m 0
 230 16 202 22 189 27 c 1
 138 1 78 -45 78 -94 c 0
 78 -146 116 -185 194 -185 c 0
 293 -185 382 -136 382 -59 c 0
 382 -13 353 2 277 10 c 0
269 224 m 0xde40
 372 224 415 315 415 367 c 0
 415 427 390 458 320 458 c 0
 230 458 182 372 182 310 c 0
 182 259 204 224 269 224 c 0xde40
331 610 m 1
 350 688 l 1
 401 688 l 1
 383 610 l 1
 331 610 l 1
EndSplineSet
EndChar

StartChar: gcommaaccent
Encoding: 291 291 320
Width: 464
Flags: MW
HStem: -237 52<155 243.5 155 268> 173 51<255.5 320.5 236.5 333.5> 447 53<453 562> 458 52<275 350 259 355> 585 203<320 461 320 461>
VStem: 20 58<-120 -69.5 -120 -68.5> 124 58<284.5 341 284.5 353> 140 56<89.5 113> 382 59<-97.5 -36> 415 57<341 391 330.5 397>
LayerCount: 2
Fore
SplineSet
412 788 m 1xee80
 461 788 l 1
 376 585 l 1
 320 585 l 1
 412 788 l 1xee80
189 -237 m 0
 85 -237 20 -186 20 -107 c 0
 20 -30 97 19 155 50 c 1
 146 59 140 72 140 91 c 0xed80
 140 135 193 189 193 189 c 1
 148 209 124 247 124 307 c 0
 124 399 194 510 324 510 c 0xde40
 376 510 414 494 414 494 c 1
 562 500 l 1
 550 447 l 1
 453 447 l 1
 464 430 472 408 472 374 c 0
 472 287 406 173 261 173 c 0
 250 173 231 175 231 175 c 1
 231 175 196 131 196 102 c 0xed40
 196 77 219 71 288 62 c 0
 398 49 441 20 441 -55 c 0
 441 -149 347 -237 189 -237 c 0
277 10 m 0
 230 16 202 22 189 27 c 1
 138 1 78 -45 78 -94 c 0
 78 -146 116 -185 194 -185 c 0
 293 -185 382 -136 382 -59 c 0
 382 -13 353 2 277 10 c 0
269 224 m 0xde40
 372 224 415 315 415 367 c 0
 415 427 390 458 320 458 c 0
 230 458 182 372 182 310 c 0
 182 259 204 224 269 224 c 0xde40
EndSplineSet
EndChar

StartChar: hcircumflex
Encoding: 293 293 321
Width: 495
Flags: MW
HStem: 0 21G<69 129 69 69 371 371 371 430> 456 54<348 399.5> 702 20G<236 296 296 296> 767 134<295 486 456 527 456 583>
VStem: 448 61<365.5 402>
LayerCount: 2
Fore
SplineSet
129 0 m 1
 69 0 l 1
 236 722 l 1
 296 722 l 1
 222 402 l 1
 222 402 303 510 393 510 c 0
 469 510 509 461 509 387 c 0
 509 344 498 293 489 254 c 2
 430 0 l 1
 371 0 l 1
 430 252 l 2
 438 286 448 340 448 377 c 0
 448 427 425 456 374 456 c 0
 300 456 205 330 205 330 c 1
 129 0 l 1
295 767 m 1
 456 901 l 1
 486 901 l 1
 583 767 l 1
 527 767 l 1
 466 853 l 1
 361 767 l 1
 295 767 l 1
EndSplineSet
EndChar

StartChar: hbar
Encoding: 295 295 322
Width: 495
Flags: MW
HStem: 0 21G<69 129 69 69 371 430 371 371> 456 54<348 399.5> 591 53<150 218 162 205 162 265 278 416> 591 131<150 296 150 296 265 265 265 296 236 416>
VStem: 448 61<365.5 402>
LayerCount: 2
Fore
SplineSet
150 591 m 1xd8
 162 644 l 1
 218 644 l 1xe8
 236 722 l 1
 296 722 l 1xd8
 278 644 l 1
 429 644 l 1xe8
 416 591 l 1
 265 591 l 1
 222 402 l 1
 222 402 303 510 393 510 c 0
 469 510 509 461 509 387 c 0
 509 344 498 293 489 254 c 2
 430 0 l 1
 371 0 l 1
 430 252 l 2
 438 286 448 340 448 377 c 0
 448 427 425 456 374 456 c 0
 300 456 205 330 205 330 c 1
 129 0 l 1
 69 0 l 1
 205 591 l 1
 150 591 l 1xd8
EndSplineSet
EndChar

StartChar: itilde
Encoding: 297 297 323
Width: 197
Flags: MW
HStem: 0 21G<68 68 68 128> 480 20G<184 244 244 244> 620 53<299 318> 668 21G<389 389> 669 21G<162.5 187.5> 702 20G<170 207>
VStem: 68 321
LayerCount: 2
Fore
SplineSet
68 0 m 1xce
 184 500 l 1
 244 500 l 1
 128 0 l 1
 68 0 l 1xce
385 714 m 1xe6
 389 668 l 1
 389 668 335 620 301 620 c 0xd6
 264 620 202 669 173 669 c 0
 152 669 95 625 95 625 c 1xce
 93 672 l 1
 93 672 153 722 187 722 c 0
 227 722 286 673 312 673 c 0
 331 673 385 714 385 714 c 1xe6
EndSplineSet
EndChar

StartChar: imacron
Encoding: 299 299 324
Width: 197
Flags: MW
HStem: 0 21G<68 68 68 128> 480 20G<184 244 244 244> 642 47<105 383 116 371>
VStem: 68 315
LayerCount: 2
Fore
SplineSet
68 0 m 1
 184 500 l 1
 244 500 l 1
 128 0 l 1
 68 0 l 1
105 642 m 1
 116 689 l 1
 383 689 l 1
 371 642 l 1
 105 642 l 1
EndSplineSet
EndChar

StartChar: ibreve
Encoding: 301 301 325
Width: 197
Flags: MW
HStem: 0 21G<68 68 68 128> 480 20G<184 244 244 244> 594 49<213 272 213 277> 594 133<125 277>
VStem: 121 52
LayerCount: 2
Fore
SplineSet
68 0 m 1xd8
 184 500 l 1
 244 500 l 1
 128 0 l 1
 68 0 l 1xd8
125 727 m 1
 176 727 l 1xd8
 164 679 184 643 242 643 c 0xe8
 302 643 335 679 348 727 c 1
 400 727 l 1
 377 647 327 594 227 594 c 0
 143 594 108 650 125 727 c 1
EndSplineSet
EndChar

StartChar: iogonek
Encoding: 303 303 326
Width: 198
Flags: MW
HStem: -202 54<9.5 66> 480 20G<185 245 245 245> 616 80<211 290 229 272>
VStem: -36 66<-133 -116>
LayerCount: 2
Fore
SplineSet
109 -142 m 1
 103 -193 l 1
 103 -193 61 -202 32 -202 c 0
 -13 -202 -36 -179 -36 -142 c 0
 -36 -90 34 -22 70 7 c 1
 185 500 l 1
 245 500 l 1
 129 0 l 1
 97 -25 30 -87 30 -126 c 0
 30 -140 40 -148 58 -148 c 0
 74 -148 109 -142 109 -142 c 1
211 616 m 1
 229 696 l 1
 290 696 l 1
 272 616 l 1
 211 616 l 1
EndSplineSet
EndChar

StartChar: jcircumflex
Encoding: 309 309 327
Width: 197
Flags: MW
HStem: -237 21G<-72 -72> 480 20G<184 244 244 244> 590 145<91 273 242 304 242 360>
VStem: -92 452
LayerCount: 2
Fore
SplineSet
68 0 m 2
 184 500 l 1
 244 500 l 1
 128 0 l 2
 93 -150 79 -167 -72 -237 c 1
 -92 -188 l 1
 32 -125 42 -113 68 0 c 2
91 590 m 1
 242 735 l 1
 273 735 l 1
 360 590 l 1
 304 590 l 1
 250 682 l 1
 153 590 l 1
 91 590 l 1
EndSplineSet
EndChar

StartChar: kcommaaccent
Encoding: 311 311 328
Width: 440
Flags: MW
HStem: -276 203<95 236 95 236> 0 21G<69 129 69 69 352 352 352 416> 246.5 51.5 480 20G<464 535 535 535> 702 20G<236 296 296 296>
VStem: 69 466
LayerCount: 2
Fore
SplineSet
95 -276 m 1
 180 -73 l 1
 236 -73 l 1
 143 -276 l 1
 95 -276 l 1
129 0 m 1
 69 0 l 1
 236 722 l 1
 296 722 l 1
 198 297 l 1
 269 299 l 1
 464 500 l 1
 535 500 l 1
 314 270 l 1
 416 0 l 1
 352 0 l 1
 258 247 l 1
 185 246 l 1
 129 0 l 1
EndSplineSet
EndChar

StartChar: lacute
Encoding: 314 314 329
Width: 207
Flags: MW
HStem: 0 21G<74 74 74 133> 702 20G<241 300 300 300>
VStem: 74 398
LayerCount: 2
Fore
SplineSet
74 0 m 1
 241 722 l 1
 300 722 l 1
 133 0 l 1
 74 0 l 1
252 790 m 1
 244 835 l 1
 463 930 l 1
 472 878 l 1
 252 790 l 1
EndSplineSet
EndChar

StartChar: lcaron
Encoding: 318 318 330
Width: 239
Flags: MW
HStem: 0 21G<74 74 74 133> 467 228<355 356 302 410> 702 20G<241 300 300 300>
VStem: 74 336
LayerCount: 2
Fore
SplineSet
410 695 m 1
 356 467 l 1
 302 467 l 1
 355 695 l 1
 410 695 l 1
74 0 m 1
 241 722 l 1
 300 722 l 1xb0
 133 0 l 1
 74 0 l 1
EndSplineSet
EndChar

StartChar: lcommaaccent
Encoding: 316 316 331
Width: 207
Flags: MW
HStem: 0 21G<74 74 74 133> 702 20G<241 300 300 300>
VStem: -25 325
LayerCount: 2
Fore
SplineSet
60 -73 m 1
 -25 -276 l 1
 23 -276 l 1
 116 -73 l 1
 60 -73 l 1
74 0 m 1
 241 722 l 1
 300 722 l 1
 133 0 l 1
 74 0 l 1
EndSplineSet
EndChar

StartChar: nacute
Encoding: 324 324 332
Width: 494
Flags: MW
HStem: 0 741<68 514 128 514 370 514 429 514>
VStem: 68 453
LayerCount: 2
Fore
SplineSet
68 0 m 1
 128 0 l 1
 205 331 l 1
 205 331 298 456 373 456 c 0
 424 456 448 427 448 377 c 0
 448 340 437 286 429 252 c 2
 370 0 l 1
 429 0 l 1
 489 256 l 2
 498 294 509 345 509 387 c 0
 509 461 469 510 392 510 c 0
 302 510 221 403 221 403 c 1
 242 500 l 1
 184 500 l 1
 68 0 l 1
302 601 m 1
 296 647 l 1
 514 741 l 1
 521 688 l 1
 302 601 l 1
EndSplineSet
EndChar

StartChar: ncaron
Encoding: 328 328 333
Width: 494
Flags: MW
HStem: 0 21G<68 128 68 68 370 370 370 429> 456 54<347 398.5> 480 20G<184 242 242 242> 590 145<280 397 280 365>
VStem: 448 61<366 402>
LayerCount: 2
Fore
SplineSet
128 0 m 1xd8
 68 0 l 1
 184 500 l 1
 242 500 l 1xb8
 221 403 l 1
 221 403 302 510 392 510 c 0
 469 510 509 461 509 387 c 0
 509 345 498 294 489 256 c 2
 429 0 l 1
 370 0 l 1
 429 252 l 2
 437 286 448 340 448 377 c 0
 448 427 424 456 373 456 c 0
 298 456 205 331 205 331 c 1
 128 0 l 1xd8
397 590 m 1
 365 590 l 1
 280 735 l 1
 335 735 l 1
 392 640 l 1
 491 735 l 1
 553 735 l 1
 397 590 l 1
EndSplineSet
EndChar

StartChar: ncommaaccent
Encoding: 326 326 334
Width: 494
Flags: MW
HStem: 0 21G<68 128 68 68 370 370 370 429> 456 54<347 398.5> 480 20G<184 242 242 242>
VStem: 448 61<366 402>
LayerCount: 2
Fore
SplineSet
128 0 m 1xd0
 68 0 l 1
 184 500 l 1
 242 500 l 1xb0
 221 403 l 1
 221 403 302 510 392 510 c 0
 469 510 509 461 509 387 c 0
 509 345 498 294 489 256 c 2
 429 0 l 1
 370 0 l 1
 429 252 l 2
 437 286 448 340 448 377 c 0
 448 427 424 456 373 456 c 0
 298 456 205 331 205 331 c 1
 128 0 l 1xd0
132 -276 m 1
 217 -73 l 1
 273 -73 l 1
 180 -276 l 1
 132 -276 l 1
EndSplineSet
EndChar

StartChar: omacron
Encoding: 333 333 335
Width: 494
Flags: MW
HStem: -10 53<223 317 223 336.5> 457 52<288 381.5> 642 47<250 528 261 516>
VStem: 94 60<114 228.5 114 245> 452 61<264.5 378>
LayerCount: 2
Fore
SplineSet
345 509 m 0
 455 509 513 454 513 344 c 0
 513 154 415 -10 258 -10 c 0
 151 -10 94 38 94 148 c 0
 94 342 198 509 345 509 c 0
258 43 m 0
 376 43 452 184 452 345 c 0
 452 411 418 457 345 457 c 0
 231 457 154 309 154 148 c 0
 154 80 188 43 258 43 c 0
250 642 m 1
 261 689 l 1
 528 689 l 1
 516 642 l 1
 250 642 l 1
EndSplineSet
EndChar

StartChar: obreve
Encoding: 335 335 336
Width: 494
Flags: MW
HStem: -10 53<223 317 223 336.5> 457 52<288 381.5> 594 49<362 421 362 426> 594 133<274 426>
VStem: 94 60<114 228.5 114 245> 270 52 452 61<264.5 378>
LayerCount: 2
Fore
SplineSet
345 509 m 0xde
 455 509 513 454 513 344 c 0
 513 154 415 -10 258 -10 c 0
 151 -10 94 38 94 148 c 0
 94 342 198 509 345 509 c 0xde
258 43 m 0
 376 43 452 184 452 345 c 0
 452 411 418 457 345 457 c 0
 231 457 154 309 154 148 c 0
 154 80 188 43 258 43 c 0
274 727 m 1
 325 727 l 1xde
 313 679 333 643 391 643 c 0xee
 451 643 484 679 497 727 c 1
 549 727 l 1
 526 647 476 594 376 594 c 0
 292 594 257 650 274 727 c 1
EndSplineSet
EndChar

StartChar: ohungarumlaut
Encoding: 337 337 337
Width: 494
Flags: MW
HStem: -10 53<223 317 223 336.5> 457 52<288 381.5>
VStem: 94 60<114 228.5 114 245> 452 61<264.5 378>
LayerCount: 2
Fore
SplineSet
345 509 m 0
 455 509 513 454 513 344 c 0
 513 154 415 -10 258 -10 c 0
 151 -10 94 38 94 148 c 0
 94 342 198 509 345 509 c 0
258 43 m 0
 376 43 452 184 452 345 c 0
 452 411 418 457 345 457 c 0
 231 457 154 309 154 148 c 0
 154 80 188 43 258 43 c 0
440 586 m 1
 412 621 l 1
 584 747 l 1
 616 711 l 1
 440 586 l 1
261 586 m 1
 233 621 l 1
 405 747 l 1
 436 711 l 1
 261 586 l 1
EndSplineSet
EndChar

StartChar: racute
Encoding: 341 341 338
Width: 311
Flags: MW
HStem: 0 21G<68 68 68 129> 425 75<226 226> 490 20G<413 413>
VStem: 68 356
LayerCount: 2
Fore
SplineSet
68 0 m 1xb0
 185 500 l 1
 244 500 l 1
 226 425 l 1xd0
 226 425 322 491 413 510 c 1
 398 449 l 1
 330 433 215 370 215 370 c 1
 129 0 l 1
 68 0 l 1xb0
205 601 m 1
 199 647 l 1
 417 741 l 1
 424 688 l 1
 205 601 l 1
EndSplineSet
EndChar

StartChar: rcommaaccent
Encoding: 343 343 339
Width: 311
Flags: MW
HStem: 0 21G<68 68 68 129> 425 75<226 226> 490 20G<413 413>
VStem: -25 438
LayerCount: 2
Fore
SplineSet
68 0 m 1xb0
 185 500 l 1
 244 500 l 1
 226 425 l 1xd0
 226 425 322 491 413 510 c 1
 398 449 l 1
 330 433 215 370 215 370 c 1
 129 0 l 1
 68 0 l 1xb0
60 -73 m 1
 -25 -276 l 1
 23 -276 l 1
 116 -73 l 1
 60 -73 l 1
EndSplineSet
EndChar

StartChar: rcaron
Encoding: 345 345 340
Width: 311
Flags: MW
HStem: 0 21G<68 68 68 129> 425 75<226 226> 490 20G<413 413> 590 145<194 311 194 279>
VStem: 68 399
LayerCount: 2
Fore
SplineSet
68 0 m 1xb8
 185 500 l 1
 244 500 l 1
 226 425 l 1xd8
 226 425 322 491 413 510 c 1
 398 449 l 1
 330 433 215 370 215 370 c 1
 129 0 l 1
 68 0 l 1xb8
311 590 m 1
 279 590 l 1
 194 735 l 1
 249 735 l 1
 306 640 l 1
 405 735 l 1
 467 735 l 1
 311 590 l 1
EndSplineSet
EndChar

StartChar: sacute
Encoding: 347 347 341
Width: 428
Flags: MW
HStem: -10 21G -10 53<184.5 255 184.5 266.5> 457 52<274.5 345> 489 20G<264.5 358>
VStem: 127 60<330 377 330 385.5> 361 61<118.5 180.5>
LayerCount: 2
Fore
SplineSet
483 491 m 1x5c
 470 443 l 1
 470 443 377 457 313 457 c 0
 236 457 187 406 187 348 c 0
 187 312 207 300 285 281 c 0
 374 260 422 243 422 170 c 0
 422 49 326 -10 207 -10 c 0x6c
 134 -10 52 11 52 11 c 1xac
 63 59 l 1
 63 59 155 43 214 43 c 0
 296 43 361 79 361 158 c 0
 361 203 332 212 257 229 c 0
 173 249 127 269 127 335 c 0
 127 436 208 509 321 509 c 0x6c
 395 509 483 491 483 491 c 1x5c
282 601 m 1
 276 647 l 1
 494 741 l 1
 501 688 l 1
 282 601 l 1
EndSplineSet
EndChar

StartChar: scircumflex
Encoding: 349 349 342
Width: 428
Flags: MW
HStem: -10 21G -10 53<184.5 255 184.5 266.5> 457 52<274.5 345> 489 20G<264.5 358> 590 145<221 403 372 434 372 490>
VStem: 127 60<330 377 330 385.5> 361 61<118.5 180.5>
LayerCount: 2
Fore
SplineSet
483 491 m 1x56
 470 443 l 1
 470 443 377 457 313 457 c 0
 236 457 187 406 187 348 c 0
 187 312 207 300 285 281 c 0
 374 260 422 243 422 170 c 0
 422 49 326 -10 207 -10 c 0x6e
 134 -10 52 11 52 11 c 1xa6
 63 59 l 1
 63 59 155 43 214 43 c 0
 296 43 361 79 361 158 c 0
 361 203 332 212 257 229 c 0
 173 249 127 269 127 335 c 0
 127 436 208 509 321 509 c 0x66
 395 509 483 491 483 491 c 1x56
221 590 m 1
 372 735 l 1
 403 735 l 1
 490 590 l 1
 434 590 l 1
 380 682 l 1
 283 590 l 1
 221 590 l 1
EndSplineSet
EndChar

StartChar: scedilla
Encoding: 351 351 343
Width: 428
Flags: MW
HStem: -207 46<175 203 175 217.5> -86 38<163 213> -9 21G<181 181> -9 52<181 254> 457 52<273.5 344> 489 20G<263.5 357>
VStem: 126 60<330 377 330 385.5> 360 61<118.5 180.5>
LayerCount: 2
Fore
SplineSet
293 -124 m 0xeb
 280 -182 246 -207 189 -207 c 0
 148 -207 111 -201 111 -201 c 1
 122 -157 l 1
 122 -157 161 -161 189 -161 c 0
 217 -161 234 -150 241 -122 c 0
 248 -92 229 -86 207 -86 c 2
 163 -86 l 1
 181 -9 l 1
 116 -6 51 11 51 11 c 1xeb
 62 59 l 1
 62 59 154 43 213 43 c 0
 295 43 360 79 360 158 c 0
 360 203 331 212 256 229 c 0
 172 249 126 269 126 335 c 0
 126 436 207 509 320 509 c 0xdb
 394 509 482 491 482 491 c 1xe7
 469 443 l 1
 469 443 376 457 312 457 c 0
 235 457 186 406 186 348 c 0
 186 312 206 300 284 281 c 0
 373 260 421 243 421 170 c 0
 421 53 331 -6 218 -10 c 1
 208 -48 l 1
 213 -48 l 2
 266 -48 306 -66 293 -124 c 0xeb
EndSplineSet
Substitution2: "'locl' Localized Forms in Lateinisch lookup 0 subtable" scommaaccent
EndChar

StartChar: scommaaccent
Encoding: 537 537 344
Width: 427
Flags: MW
HStem: -10 21G -10 53<183.5 254 183.5 265.5> 457 52<273.5 344> 489 20G<263.5 357>
VStem: 126 60<330 377 330 385.5> 360 61<118.5 180.5>
LayerCount: 2
Fore
SplineSet
482 491 m 1x5c
 469 443 l 1
 469 443 376 457 312 457 c 0
 235 457 186 406 186 348 c 0
 186 312 206 300 284 281 c 0
 373 260 421 243 421 170 c 0
 421 49 325 -10 206 -10 c 0x6c
 133 -10 51 11 51 11 c 1xac
 62 59 l 1
 62 59 154 43 213 43 c 0
 295 43 360 79 360 158 c 0
 360 203 331 212 256 229 c 0
 172 249 126 269 126 335 c 0
 126 436 207 509 320 509 c 0x6c
 394 509 482 491 482 491 c 1x5c
176 -73 m 1
 91 -276 l 1
 139 -276 l 1
 232 -73 l 1
 176 -73 l 1
EndSplineSet
EndChar

StartChar: tcaron
Encoding: 357 357 345
Width: 387
Flags: MW
HStem: -10 53<214.5 237> 447 53<139 194 126 207 266 402 139 254> 467 33
VStem: 116 63<78.5 98.5>
LayerCount: 2
Fore
SplineSet
553 695 m 1xd0
 500 467 l 1
 445 467 l 1xb0
 498 695 l 1
 553 695 l 1xd0
402 447 m 1xd0
 254 447 l 1
 192 183 l 2
 185 153 179 118 179 94 c 0
 179 63 195 43 234 43 c 0
 260 43 314 49 314 49 c 1
 310 2 l 1
 310 2 258 -10 216 -10 c 0
 153 -10 116 23 116 82 c 0
 116 115 125 154 133 186 c 2
 194 447 l 1
 126 447 l 1
 139 500 l 1
 207 500 l 1
 244 653 l 1
 304 653 l 1
 266 500 l 1
 415 500 l 1
 402 447 l 1xd0
EndSplineSet
EndChar

StartChar: tcommaaccent
Encoding: 539 539 346
Width: 315
Flags: MW
HStem: -73 116<148 247 148 247> -10 53<214.5 237> 447 53<139 194 126 207 266 402 139 254>
VStem: 116 63<78.5 98.5>
LayerCount: 2
Fore
SplineSet
402 447 m 1x70
 254 447 l 1
 192 183 l 2
 185 153 179 118 179 94 c 0
 179 63 195 43 234 43 c 0
 260 43 314 49 314 49 c 1
 310 2 l 1
 310 2 258 -10 216 -10 c 0
 153 -10 116 23 116 82 c 0
 116 115 125 154 133 186 c 2
 194 447 l 1
 126 447 l 1
 139 500 l 1
 207 500 l 1
 244 653 l 1
 304 653 l 1
 266 500 l 1
 415 500 l 1
 402 447 l 1x70
148 -73 m 1xb0
 63 -276 l 1
 111 -276 l 1
 204 -73 l 1
 148 -73 l 1xb0
EndSplineSet
EndChar

StartChar: tbar
Encoding: 359 359 347
Width: 320
Flags: MW
HStem: -10 53<217.5 240> 268 53<112 155 100 167 227 358 112 215> 447 53<142 197 129 210 269 405 142 257>
VStem: 119 63<78.5 98.5>
LayerCount: 2
Fore
SplineSet
405 447 m 1
 257 447 l 1
 227 321 l 1
 371 321 l 1
 358 268 l 1
 215 268 l 1
 195 183 l 2
 188 153 182 118 182 94 c 0
 182 63 198 43 237 43 c 0
 263 43 317 49 317 49 c 1
 313 2 l 1
 313 2 261 -10 219 -10 c 0
 156 -10 119 23 119 82 c 0
 119 115 128 154 136 186 c 2
 155 268 l 1
 100 268 l 1
 112 321 l 1
 167 321 l 1
 197 447 l 1
 129 447 l 1
 142 500 l 1
 210 500 l 1
 247 653 l 1
 307 653 l 1
 269 500 l 1
 418 500 l 1
 405 447 l 1
EndSplineSet
EndChar

StartChar: utilde
Encoding: 361 361 348
Width: 494
Flags: MW
HStem: -10 54<211.5 262> 0 21G<367 425 367 367> 480 20G<180 239 239 239 481 541 541 541> 620 53<451 470> 668 21G<541 541> 669 21G<314.5 339.5> 702 20G<322 359>
VStem: 100 61<98 133.5>
LayerCount: 2
Fore
SplineSet
537 714 m 1xb3
 541 668 l 1
 541 668 487 620 453 620 c 0xab
 416 620 354 669 325 669 c 0
 304 669 247 625 247 625 c 1xa7
 245 672 l 1
 245 672 305 722 339 722 c 0
 379 722 438 673 464 673 c 0
 483 673 537 714 537 714 c 1xb3
481 500 m 1
 541 500 l 1
 425 0 l 1
 367 0 l 1x67
 388 97 l 1
 388 97 307 -10 217 -10 c 0
 141 -10 100 39 100 112 c 0
 100 155 111 206 120 244 c 2
 180 500 l 1
 239 500 l 1
 180 248 l 2
 172 214 161 160 161 123 c 0
 161 73 187 44 236 44 c 0
 311 44 404 168 404 168 c 1
 481 500 l 1
EndSplineSet
EndChar

StartChar: umacron
Encoding: 363 363 349
Width: 494
Flags: MW
HStem: -10 54<211.5 262> 0 21G<367 425 367 367> 480 20G<180 239 239 239 481 541 541 541> 642 47<248 526 259 514>
VStem: 100 61<98 133.5>
LayerCount: 2
Fore
SplineSet
481 500 m 1xb8
 541 500 l 1
 425 0 l 1
 367 0 l 1x78
 388 97 l 1
 388 97 307 -10 217 -10 c 0
 141 -10 100 39 100 112 c 0
 100 155 111 206 120 244 c 2
 180 500 l 1
 239 500 l 1
 180 248 l 2
 172 214 161 160 161 123 c 0
 161 73 187 44 236 44 c 0
 311 44 404 168 404 168 c 1
 481 500 l 1xb8
248 642 m 1
 259 689 l 1
 526 689 l 1
 514 642 l 1
 248 642 l 1
EndSplineSet
EndChar

StartChar: ubreve
Encoding: 365 365 350
Width: 494
Flags: MW
HStem: -10 54<211.5 262> 0 21G<367 425 367 367> 480 20G<180 239 239 239 481 541 541 541> 594 49<356 415 356 420> 594 133<268 420>
VStem: 100 61<98 133.5> 264 52
LayerCount: 2
Fore
SplineSet
481 500 m 1xae
 541 500 l 1
 425 0 l 1
 367 0 l 1x6e
 388 97 l 1
 388 97 307 -10 217 -10 c 0
 141 -10 100 39 100 112 c 0
 100 155 111 206 120 244 c 2
 180 500 l 1
 239 500 l 1
 180 248 l 2
 172 214 161 160 161 123 c 0
 161 73 187 44 236 44 c 0
 311 44 404 168 404 168 c 1
 481 500 l 1xae
268 727 m 1
 319 727 l 1xae
 307 679 327 643 385 643 c 0xb6
 445 643 478 679 491 727 c 1
 543 727 l 1
 520 647 470 594 370 594 c 0
 286 594 251 650 268 727 c 1
EndSplineSet
EndChar

StartChar: uring
Encoding: 367 367 351
Width: 494
Flags: MW
HStem: -10 54<211.5 262> 0 21G<367 425 367 367> 480 20G<180 239 239 239 481 541 541 541> 549 41<358 388 358 392> 696 43<384 413.5>
VStem: 100 61<98 133.5>
LayerCount: 2
Fore
SplineSet
296 644 m 0xbc
 306 694 349 739 409 739 c 0
 457 739 480 708 476 660 c 0
 472 595 422 549 362 549 c 0
 303 549 286 590 296 644 c 0xbc
335 644 m 0
 329 618 343 590 373 590 c 0
 403 590 429 614 436 644 c 0
 443 670 428 696 399 696 c 0
 369 696 342 673 335 644 c 0
481 500 m 1
 541 500 l 1
 425 0 l 1
 367 0 l 1x7c
 388 97 l 1
 388 97 307 -10 217 -10 c 0
 141 -10 100 39 100 112 c 0
 100 155 111 206 120 244 c 2
 180 500 l 1
 239 500 l 1
 180 248 l 2
 172 214 161 160 161 123 c 0
 161 73 187 44 236 44 c 0
 311 44 404 168 404 168 c 1
 481 500 l 1
EndSplineSet
EndChar

StartChar: uhungarumlaut
Encoding: 369 369 352
Width: 494
Flags: MW
HStem: -10 54<211.5 262> 0 21G<367 425 367 367> 480 20G<180 239 239 239 481 541 541 541>
VStem: 100 61<98 133.5>
LayerCount: 2
Fore
SplineSet
461 586 m 1xb0
 433 621 l 1
 605 747 l 1
 637 711 l 1
 461 586 l 1xb0
282 586 m 1
 254 621 l 1
 426 747 l 1
 457 711 l 1
 282 586 l 1
481 500 m 1
 541 500 l 1
 425 0 l 1
 367 0 l 1x70
 388 97 l 1
 388 97 307 -10 217 -10 c 0
 141 -10 100 39 100 112 c 0
 100 155 111 206 120 244 c 2
 180 500 l 1
 239 500 l 1
 180 248 l 2
 172 214 161 160 161 123 c 0
 161 73 187 44 236 44 c 0
 311 44 404 168 404 168 c 1
 481 500 l 1
EndSplineSet
EndChar

StartChar: uogonek
Encoding: 371 371 353
Width: 494
Flags: MW
HStem: -202 54<306.5 363> -10 54<211.5 262> 480 20G<180 239 239 239 481 541 541 541>
VStem: 100 61<98 133.5> 261 66<-133 -116>
LayerCount: 2
Fore
SplineSet
481 500 m 1
 541 500 l 1
 425 0 l 1
 393 -24 327 -87 327 -126 c 0
 327 -140 337 -148 355 -148 c 0
 371 -148 406 -142 406 -142 c 1
 400 -193 l 1
 400 -193 358 -202 329 -202 c 0
 284 -202 261 -179 261 -142 c 0
 261 -90 332 -22 368 7 c 1
 388 97 l 1
 388 97 307 -10 217 -10 c 0
 141 -10 100 39 100 112 c 0
 100 155 111 206 120 244 c 2
 180 500 l 1
 239 500 l 1
 180 248 l 2
 172 214 161 160 161 123 c 0
 161 73 187 44 236 44 c 0
 311 44 404 168 404 168 c 1
 481 500 l 1
EndSplineSet
EndChar

StartChar: wgrave
Encoding: 7809 7809 354
Width: 723
Flags: MW
HStem: 0 52<203 220 203 253 519 537> 480 20G<146 206 206 206 745 806 806 806>
VStem: 145 59.5 459 55
LayerCount: 2
Fore
SplineSet
381 734 m 1
 557 640 l 1
 529 599 l 1
 352 687 l 1
 381 734 l 1
146 500 m 1
 206 500 l 1
 203 52 l 1
 220 52 l 1
 437 490 l 1
 509 490 l 1
 519 52 l 1
 537 52 l 1
 745 500 l 1
 806 500 l 1
 574 0 l 1
 463 0 l 1
 455 413 l 1
 253 0 l 1
 144 0 l 1
 146 500 l 1
EndSplineSet
EndChar

StartChar: wacute
Encoding: 7811 7811 355
Width: 723
Flags: MW
HStem: 0 52<203 220 203 253 519 537> 480 20G<146 206 206 206 745 806 806 806>
VStem: 145 59.5 459 55
LayerCount: 2
Fore
SplineSet
146 500 m 1
 206 500 l 1
 203 52 l 1
 220 52 l 1
 437 490 l 1
 509 490 l 1
 519 52 l 1
 537 52 l 1
 745 500 l 1
 806 500 l 1
 574 0 l 1
 463 0 l 1
 455 413 l 1
 253 0 l 1
 144 0 l 1
 146 500 l 1
407 601 m 1
 401 647 l 1
 619 741 l 1
 626 688 l 1
 407 601 l 1
EndSplineSet
EndChar

StartChar: wcircumflex
Encoding: 373 373 356
Width: 723
Flags: MW
HStem: 0 52<203 220 203 253 519 537> 480 20G<146 206 206 206 745 806 806 806> 590 145<348 530 499 561 499 617>
VStem: 145 59.5 459 55
LayerCount: 2
Fore
SplineSet
146 500 m 1
 206 500 l 1
 203 52 l 1
 220 52 l 1
 437 490 l 1
 509 490 l 1
 519 52 l 1
 537 52 l 1
 745 500 l 1
 806 500 l 1
 574 0 l 1
 463 0 l 1
 455 413 l 1
 253 0 l 1
 144 0 l 1
 146 500 l 1
348 590 m 1
 499 735 l 1
 530 735 l 1
 617 590 l 1
 561 590 l 1
 507 682 l 1
 410 590 l 1
 348 590 l 1
EndSplineSet
EndChar

StartChar: wdieresis
Encoding: 7813 7813 357
Width: 723
Flags: MW
HStem: 0 52<203 220 203 253 519 537> 480 20G<146 206 206 206 745 806 806 806> 625 82<377 445 396 426 574 604>
VStem: 145 59.5 459 55
LayerCount: 2
Fore
SplineSet
146 500 m 1
 206 500 l 1
 203 52 l 1
 220 52 l 1
 437 490 l 1
 509 490 l 1
 519 52 l 1
 537 52 l 1
 745 500 l 1
 806 500 l 1
 574 0 l 1
 463 0 l 1
 455 413 l 1
 253 0 l 1
 144 0 l 1
 146 500 l 1
377 625 m 1
 396 707 l 1
 445 707 l 1
 426 625 l 1
 377 625 l 1
556 625 m 1
 574 707 l 1
 623 707 l 1
 604 625 l 1
 556 625 l 1
EndSplineSet
EndChar

StartChar: ygrave
Encoding: 7923 7923 358
Width: 452
Flags: MW
HStem: -224 21G<106 167 106 106> 0 52<215 224> 480 20G<142 201 201 201 478 541 541 541>
VStem: 150.5 57.5
LayerCount: 2
Fore
SplineSet
251 734 m 1
 427 640 l 1
 399 599 l 1
 222 687 l 1
 251 734 l 1
142 500 m 1
 201 500 l 1
 215 52 l 1
 249 52 l 1
 478 500 l 1
 541 500 l 1
 167 -224 l 1
 106 -224 l 1
 224 0 l 1
 159 0 l 1
 142 500 l 1
EndSplineSet
EndChar

